<svg width="35" height="35" viewBox="0 0 35 35" fill="none" xmlns="http://www.w3.org/2000/svg">
<path d="M17.1906 7.39838C14.1702 7.39838 11.4336 8.73313 9.23532 10.3163C7.03109 11.9015 5.28625 13.8021 4.22948 15.0796L4.2216 15.0895C3.74842 15.679 3.5 16.4223 3.5 17.1774C3.5 17.9325 3.74842 18.6758 4.2216 19.2633L4.22948 19.2752C5.28625 20.5508 7.03109 22.4514 9.23729 24.0405C11.4336 25.6236 14.1682 26.9564 17.1906 26.9564C20.2131 26.9564 22.9476 25.6236 25.1459 24.0405C27.3502 22.4514 29.095 20.5508 30.1518 19.2752L30.1597 19.2633C30.6328 18.6758 30.8813 17.9325 30.8813 17.1774C30.8813 16.4223 30.6328 15.679 30.1597 15.0915L30.1518 15.0816C29.095 13.804 27.3502 11.9034 25.144 10.3143C22.9476 8.73313 20.2131 7.39838 17.1906 7.39838Z" fill="#D9D9D9"/>
<path fill-rule="evenodd" clip-rule="evenodd" d="M3.39686 6.48673C3.13567 6.20643 2.99347 5.83568 3.00023 5.4526C3.00699 5.06952 3.16218 4.70402 3.4331 4.4331C3.70402 4.16218 4.06952 4.00699 4.4526 4.00023C4.83568 3.99347 5.20643 4.13567 5.48673 4.39686L14.765 13.6731C15.5928 13.2778 16.5228 13.1488 17.4269 13.3039C18.331 13.459 19.1649 13.8907 19.8135 14.5393C20.4622 15.188 20.8938 16.0218 21.0489 16.9259C21.204 17.8301 21.0751 18.7601 20.6797 19.5879L29.958 28.8681C30.1032 29.0035 30.2198 29.1667 30.3006 29.3481C30.3814 29.5295 30.4248 29.7253 30.4284 29.9238C30.4319 30.1224 30.3953 30.3196 30.321 30.5037C30.2466 30.6878 30.1359 30.8551 29.9955 30.9955C29.8551 31.1359 29.6878 31.2466 29.5037 31.321C29.3196 31.3953 29.1224 31.4319 28.9238 31.4284C28.7253 31.4248 28.5295 31.3814 28.3481 31.3006C28.1667 31.2198 28.0035 31.1032 27.8681 30.958L3.39686 6.48673Z" fill="#B9B9B9"/>
</svg>
