<svg width="35" height="35" viewBox="0 0 35 35" fill="none" xmlns="http://www.w3.org/2000/svg">
<path d="M17.1906 7.39838C14.1702 7.39838 11.4336 8.73313 9.23532 10.3163C7.03109 11.9015 5.28625 13.8021 4.22948 15.0796L4.2216 15.0895C3.74842 15.679 3.5 16.4223 3.5 17.1774C3.5 17.9325 3.74842 18.6758 4.2216 19.2633L4.22948 19.2752C5.28625 20.5508 7.03109 22.4514 9.23729 24.0405C11.4336 25.6236 14.1682 26.9564 17.1906 26.9564C20.2131 26.9564 22.9476 25.6236 25.1459 24.0405C27.3502 22.4514 29.095 20.5508 30.1518 19.2752L30.1597 19.2633C30.6328 18.6758 30.8813 17.9325 30.8813 17.1774C30.8813 16.4223 30.6328 15.679 30.1597 15.0915L30.1518 15.0816C29.095 13.804 27.3502 11.9034 25.144 10.3143C22.9476 8.73313 20.2131 7.39838 17.1906 7.39838Z" fill="#D9D9D9"/>
<path d="M13 17C13 17.5253 13.1035 18.0454 13.3045 18.5307C13.5055 19.016 13.8001 19.457 14.1716 19.8284C14.543 20.1999 14.984 20.4945 15.4693 20.6955C15.9546 20.8965 16.4747 21 17 21C17.5253 21 18.0454 20.8965 18.5307 20.6955C19.016 20.4945 19.457 20.1999 19.8284 19.8284C20.1999 19.457 20.4945 19.016 20.6955 18.5307C20.8965 18.0454 21 17.5253 21 17C21 16.4747 20.8965 15.9546 20.6955 15.4693C20.4945 14.984 20.1999 14.543 19.8284 14.1716C19.457 13.8001 19.016 13.5055 18.5307 13.3045C18.0454 13.1035 17.5253 13 17 13C16.4747 13 15.9546 13.1035 15.4693 13.3045C14.984 13.5055 14.543 13.8001 14.1716 14.1716C13.8001 14.543 13.5055 14.984 13.3045 15.4693C13.1035 15.9546 13 16.4747 13 17Z" fill="#B9B9B9"/>
</svg>
