<svg width="290" height="290" viewBox="0 0 290 290" fill="none" xmlns="http://www.w3.org/2000/svg">
<circle cx="150" cy="177.5" r="112" fill="#FF8500"/>
<mask id="mask0_657_415" style="mask-type:alpha" maskUnits="userSpaceOnUse" x="23" y="1" width="244" height="289">
<path fill-rule="evenodd" clip-rule="evenodd" d="M38.3811 186.806L23 111L76.5 68L129.5 1H158.5H187L239 68L267 163L261.054 194.5H260.718C252.528 248.288 206.077 289.5 150 289.5C91.2779 289.5 43.1109 244.308 38.3811 186.806Z" fill="#D9D9D9"/>
</mask>
<g mask="url(#mask0_657_415)">
<path d="M233.899 160.451C236.149 143.251 238.249 124.991 231.039 109.221C226.649 99.6208 218.989 91.4808 216.489 81.2208C214.029 71.1008 214.509 59.5908 213.409 49.2308C211.099 27.5408 189.209 11.6908 181.549 11.2808L111.669 69.8508C111.239 85.6408 110.769 101.661 106.129 116.751C102.719 127.831 97.0795 138.361 95.7995 149.881C94.2895 163.461 98.9194 177.651 94.6794 190.631C90.6794 202.871 79.3394 211.981 76.6794 224.581C74.7094 233.891 77.7695 244.091 74.0195 252.841C72.3895 256.631 69.4995 260.731 71.2695 264.461C72.6295 267.331 76.1195 268.371 79.2195 269.071C96.3695 272.921 113.759 275.681 131.259 277.311C132.599 272.121 133.939 266.931 135.289 261.751C133.909 268.861 138.949 276.361 145.519 279.781C152.589 283.461 160.899 283.611 168.879 283.671C185.169 283.801 201.459 283.931 217.749 284.061C223.119 242.871 228.509 201.661 233.899 160.451Z" fill="#593718"/>
<path d="M200.719 21.5408C189.209 8.43079 174.109 1.18079 156.659 1.51079C146.819 1.69079 142.819 3.88079 135.799 6.04079C128.779 8.20079 122.529 12.2208 118.509 18.3708C113.739 25.6708 109.799 33.7908 109.159 42.4908C108.499 51.4208 107.839 60.4208 108.819 69.3208C109.799 78.2208 112.539 87.1308 118.049 94.1908L140.899 97.3408C153.459 97.3308 166.189 97.2908 178.309 94.0008C190.429 90.7108 202.069 83.7208 208.239 72.7808C216.819 57.5808 212.239 34.6508 200.719 21.5408Z" fill="#593718"/>
<path d="M114.659 135.101C114.659 135.101 92.9793 136.311 79.6493 152.331C71.5693 162.041 37.2893 202.241 38.8693 202.751C40.4493 203.261 82.6793 223.831 82.6793 223.831C82.6893 222.301 114.659 135.101 114.659 135.101Z" fill="#F4FBE2"/>
<path d="M78.4693 174.741C79.2693 176.241 69.9793 288.801 69.5893 289.931C69.1993 291.061 63.4193 351.931 65.3393 353.061C67.2693 354.191 205.069 355.421 205.069 355.421L209.289 219.651L221.049 140.071L184.869 128.671L114.449 135.651L78.4693 174.741Z" fill="#F4FBE2"/>
<path d="M81.8135 187.5H182.538L193.528 263.623C193.528 263.623 205.32 266.823 205.229 268.177C205.149 269.536 211 289.5 211 289.5H58L75.0111 208.395L81.8135 187.5Z" fill="#FF8500"/>
<path d="M84.2393 190.191C84.2393 190.191 84.9593 144.451 110.889 135.571C113.179 134.701 115.879 134.581 118.769 134.821C118.769 134.821 93.6493 151.381 94.5793 190.181H84.2393V190.191Z" fill="#FF8500"/>
<path d="M167.689 193.771C167.689 193.771 178.359 145.231 204.279 136.351L211.369 138.581C211.369 138.581 180.309 160.211 179.119 193.471L167.689 193.771Z" fill="#FF8500"/>
<path d="M175.069 196.461C175.069 197.951 173.859 199.151 172.379 199.151C170.889 199.151 169.689 197.941 169.689 196.461C169.689 194.981 170.899 193.771 172.379 193.771C173.859 193.771 175.069 194.971 175.069 196.461Z" fill="#F4FBE2"/>
<path d="M157.079 22.2908L154.969 22.3308C133.779 22.7608 110.479 37.3808 109.199 58.5308C108.009 78.2008 106.959 77.9508 107.299 88.4908C108.009 110.301 135.899 114.251 135.899 114.251L134.589 145.501L153.959 162.051L180.219 142.171L190.269 65.6208C191.769 42.9408 179.809 23.1608 157.079 22.2908Z" fill="#FFC19D"/>
<path d="M135.719 114.311C135.719 114.311 149.489 114.841 163.959 105.341C163.959 105.341 157.259 121.241 135.449 119.721L135.719 114.311Z" fill="#FF9C6A"/>
<path d="M187.199 68.9407C187.269 65.5707 190.119 62.8507 193.479 63.1007C197.559 63.4007 202.129 65.6207 202.029 74.0407C201.859 88.9707 186.909 85.7107 186.889 85.2807C186.869 84.9907 187.069 75.1907 187.199 68.9407Z" fill="#FFC19D"/>
<path d="M190.199 79.7109C190.269 79.6609 190.459 79.9009 190.899 80.1009C191.329 80.3009 192.059 80.4509 192.839 80.1609C194.419 79.6009 195.779 77.1109 195.879 74.4209C195.929 73.0609 195.659 71.7709 195.199 70.6909C194.759 69.5909 194.059 68.8209 193.269 68.6709C192.479 68.4809 191.909 68.9509 191.729 69.3609C191.519 69.7809 191.619 70.0709 191.539 70.1009C191.499 70.1409 191.219 69.8509 191.349 69.2309C191.419 68.9309 191.589 68.5809 191.949 68.3009C192.309 68.0109 192.839 67.8709 193.389 67.9409C194.539 68.0309 195.559 69.1009 196.079 70.2809C196.659 71.4709 196.989 72.9309 196.929 74.4509C196.799 77.4609 195.229 80.2509 193.059 80.8509C192.009 81.1109 191.129 80.7809 190.689 80.4309C190.219 80.0709 190.149 79.7309 190.199 79.7109Z" fill="#FF9C6A"/>
<path d="M122.679 134.561L134.719 124.771L145.409 143.551L183.329 118.761L192.819 133.381L183.309 144.841L148.369 171.641L125.419 148.981L122.679 134.561Z" fill="#F4FBE2"/>
<path d="M80.3793 172.921C80.5293 172.931 79.1694 188.421 77.3494 207.491C75.5294 226.581 73.9294 242.031 73.7794 242.021C73.6294 242.011 74.9893 226.531 76.8093 207.441C78.6393 188.361 80.2393 172.911 80.3793 172.921Z" fill="#FF8500"/>
<path d="M197.679 173.111C197.819 173.161 193.719 184.861 188.529 199.241C183.339 213.631 179.019 225.241 178.879 225.191C178.739 225.141 182.839 213.441 188.029 199.051C193.219 184.681 197.539 173.061 197.679 173.111Z" fill="#FF8500"/>
<path d="M191.629 136.061C191.629 136.071 191.579 136.121 191.459 136.211C191.319 136.321 191.139 136.451 190.919 136.621C190.409 137.001 189.709 137.511 188.819 138.171C186.959 139.551 184.309 141.521 181.009 143.961C174.399 148.921 165.279 156.021 155.259 164.531L155.019 164.731L154.859 164.461C153.129 161.571 151.619 158.401 150.139 155.161C148.569 151.721 147.009 148.371 145.189 145.321L145.629 145.341C143.509 148.211 141.139 150.691 138.929 153.091C136.709 155.481 134.619 157.761 132.909 160.091L132.659 160.421L132.509 160.031C129.709 152.711 127.379 146.631 125.739 142.341C124.949 140.231 124.329 138.571 123.879 137.391C123.679 136.841 123.529 136.411 123.409 136.081C123.309 135.781 123.259 135.631 123.269 135.621C123.279 135.621 123.349 135.761 123.479 136.051C123.609 136.371 123.789 136.801 124.009 137.331C124.479 138.501 125.139 140.151 125.979 142.231C127.669 146.511 130.059 152.571 132.929 159.851L132.539 159.801C134.259 157.431 136.359 155.121 138.559 152.731C140.759 150.331 143.109 147.851 145.199 145.011L145.429 144.691L145.629 145.031C147.479 148.101 149.049 151.471 150.619 154.921C152.099 158.161 153.589 161.301 155.299 164.171L154.899 164.101C164.949 155.591 174.119 148.541 180.789 143.651C184.119 141.201 186.819 139.291 188.689 137.991C189.599 137.361 190.319 136.871 190.849 136.511C191.079 136.361 191.269 136.241 191.419 136.141C191.559 136.091 191.629 136.051 191.629 136.061Z" fill="#FF8500" stroke="#FF8500" stroke-width="2" stroke-miterlimit="10" stroke-linecap="round" stroke-linejoin="round"/>
<path d="M81.7491 137.221C81.7491 137.221 71.8191 153.911 67.2391 155.631L67.2491 155.641C63.9191 155.931 60.6391 158.301 58.9691 162.031C57.0691 166.281 57.8691 170.921 60.6491 173.491C59.4091 175.771 57.0091 177.461 54.3591 177.181C52.9391 177.031 52.5791 179.221 53.9991 179.371C57.5391 179.751 60.7591 177.751 62.4991 174.741C62.5491 174.761 62.5891 174.791 62.6391 174.811C66.9491 176.741 72.3091 174.151 74.5991 169.011C76.0191 165.831 75.9291 162.421 74.6191 159.821C74.6191 159.821 73.3091 156.691 74.4291 153.501C75.5491 150.311 83.7391 138.731 83.7391 138.731L81.7491 137.221ZM70.0491 158.231C73.4391 159.751 74.7291 164.241 72.9291 168.271C71.1291 172.301 66.9191 174.341 63.5291 172.831C60.1391 171.311 58.8491 166.821 60.6491 162.781C62.4491 158.751 66.6591 156.711 70.0491 158.231Z" fill="#E1E1E1"/>
<path d="M87.3088 138.131L84.9288 138.941C84.9288 138.941 89.0188 152.521 89.0688 155.901C89.1188 159.291 86.8788 161.831 86.8788 161.831C84.8188 163.871 83.6389 167.071 83.9789 170.551C84.5189 176.141 88.7789 180.301 93.4789 179.851C98.1889 179.391 101.559 174.491 101.019 168.901C100.629 164.841 98.2688 161.541 95.1988 160.211H95.2189C91.4089 157.111 87.3088 138.131 87.3088 138.131ZM91.7189 161.761C95.4189 161.401 98.7588 164.671 99.1888 169.071C99.6188 173.471 96.9688 177.321 93.2688 177.681C89.5688 178.041 86.2289 174.771 85.7989 170.371C85.3689 165.971 88.0189 162.121 91.7189 161.761Z" fill="#E1E1E1"/>
<path d="M93.6093 80.7907C98.4393 81.5807 87.9092 139.121 87.9092 139.121L85.7292 141.711L82.0992 141.121L80.4692 137.911C80.4692 137.901 88.7793 80.0007 93.6093 80.7907Z" fill="#E1E1E1"/>
<path d="M83.1491 134.471C82.9891 135.471 83.6591 136.411 84.6591 136.571C85.6591 136.731 86.5891 136.061 86.7591 135.061C86.9191 134.061 86.2491 133.121 85.2491 132.961C84.2491 132.801 83.3091 133.471 83.1491 134.471Z" fill="white"/>
<path d="M29.2592 115.781L37.4392 112.481L30.3692 117.601L30.4592 117.741L37.8992 113.231L38.3092 113.911L30.8692 118.421L31.2792 119.101L38.7292 114.581L39.1392 115.261L31.6892 119.781L32.0992 120.461L39.5492 115.941L39.9592 116.621L32.4992 121.141L32.9092 121.821L40.3692 117.301L40.7792 117.981L33.3192 122.501L33.7292 123.181L41.1892 118.651L41.5992 119.331L34.1292 123.861L34.5392 124.541L42.0092 120.011L42.4192 120.691L34.9492 125.221L35.3592 125.901L42.8292 121.371L43.2392 122.051L35.7592 126.581L36.1692 127.261L43.6492 122.721L44.0592 123.401L36.5792 127.941L36.9892 128.621L44.4692 124.081L44.8792 124.761L37.3892 129.301L37.7992 129.981L45.2892 125.441L45.6992 126.121L38.2092 130.661L38.6192 131.341L46.1092 126.791L46.5192 127.471L39.0192 132.021L39.4292 132.711L46.9292 128.161L47.3392 128.841L39.8392 133.391L40.2492 134.071L47.7592 129.521L48.1692 130.201L40.6592 134.751L41.0692 135.441L48.5792 130.891L48.9892 131.571L41.4792 136.131L41.8892 136.811L49.4092 132.251L49.8192 132.931L42.2992 137.491L42.7092 138.181L50.2292 133.621L50.6392 134.301L43.1192 138.861L43.5292 139.541L51.0592 134.981L51.4692 135.661L43.9392 140.231L44.3492 140.911L51.8792 136.341L52.2892 137.021L44.7592 141.591L45.1692 142.271L52.7092 137.701L53.1192 138.381L45.5792 142.951L45.9892 143.631L53.5292 139.061L53.9392 139.741L46.3992 144.321L46.8092 145.001L54.3592 140.421L54.7692 141.101L47.2192 145.681L47.6292 146.361L55.1792 141.781L55.5892 142.461L48.0392 147.041L48.4492 147.721L56.0092 143.141L56.4192 143.821L48.8592 148.401L49.2692 149.081L56.8292 144.491L57.2392 145.171L49.6692 149.761L50.0792 150.441L57.6492 145.851L58.0592 146.531L50.4892 151.121L50.8992 151.801L58.4692 147.211L58.8792 147.891L51.2992 152.481L51.7092 153.161L59.2892 148.561L59.6992 149.241L52.1192 153.841L52.5292 154.521L60.1092 149.921L60.5192 150.601L52.9292 155.201L53.3392 155.891L60.9292 151.291L61.3392 151.971L53.7492 156.571L53.9792 156.961L61.5692 152.361C61.5692 152.361 56.1892 160.611 57.5692 162.891C58.9492 165.171 80.6592 201.641 78.8392 202.751C78.8392 202.751 77.7792 203.391 63.6892 180.161C49.5992 156.921 27.7692 120.931 27.7692 120.931C27.7692 120.931 25.2792 117.781 29.2592 115.781Z" fill="#393939"/>
<path d="M72.0193 224.091C72.0193 224.091 150.949 308.291 173.229 312.871C195.509 317.451 202.639 310.621 209.319 291.231C215.999 271.851 241.829 187.161 241.829 187.161L196.409 178.501L173.429 256.621L95.2993 208.451L72.0193 224.091Z" fill="#FFC19D"/>
<path d="M54.6892 181.321C54.6892 181.321 51.3192 187.061 54.6892 193.891C58.0592 200.721 70.7392 224.641 72.0192 224.091C73.2892 223.541 96.8892 211.041 96.8892 211.041L94.0292 171.511L84.9092 152.731C83.2692 150.381 80.9492 148.591 78.2592 147.601C74.2292 146.131 69.1292 145.351 70.4092 151.551C70.6892 152.921 75.0492 159.201 75.0492 159.201L77.9892 168.761C77.9892 168.761 71.2592 161.381 67.8892 161.111C64.5192 160.841 62.8392 162.751 63.9592 167.391C65.0792 172.031 67.8892 175.861 67.8892 175.861C67.8892 175.861 60.5992 172.311 59.4692 178.321C59.4592 178.321 55.6592 178.831 54.6892 181.321Z" fill="#FFC19D"/>
<path d="M218.129 139.801C218.129 139.801 232.909 139.801 242.519 161.631C250.679 180.161 233.159 245.971 233.159 245.971L177.449 226.971L202.149 158.201L218.129 139.801Z" fill="#F4FBE2"/>
<path d="M65.1192 214.641C65.1892 214.601 65.7092 215.441 66.5692 216.781C67.4292 218.121 68.6392 219.951 70.0592 221.911C71.4692 223.881 72.8192 225.621 73.7992 226.871C74.7792 228.131 75.3892 228.901 75.3392 228.951C75.2892 229.001 74.5692 228.321 73.5092 227.121C72.4492 225.921 71.0492 224.211 69.6292 222.231C68.1992 220.251 67.0292 218.381 66.2492 216.981C65.4592 215.581 65.0592 214.671 65.1192 214.641Z" fill="#FF9C6A"/>
<path d="M43.7293 205.001C43.1193 204.141 24.2293 247.161 29.4893 260.971C34.7393 274.781 61.7493 283.161 97.1893 289.841C129.979 296.011 145.419 296.351 145.419 296.351L131.909 269.701L70.2793 241.511L78.4593 219.781L43.7293 205.001Z" fill="#FFC19D"/>
<path d="M63.4692 210.561C63.4792 210.561 63.5292 210.631 63.6192 210.791C63.7292 210.971 63.8592 211.201 64.0392 211.481C64.4292 212.111 64.9792 213.011 65.6892 214.151C67.1492 216.471 69.3292 219.821 72.1592 223.991L72.1392 223.971C80.7892 232.781 94.1592 246.311 109.379 261.161C122.959 274.391 135.469 286.141 144.899 294.221C149.609 298.261 153.549 301.391 156.399 303.361C157.099 303.871 157.749 304.291 158.319 304.641C158.889 304.991 159.349 305.311 159.769 305.511C160.149 305.721 160.449 305.881 160.679 306.001C160.889 306.111 160.989 306.181 160.979 306.191C160.979 306.201 160.869 306.151 160.649 306.051C160.409 305.941 160.099 305.791 159.709 305.601C159.289 305.421 158.809 305.111 158.229 304.771C157.649 304.431 156.989 304.031 156.279 303.531C153.389 301.601 149.399 298.511 144.659 294.501C135.159 286.491 122.589 274.771 109.009 261.541C93.7792 246.681 80.4692 233.111 71.8992 224.211L71.8892 224.201L71.8792 224.191C69.0792 219.991 66.9492 216.601 65.5392 214.251C64.8292 213.081 64.3092 212.161 63.9692 211.531C63.8092 211.231 63.6892 211.001 63.5992 210.811C63.5092 210.641 63.4692 210.561 63.4692 210.561Z" fill="#FF9C6A"/>
<path d="M185.539 281.271C185.409 281.341 182.579 275.941 179.219 269.211C175.859 262.481 173.239 256.981 173.379 256.911C173.509 256.841 176.339 262.241 179.699 268.971C183.059 275.701 185.679 281.201 185.539 281.271Z" fill="#FF9C6A"/>
<path d="M127.162 65.4814C127.495 63.443 126.616 61.6027 125.199 61.3711C123.782 61.1395 122.363 62.6042 122.03 64.6427C121.697 66.6812 122.575 68.5215 123.992 68.7531C125.41 68.9847 126.828 67.5199 127.162 65.4814Z" fill="black"/>
<path d="M139.921 65.1271C140.114 63.0707 139.112 61.2949 137.682 61.1608C136.253 61.0266 134.937 62.585 134.744 64.6415C134.551 66.6979 135.554 68.4737 136.984 68.6078C138.413 68.7419 139.729 67.1836 139.921 65.1271Z" fill="black"/>
<path d="M124.209 83.5208C124.209 83.5208 133.969 91.4308 147.419 79.3008" stroke="#EA8673" stroke-width="3" stroke-miterlimit="10" stroke-linecap="round" stroke-linejoin="round"/>
<path d="M191.129 63.3807C189.979 64.1907 189.459 65.0307 188.789 66.0507C188.649 66.2607 187.299 69.2007 187.259 69.1807C166.439 56.7607 123.699 23.5107 126.119 25.5207C126.119 25.5207 136.709 18.0307 149.899 17.2807C163.089 16.5307 188.619 17.3607 191.679 32.4107C193.109 39.4507 193.149 46.7507 192.449 53.8807C192.249 55.9507 191.979 58.0107 191.629 60.0507C191.449 61.1607 192.069 62.7207 191.129 63.3807Z" fill="#593718"/>
</g>
</svg>
