<svg width="290" height="290" viewBox="0 0 290 290" fill="none" xmlns="http://www.w3.org/2000/svg">
<circle cx="149.5" cy="177.5" r="112" fill="#CCCCCC"/>
<mask id="mask0_765_289" style="mask-type:alpha" maskUnits="userSpaceOnUse" x="23" y="1" width="243" height="289">
<path fill-rule="evenodd" clip-rule="evenodd" d="M122.5 6L148.29 1H187.5L206 11L229.5 87.5L266 152.5L261 200.5H259.136C248.528 251.323 203.472 289.5 149.5 289.5C95.5275 289.5 50.4718 251.323 39.8639 200.5H39.5L31 177L23 113.5L84 79L122.5 6Z" fill="#D9D9D9"/>
</mask>
<g mask="url(#mask0_765_289)">
<path d="M233.399 160.451C235.649 143.251 237.749 124.991 230.539 109.221C226.149 99.6208 218.489 91.4808 215.989 81.2208C213.529 71.1008 214.009 59.5908 212.909 49.2308C210.599 27.5408 188.709 11.6908 181.049 11.2808L111.169 69.8508C110.739 85.6408 110.269 101.661 105.629 116.751C102.219 127.831 96.5795 138.361 95.2995 149.881C93.7895 163.461 98.4194 177.651 94.1794 190.631C90.1794 202.871 78.8394 211.981 76.1794 224.581C74.2094 233.891 77.2695 244.091 73.5195 252.841C71.8895 256.631 68.9995 260.731 70.7695 264.461C72.1295 267.331 75.6195 268.371 78.7195 269.071C95.8695 272.921 113.259 275.681 130.759 277.311C132.099 272.121 133.439 266.931 134.789 261.751C133.409 268.861 138.449 276.361 145.019 279.781C152.089 283.461 160.399 283.611 168.379 283.671C184.669 283.801 200.959 283.931 217.249 284.061C222.619 242.871 228.009 201.661 233.399 160.451Z" fill="#4A4A4A"/>
<path d="M200.219 21.5408C188.709 8.43079 173.609 1.18079 156.159 1.51079C146.319 1.69079 142.319 3.88079 135.299 6.04079C128.279 8.20079 122.029 12.2208 118.009 18.3708C113.239 25.6708 109.299 33.7908 108.659 42.4908C107.999 51.4208 107.339 60.4208 108.319 69.3208C109.299 78.2208 112.039 87.1308 117.549 94.1908L140.399 97.3408C152.959 97.3308 165.689 97.2908 177.809 94.0008C189.929 90.7108 201.569 83.7208 207.739 72.7808C216.319 57.5808 211.739 34.6508 200.219 21.5408Z" fill="#4A4A4A"/>
<path d="M114.159 135.101C114.159 135.101 92.4793 136.311 79.1493 152.331C71.0693 162.041 36.7893 202.241 38.3693 202.751C39.9493 203.261 82.1793 223.831 82.1793 223.831C82.1893 222.301 114.159 135.101 114.159 135.101Z" fill="#A9A9A9"/>
<path d="M77.9693 174.741C78.7693 176.241 69.4793 288.801 69.0893 289.931C68.6993 291.061 62.9193 351.931 64.8393 353.061C66.7693 354.191 204.569 355.421 204.569 355.421L208.789 219.651L220.549 140.071L184.369 128.671L113.949 135.651L77.9693 174.741Z" fill="#A9A9A9"/>
<path d="M81.6293 187.421H182.169L195.5 277.5C195.5 277.5 184.09 274.81 184 277.5C183.92 280.2 167.5 288 167.5 288L74.8394 263.5V228.941L81.6293 187.421Z" fill="#696969"/>
<path d="M83.7393 190.191C83.7393 190.191 84.4593 144.451 110.389 135.571C112.679 134.701 115.379 134.581 118.269 134.821C118.269 134.821 93.1493 151.381 94.0793 190.181H83.7393V190.191Z" fill="#696969"/>
<path d="M167.189 193.771C167.189 193.771 177.859 145.231 203.779 136.351L210.869 138.581C210.869 138.581 179.809 160.211 178.619 193.471L167.189 193.771Z" fill="#696969"/>
<path d="M174.569 196.461C174.569 197.951 173.359 199.151 171.879 199.151C170.389 199.151 169.189 197.941 169.189 196.461C169.189 194.981 170.399 193.771 171.879 193.771C173.359 193.771 174.569 194.971 174.569 196.461Z" fill="#A9A9A9"/>
<path d="M156.579 22.2908L154.469 22.3308C133.279 22.7608 109.979 37.3808 108.699 58.5308C107.509 78.2008 106.459 77.9508 106.799 88.4908C107.509 110.301 135.399 114.251 135.399 114.251L134.089 145.501L153.459 162.051L179.719 142.171L189.769 65.6208C191.269 42.9408 179.309 23.1608 156.579 22.2908Z" fill="#E6E6E6"/>
<path d="M135.219 114.311C135.219 114.311 148.989 114.841 163.459 105.341C163.459 105.341 156.759 121.241 134.949 119.721L135.219 114.311Z" fill="#696969"/>
<path d="M186.699 68.9407C186.769 65.5707 189.619 62.8507 192.979 63.1007C197.059 63.4007 201.629 65.6207 201.529 74.0407C201.359 88.9707 186.409 85.7107 186.389 85.2807C186.369 84.9907 186.569 75.1907 186.699 68.9407Z" fill="#E6E6E6"/>
<path d="M189.699 79.7109C189.769 79.6609 189.959 79.9009 190.399 80.1009C190.829 80.3009 191.559 80.4509 192.339 80.1609C193.919 79.6009 195.279 77.1109 195.379 74.4209C195.429 73.0609 195.159 71.7709 194.699 70.6909C194.259 69.5909 193.559 68.8209 192.769 68.6709C191.979 68.4809 191.409 68.9509 191.229 69.3609C191.019 69.7809 191.119 70.0709 191.039 70.1009C190.999 70.1409 190.719 69.8509 190.849 69.2309C190.919 68.9309 191.089 68.5809 191.449 68.3009C191.809 68.0109 192.339 67.8709 192.889 67.9409C194.039 68.0309 195.059 69.1009 195.579 70.2809C196.159 71.4709 196.489 72.9309 196.429 74.4509C196.299 77.4609 194.729 80.2509 192.559 80.8509C191.509 81.1109 190.629 80.7809 190.189 80.4309C189.719 80.0709 189.649 79.7309 189.699 79.7109Z" fill="#696969"/>
<path d="M122.179 134.561L134.219 124.771L144.909 143.551L182.829 118.761L192.319 133.381L182.809 144.841L147.869 171.641L124.919 148.981L122.179 134.561Z" fill="#A9A9A9"/>
<path d="M197.179 173.111C197.319 173.161 193.219 184.861 188.029 199.241C182.839 213.631 178.519 225.241 178.379 225.191C178.239 225.141 182.339 213.441 187.529 199.051C192.719 184.681 197.039 173.061 197.179 173.111Z" fill="#3A3A3A"/>
<path d="M191.129 136.061C191.129 136.071 191.079 136.121 190.959 136.211C190.819 136.321 190.639 136.451 190.419 136.621C189.909 137.001 189.209 137.511 188.319 138.171C186.459 139.551 183.809 141.521 180.509 143.961C173.899 148.921 164.779 156.021 154.759 164.531L154.519 164.731L154.359 164.461C152.629 161.571 151.119 158.401 149.639 155.161C148.069 151.721 146.509 148.371 144.689 145.321L145.129 145.341C143.009 148.211 140.639 150.691 138.429 153.091C136.209 155.481 134.119 157.761 132.409 160.091L132.159 160.421L132.009 160.031C129.209 152.711 126.879 146.631 125.239 142.341C124.449 140.231 123.829 138.571 123.379 137.391C123.179 136.841 123.029 136.411 122.909 136.081C122.809 135.781 122.759 135.631 122.769 135.621C122.779 135.621 122.849 135.761 122.979 136.051C123.109 136.371 123.289 136.801 123.509 137.331C123.979 138.501 124.639 140.151 125.479 142.231C127.169 146.511 129.559 152.571 132.429 159.851L132.039 159.801C133.759 157.431 135.859 155.121 138.059 152.731C140.259 150.331 142.609 147.851 144.699 145.011L144.929 144.691L145.129 145.031C146.979 148.101 148.549 151.471 150.119 154.921C151.599 158.161 153.089 161.301 154.799 164.171L154.399 164.101C164.449 155.591 173.619 148.541 180.289 143.651C183.619 141.201 186.319 139.291 188.189 137.991C189.099 137.361 189.819 136.871 190.349 136.511C190.579 136.361 190.769 136.241 190.919 136.141C191.059 136.091 191.129 136.051 191.129 136.061Z" fill="#3A3A3A" stroke="#3A3A3A" stroke-width="2" stroke-miterlimit="10" stroke-linecap="round" stroke-linejoin="round"/>
<path d="M81.2491 137.221C81.2491 137.221 71.3191 153.911 66.7391 155.631L66.7491 155.641C63.4191 155.931 60.1391 158.301 58.4691 162.031C56.5691 166.281 57.3691 170.921 60.1491 173.491C58.9091 175.771 56.5091 177.461 53.8591 177.181C52.4391 177.031 52.0791 179.221 53.4991 179.371C57.0391 179.751 60.2591 177.751 61.9991 174.741C62.0491 174.761 62.0891 174.791 62.1391 174.811C66.4491 176.741 71.8091 174.151 74.0991 169.011C75.5191 165.831 75.4291 162.421 74.1191 159.821C74.1191 159.821 72.8091 156.691 73.9291 153.501C75.0491 150.311 83.2391 138.731 83.2391 138.731L81.2491 137.221ZM69.5491 158.231C72.9391 159.751 74.2291 164.241 72.4291 168.271C70.6291 172.301 66.4191 174.341 63.0291 172.831C59.6391 171.311 58.3491 166.821 60.1491 162.781C61.9491 158.751 66.1591 156.711 69.5491 158.231Z" fill="#878787"/>
<path d="M86.8088 138.131L84.4288 138.941C84.4288 138.941 88.5188 152.521 88.5688 155.901C88.6188 159.291 86.3788 161.831 86.3788 161.831C84.3188 163.871 83.1389 167.071 83.4789 170.551C84.0189 176.141 88.2789 180.301 92.9789 179.851C97.6889 179.391 101.059 174.491 100.519 168.901C100.129 164.841 97.7688 161.541 94.6988 160.211H94.7189C90.9089 157.111 86.8088 138.131 86.8088 138.131ZM91.2189 161.761C94.9189 161.401 98.2588 164.671 98.6888 169.071C99.1188 173.471 96.4688 177.321 92.7688 177.681C89.0688 178.041 85.7289 174.771 85.2989 170.371C84.8689 165.971 87.5189 162.121 91.2189 161.761Z" fill="#878787"/>
<path d="M93.1093 80.7907C97.9393 81.5807 87.4092 139.121 87.4092 139.121L85.2292 141.711L81.5992 141.121L79.9692 137.911C79.9692 137.901 88.2793 80.0007 93.1093 80.7907Z" fill="#878787"/>
<path d="M82.6491 134.471C82.4891 135.471 83.1591 136.411 84.1591 136.571C85.1591 136.731 86.0891 136.061 86.2591 135.061C86.4191 134.061 85.7491 133.121 84.7491 132.961C83.7491 132.801 82.8091 133.471 82.6491 134.471Z" fill="white"/>
<path d="M28.7592 115.781L36.9392 112.481L29.8692 117.601L29.9592 117.741L37.3992 113.231L37.8092 113.911L30.3692 118.421L30.7792 119.101L38.2292 114.581L38.6392 115.261L31.1892 119.781L31.5992 120.461L39.0492 115.941L39.4592 116.621L31.9992 121.141L32.4092 121.821L39.8692 117.301L40.2792 117.981L32.8192 122.501L33.2292 123.181L40.6892 118.651L41.0992 119.331L33.6292 123.861L34.0392 124.541L41.5092 120.011L41.9192 120.691L34.4492 125.221L34.8592 125.901L42.3292 121.371L42.7392 122.051L35.2592 126.581L35.6692 127.261L43.1492 122.721L43.5592 123.401L36.0792 127.941L36.4892 128.621L43.9692 124.081L44.3792 124.761L36.8892 129.301L37.2992 129.981L44.7892 125.441L45.1992 126.121L37.7092 130.661L38.1192 131.341L45.6092 126.791L46.0192 127.471L38.5192 132.021L38.9292 132.711L46.4292 128.161L46.8392 128.841L39.3392 133.391L39.7492 134.071L47.2592 129.521L47.6692 130.201L40.1592 134.751L40.5692 135.441L48.0792 130.891L48.4892 131.571L40.9792 136.131L41.3892 136.811L48.9092 132.251L49.3192 132.931L41.7992 137.491L42.2092 138.181L49.7292 133.621L50.1392 134.301L42.6192 138.861L43.0292 139.541L50.5592 134.981L50.9692 135.661L43.4392 140.231L43.8492 140.911L51.3792 136.341L51.7892 137.021L44.2592 141.591L44.6692 142.271L52.2092 137.701L52.6192 138.381L45.0792 142.951L45.4892 143.631L53.0292 139.061L53.4392 139.741L45.8992 144.321L46.3092 145.001L53.8592 140.421L54.2692 141.101L46.7192 145.681L47.1292 146.361L54.6792 141.781L55.0892 142.461L47.5392 147.041L47.9492 147.721L55.5092 143.141L55.9192 143.821L48.3592 148.401L48.7692 149.081L56.3292 144.491L56.7392 145.171L49.1692 149.761L49.5792 150.441L57.1492 145.851L57.5592 146.531L49.9892 151.121L50.3992 151.801L57.9692 147.211L58.3792 147.891L50.7992 152.481L51.2092 153.161L58.7892 148.561L59.1992 149.241L51.6192 153.841L52.0292 154.521L59.6092 149.921L60.0192 150.601L52.4292 155.201L52.8392 155.891L60.4292 151.291L60.8392 151.971L53.2492 156.571L53.4792 156.961L61.0692 152.361C61.0692 152.361 55.6892 160.611 57.0692 162.891C58.4492 165.171 80.1592 201.641 78.3392 202.751C78.3392 202.751 77.2792 203.391 63.1892 180.161C49.0992 156.921 27.2692 120.931 27.2692 120.931C27.2692 120.931 24.7792 117.781 28.7592 115.781Z" fill="#A9A9A9"/>
<path d="M71.5193 224.091C71.5193 224.091 150.449 308.291 172.729 312.871C195.009 317.451 202.139 310.621 208.819 291.231C215.499 271.851 241.329 187.161 241.329 187.161L195.909 178.501L172.929 256.621L94.7993 208.451L71.5193 224.091Z" fill="#E6E6E6"/>
<path d="M54.1892 181.321C54.1892 181.321 50.8192 187.061 54.1892 193.891C57.5592 200.721 70.2392 224.641 71.5192 224.091C72.7892 223.541 96.3892 211.041 96.3892 211.041L93.5292 171.511L84.4092 152.731C82.7692 150.381 80.4492 148.591 77.7592 147.601C73.7292 146.131 68.6292 145.351 69.9092 151.551C70.1892 152.921 74.5492 159.201 74.5492 159.201L77.4892 168.761C77.4892 168.761 70.7592 161.381 67.3892 161.111C64.0192 160.841 62.3392 162.751 63.4592 167.391C64.5792 172.031 67.3892 175.861 67.3892 175.861C67.3892 175.861 60.0992 172.311 58.9692 178.321C58.9592 178.321 55.1592 178.831 54.1892 181.321Z" fill="#E6E6E6"/>
<path d="M217.629 139.801C217.629 139.801 232.409 139.801 242.019 161.631C250.179 180.161 232.659 245.971 232.659 245.971L176.949 226.971L201.649 158.201L217.629 139.801Z" fill="#A9A9A9"/>
<path d="M64.6192 214.641C64.6892 214.601 65.2092 215.441 66.0692 216.781C66.9292 218.121 68.1392 219.951 69.5592 221.911C70.9692 223.881 72.3192 225.621 73.2992 226.871C74.2792 228.131 74.8892 228.901 74.8392 228.951C74.7892 229.001 74.0692 228.321 73.0092 227.121C71.9492 225.921 70.5492 224.211 69.1292 222.231C67.6992 220.251 66.5292 218.381 65.7492 216.981C64.9592 215.581 64.5592 214.671 64.6192 214.641Z" fill="#696969"/>
<path d="M43.2293 205.001C42.6193 204.141 23.7293 247.161 28.9893 260.971C34.2393 274.781 61.2493 283.161 96.6893 289.841C129.479 296.011 144.919 296.351 144.919 296.351L131.409 269.701L69.7793 241.511L77.9593 219.781L43.2293 205.001Z" fill="#E6E6E6"/>
<path d="M126.662 65.4814C126.995 63.443 126.116 61.6027 124.699 61.3711C123.282 61.1395 121.863 62.6042 121.53 64.6427C121.197 66.6812 122.075 68.5215 123.492 68.7531C124.91 68.9847 126.328 67.5199 126.662 65.4814Z" fill="#464646"/>
<path d="M139.421 65.1271C139.614 63.0707 138.612 61.2949 137.182 61.1608C135.753 61.0266 134.437 62.585 134.244 64.6415C134.051 66.6979 135.054 68.4737 136.484 68.6078C137.913 68.7419 139.229 67.1836 139.421 65.1271Z" fill="#464646"/>
<path d="M123.709 83.5208C123.709 83.5208 133.469 91.4308 146.919 79.3008" stroke="#464646" stroke-width="3" stroke-miterlimit="10" stroke-linecap="round" stroke-linejoin="round"/>
<path d="M190.629 63.3807C189.479 64.1907 188.959 65.0307 188.289 66.0507C188.149 66.2607 186.799 69.2007 186.759 69.1807C165.939 56.7607 123.199 23.5107 125.619 25.5207C125.619 25.5207 136.209 18.0307 149.399 17.2807C162.589 16.5307 188.119 17.3607 191.179 32.4107C192.609 39.4507 192.649 46.7507 191.949 53.8807C191.749 55.9507 191.479 58.0107 191.129 60.0507C190.949 61.1607 191.569 62.7207 190.629 63.3807Z" fill="#4A4A4A"/>
</g>
</svg>
