<svg width="105" height="114" viewBox="0 0 105 114" fill="none" xmlns="http://www.w3.org/2000/svg">
<path d="M51.7169 113.82C39.7871 113.82 27.8873 110.207 17.7003 103.296C8.18639 96.8365 2.65906 89.9181 0.811635 82.149C-1.67903 71.6623 2.05323 60.9572 5.34419 51.5094C5.88271 49.9586 6.41375 48.4379 6.9074 46.9548C10.0039 37.5672 15.6359 30.0842 23.2426 25.236C23.3547 24.1369 23.4669 22.9098 23.5791 21.6301C24.5141 11.181 25.449 3.58503 29.0466 0.950168C30.2209 0.0919569 31.5896 -0.194114 32.9958 0.129598C39.0392 1.50725 48.1716 13.5222 51.4102 18.009C53.9084 17.9187 56.3766 17.9412 58.785 18.0843C62.0011 13.6954 70.9241 2.13962 76.7656 0.807133C78.1792 0.483422 79.5405 0.769492 80.7148 1.6277C84.3049 4.26256 85.2473 11.8585 86.1823 22.3001C86.3169 23.8283 86.4515 25.2963 86.5862 26.5535C92.7118 30.6714 97.4015 36.1368 100.191 42.4153C106.616 56.892 106.175 73.868 99.0395 86.7261C91.8517 99.6746 79.8771 108.731 65.3295 112.217C60.8568 113.293 56.2794 113.82 51.7169 113.82ZM32.001 5.31651C30.1461 7.00282 29.2037 17.5423 28.7998 22.1043C28.6352 23.9412 28.4782 25.6727 28.3061 27.1256C28.2089 27.9462 27.7377 28.6689 27.0272 29.0829C19.9591 33.246 14.716 39.9988 11.8812 48.611C11.3801 50.1242 10.8416 51.675 10.2956 53.2559C7.24398 62.0187 3.78098 71.9483 5.91263 80.9219C7.43844 87.351 12.2552 93.238 20.6322 98.9293C33.3099 107.534 49.5703 110.583 64.1253 107.09C77.2368 103.943 88.0147 95.7976 94.477 84.1515C100.827 72.7162 101.186 57.547 95.4194 44.5609C92.8988 38.8846 88.5158 33.9612 82.7492 30.3251C82.091 29.911 81.6497 29.2185 81.545 28.443C81.3356 26.8621 81.1561 24.8747 80.9691 22.7743C80.5652 18.2123 79.6228 7.67282 77.7679 5.98651C74.9182 6.84473 68.1567 13.9363 62.1881 22.3377C61.6571 23.0905 60.7745 23.5121 59.8545 23.4293C56.758 23.1884 53.5269 23.1583 50.2509 23.3314C49.3608 23.3691 48.4932 22.955 47.9697 22.2173C41.9861 13.6803 34.903 6.1973 32.001 5.31651Z" fill="#FFFAED"/>
<path d="M45.8981 66.0765C47.8652 63.0501 57.8578 62.0489 59.6902 65.5043C61.7022 69.3136 56.6087 73.0701 53.4374 73.6122C50.0268 74.2069 43.5944 70.902 45.6812 66.4755C45.741 66.3324 45.8158 66.1969 45.8981 66.0765Z" fill="#FFFAED"/>
<path d="M50.5784 51.0315C51.0195 48.3152 49.8569 45.8631 47.9816 45.5546C46.1063 45.2461 44.2285 47.1981 43.7874 49.9144C43.3463 52.6307 44.509 55.0828 46.3843 55.3913C48.2595 55.6998 50.1373 53.7479 50.5784 51.0315Z" fill="#FFFAED"/>
<path d="M63.0062 50.7958C63.2616 48.0555 61.935 45.6892 60.0432 45.5106C58.1514 45.332 56.4107 47.4086 56.1553 50.1489C55.8999 52.8892 57.2265 55.2554 59.1183 55.434C61.0101 55.6127 62.7508 53.536 63.0062 50.7958Z" fill="#FFFAED"/>
<path d="M65.6363 65.6248C64.7238 65.6248 63.8637 65.0602 63.5271 64.1417C63.1008 62.9673 63.6991 61.6725 64.8659 61.2434C65.2474 61.1079 74.2302 57.8632 82.4427 60.7089C83.617 61.1154 84.2377 62.3952 83.8339 63.5771C83.43 64.759 82.151 65.3839 80.9842 64.9773C74.2527 62.6511 66.4815 65.4592 66.4067 65.4817C66.1524 65.5796 65.8906 65.6248 65.6363 65.6248Z" fill="#FFFAED"/>
<path d="M78.7854 75.9157C78.4114 75.9157 78.0225 75.8178 77.6784 75.6146C74.8213 73.9734 68.1795 72.9421 65.8609 72.6861C64.6267 72.5506 63.7442 71.4289 63.8788 70.1943C64.0134 68.9521 65.1204 68.0563 66.3545 68.1993C67.3044 68.3047 75.7412 69.306 79.9073 71.6999C80.9843 72.3172 81.3583 73.6949 80.745 74.779C80.3187 75.5092 79.5632 75.9157 78.7854 75.9157Z" fill="#FFFAED"/>
<path d="M38.905 65.6248C38.6507 65.6248 38.3889 65.5796 38.1346 65.4893C38 65.4441 30.2214 62.6813 23.5572 64.9849C22.3829 65.3914 21.1114 64.7591 20.7075 63.5847C20.3036 62.4028 20.9319 61.123 22.0987 60.7164C30.3111 57.8708 39.294 61.1154 39.6754 61.2509C40.8422 61.68 41.4406 62.9749 41.0142 64.1493C40.6777 65.0602 39.825 65.6248 38.905 65.6248Z" fill="#FFFAED"/>
<path d="M25.7558 75.9157C24.978 75.9157 24.2225 75.5092 23.8037 74.779C23.1904 73.6949 23.5643 72.3172 24.6414 71.6999C28.8074 69.306 37.2443 68.3123 38.1942 68.1993C39.4283 68.0563 40.5352 68.9521 40.6699 70.1943C40.8045 71.4364 39.9219 72.5506 38.6878 72.6861C36.3692 72.9496 29.7125 73.981 26.8703 75.6146C26.5187 75.8254 26.1373 75.9157 25.7558 75.9157Z" fill="#FFFAED"/>
<path d="M41.6125 24.8597C40.6401 24.8597 39.7127 24.3177 39.2564 23.3842C38.6282 22.0818 39.1443 20.5235 40.4232 19.8761C40.5953 19.7932 44.6641 17.7832 51.4106 18.1145C52.8541 18.1822 53.9686 19.4168 53.9012 20.8698C53.8339 22.3227 52.5923 23.4595 51.1638 23.3767C45.8758 23.1207 42.7793 24.5887 42.7494 24.6037C42.3829 24.7694 41.9939 24.8597 41.6125 24.8597Z" fill="#FFFAED"/>
<path d="M85.6289 31.7554C84.9707 31.7554 84.3125 31.507 83.8039 31.0101C83.3551 30.6262 81.3955 29.9938 79.7051 29.6927C78.284 29.4443 77.3267 28.0741 77.581 26.6438C77.8278 25.2134 79.1816 24.2498 80.6102 24.4983C81.7695 24.7015 85.6887 25.4995 87.4539 27.2235C88.4935 28.2398 88.516 29.9035 87.5137 30.9499C86.9976 31.4844 86.317 31.7554 85.6289 31.7554Z" fill="#FFFAED"/>
</svg>
