<svg width="295" height="78" viewBox="0 0 295 78" fill="none" xmlns="http://www.w3.org/2000/svg">
<path d="M38.1801 42.2076C41.2626 42.2076 43.7598 39.6265 43.7598 36.4407V30.0043H46.999V36.7755C46.999 39.9613 49.4963 42.5424 52.5787 42.5424H52.8399C55.9223 42.5424 58.4196 39.9613 58.4196 36.7755V12.5849C58.4196 10.7382 57.7195 9.31265 56.6537 8.35151C58.1061 7.71434 59.5481 6.7316 58.2106 5.66246C56.7373 4.48533 55.5253 5.95404 54.7938 7.24997C54.1356 7.01238 53.4251 6.89359 52.7145 6.89359C52.1294 6.89359 51.5443 6.96919 51.0009 7.12038C50.259 5.85685 49.0783 4.51773 47.6573 5.66246C46.4138 6.65601 47.5632 7.57395 48.9007 8.21112C47.7618 9.16146 47.0094 10.6302 47.0094 12.5957V19.7017H43.7703V12.5957C43.7703 8.91308 41.1163 6.90439 38.1906 6.90439C35.2126 6.90439 32.6109 8.84828 32.6109 12.5957V36.4407C32.6004 39.6265 35.0977 42.2076 38.1801 42.2076Z" fill="#FFFAED"/>
<path d="M25.7983 40.7281C29.236 40.7281 30.2704 38.3199 30.2704 35.566C30.2704 32.8878 29.2987 30.4687 25.7983 30.4687H14.1896C12.57 30.4687 12.3088 30.1987 12.3088 28.5248V21.1489C12.3088 19.475 12.57 19.205 14.1896 19.205H24.1787C27.5537 19.205 28.5882 16.8615 28.5882 14.1077C28.5882 11.4294 27.6164 8.94556 24.1787 8.94556H8.94426C1.15984 8.94556 0 10.4899 0 18.2654V31.3327C0 39.1082 1.17029 40.7173 8.94426 40.7173H25.7983V40.7281Z" fill="#FFFAED"/>
<path d="M45.4422 44.4971H15.3598C6.34244 44.4971 2.06885 50.1235 2.06885 57.2943C2.06885 64.5299 6.35289 69.962 15.3598 69.962H45.4422C54.3237 69.962 58.7332 64.6703 58.7332 57.2943C58.7332 49.994 54.3237 44.4971 45.4422 44.4971ZM36.6233 58.4175C36.6233 58.9574 36.1427 59.3678 35.6307 59.2706C33.8962 58.9358 32.1303 58.7631 30.4062 58.7631C28.6717 58.7631 26.9163 58.9358 25.1818 59.2706C24.6593 59.3678 24.1891 58.9574 24.1891 58.4175V56.398C24.1891 55.9768 24.4817 55.6204 24.8788 55.5448C26.7178 55.1885 28.5777 55.0049 30.4167 55.0049C32.2557 55.0049 34.1156 55.1885 35.9546 55.5448C36.3516 55.6204 36.6442 55.9768 36.6442 56.398V58.4175H36.6233Z" fill="#FFFAED"/>
<path d="M72.808 39.5508H96.7359C100.623 39.5508 102.117 37.2074 102.117 34.3239C102.117 31.5053 100.686 29.0322 96.7359 29.0322H78.1265C76.695 29.0322 76.3711 28.7623 76.3711 27.2935V14.3127C76.3711 12.466 75.9113 11.0513 75.1172 10.0145C75.0754 8.71861 74.5739 5.55438 73.7902 5.83517C73.2991 6.01876 72.6304 7.0771 72.1079 8.07064C71.4601 7.89785 70.76 7.81146 70.0182 7.81146C69.1509 7.81146 68.3463 7.93025 67.6045 8.15704C67.0716 7.14189 66.3924 6.02956 65.8804 5.84597C64.9818 5.52199 64.4593 9.71215 64.5638 10.4573C63.9578 11.44 63.6025 12.7144 63.6025 14.3235V30.7061C63.6025 37.2074 66.5805 39.5508 72.808 39.5508Z" fill="#FFFAED"/>
<path d="M120.789 23.0494C124.613 23.0494 125.648 20.6411 125.648 18.1681C125.648 18.1141 125.648 18.0493 125.648 17.9953C125.648 17.9413 125.648 17.8765 125.648 17.8225C125.648 15.3494 124.613 12.9412 120.789 12.9412H118.783C118.783 12.1744 118.553 11.4616 118.156 10.8569C117.143 8.64301 114.896 7.45508 112.43 7.45508C109.828 7.45508 107.519 8.69701 106.558 11.0837C106.255 11.6344 106.077 12.2608 106.077 12.9412V13.7295V35.5119V36.3002C106.077 36.9698 106.255 37.607 106.558 38.1577C107.519 40.5552 109.828 41.7863 112.43 41.7863C114.896 41.7863 117.143 40.6092 118.156 38.3845C118.553 37.7798 118.783 37.067 118.783 36.3002H120.789C124.613 36.3002 125.648 33.892 125.648 31.4189C125.648 31.3649 125.648 31.3001 125.648 31.2461C125.648 31.1921 125.648 31.1273 125.648 31.0733C125.648 28.6003 124.613 26.192 120.789 26.192H118.783V23.0494H120.789Z" fill="#FFFAED"/>
<path d="M107.728 44.4968H77.646C68.6286 44.4968 64.355 50.1233 64.355 57.2941C64.355 64.5297 68.639 69.9618 77.646 69.9618H107.728C116.61 69.9618 121.019 64.6701 121.019 57.2941C121.019 49.9937 116.61 44.4968 107.728 44.4968ZM98.9095 58.4172C98.9095 58.9572 98.4288 59.3676 97.9168 59.2704C96.1823 58.9356 94.4164 58.7628 92.6924 58.7628C90.9578 58.7628 89.2024 58.9356 87.4679 59.2704C86.9455 59.3676 86.4753 58.9572 86.4753 58.4172V56.3977C86.4753 55.9766 86.7678 55.6202 87.1649 55.5446C89.0039 55.1882 90.8638 55.0046 92.7028 55.0046C94.5418 55.0046 96.4017 55.1882 98.2407 55.5446C98.6378 55.6202 98.9303 55.9766 98.9303 56.3977V58.4172H98.9095Z" fill="#FFFAED"/>
<path d="M143.602 11.9963V11.725C143.602 7.48708 146.904 5.64159 150.403 5.7083C153.834 5.775 156.741 7.75834 156.741 11.725V11.9963C156.741 13.8418 156.607 15.6206 156.346 17.2615C163.615 17.8485 169.033 21.8996 170.712 29.8997C171.541 33.8486 168.587 37.5663 164.688 37.5663H164.259C161.373 37.5663 158.93 35.4717 158.252 32.5634C157.574 29.664 155.822 27.8586 153.117 27.445C149.356 34.1466 143.216 37.9754 136.745 38.2466C133.31 38.3845 130.936 36.539 130.343 33.9375C129.618 30.7936 131.069 27.8541 133.907 27.236C140.631 25.8085 143.602 20.2676 143.602 11.9963ZM175.353 11.9963C175.353 7.55378 178.389 5.22803 181.888 5.22803C185.323 5.22803 188.423 7.62049 188.423 11.9963V16.2342H190.471C194.499 16.2342 195.688 19.3115 195.688 22.0464C195.688 24.848 194.434 27.8586 190.471 27.8586H188.423V31.8119C188.423 35.3294 185.667 38.1844 182.27 38.1844H181.506C178.11 38.1844 175.353 35.3294 175.353 31.8119V11.9963Z" fill="#FFFAED"/>
<path d="M140.365 70.0956C139.326 70.0956 138.532 69.7666 137.939 69.0862C137.325 68.3791 137.025 67.423 137.02 66.169L137.003 55.6386C136.999 54.3712 137.304 53.3573 137.935 52.5524C138.536 51.7786 139.317 51.3651 140.322 51.2895C142.945 51.0582 145.556 50.8804 148.089 50.7647C149.897 50.6803 151.722 50.6358 153.508 50.6313C154.216 50.6313 154.925 50.6358 155.633 50.6447C158.123 50.6847 160.674 50.7825 163.224 50.9382C165.766 51.0894 168.428 51.3251 171.137 51.6363L171.515 51.6808C171.803 51.7119 172.056 51.4807 172.052 51.1783L172.047 49.1016C172.047 48.8437 171.863 48.6302 171.614 48.6035L171.313 48.5679C168.583 48.2567 165.89 48.0165 163.314 47.8609C160.738 47.7052 158.162 47.6074 155.654 47.5674C154.937 47.554 154.22 47.5496 153.499 47.554C151.687 47.5585 149.841 47.603 148.012 47.6875C145.457 47.8075 142.825 47.9854 140.189 48.2166C140.086 48.2255 139.979 48.23 139.875 48.23C139.038 48.23 138.386 47.9765 137.87 47.4429C137.278 46.8292 136.986 45.9309 136.986 44.6991C136.982 43.2272 137.291 42.1021 137.905 41.355C138.493 40.6346 139.279 40.2877 140.309 40.2833L185.86 40.1943C186.899 40.1943 187.693 40.5234 188.282 41.2038C188.896 41.9109 189.196 42.867 189.2 44.1165L189.218 54.6469C189.222 55.9143 188.917 56.9238 188.286 57.7331C187.685 58.5069 186.882 58.9205 185.839 58.9961C183.211 59.2273 180.613 59.4052 178.106 59.5208C176.32 59.6053 174.508 59.6498 172.726 59.6542C172.005 59.6542 171.288 59.6498 170.566 59.6364C168.054 59.5964 165.491 59.4986 162.941 59.3474C160.39 59.1962 157.728 58.9605 155.028 58.6492L154.65 58.6047C154.362 58.5736 154.109 58.8048 154.109 59.1072L154.113 61.184C154.113 61.4419 154.298 61.6553 154.547 61.682L154.847 61.7176C157.578 62.0333 160.27 62.269 162.846 62.4247C165.422 62.5803 168.012 62.6781 170.54 62.7182C171.27 62.7315 172 62.7359 172.73 62.7315C174.538 62.727 176.375 62.6826 178.183 62.5981C180.716 62.478 183.335 62.3001 185.972 62.0689C186.075 62.06 186.186 62.0556 186.294 62.0556C187.165 62.0556 187.839 62.309 188.355 62.8427C188.947 63.4563 189.239 64.3546 189.239 65.5864V66.0667C189.243 67.3207 188.943 68.2724 188.333 68.9839C187.745 69.6687 186.951 70.0023 185.912 70.0023L140.365 70.0956Z" fill="#FFFAED"/>
<path d="M255.034 53.4197C254.498 52.557 253.793 51.8677 252.939 51.3741C252.05 50.8583 250.99 50.498 249.796 50.3024C248.538 50.0978 247.113 49.9689 245.567 49.9244C242.415 49.8799 239.444 49.831 236.658 49.7821C233.854 49.7332 231.067 49.7109 228.38 49.7109C225.687 49.7109 222.905 49.7332 220.101 49.7821C217.315 49.831 214.344 49.8755 211.205 49.9244C209.647 49.9689 208.221 50.0978 206.963 50.3024C205.765 50.498 204.709 50.8583 203.82 51.3741C202.957 51.8722 202.27 52.5436 201.725 53.4197C201.175 54.3091 200.767 55.5142 200.51 57.0084C200.385 57.711 200.321 58.5959 200.321 59.6499C200.321 60.7038 200.385 61.5887 200.514 62.3003C200.767 63.7855 201.175 64.9907 201.725 65.8801C202.27 66.7561 202.957 67.4276 203.82 67.9257C204.709 68.4371 205.765 68.7973 206.963 68.9929C208.221 69.1975 209.647 69.3264 211.205 69.3709C214.309 69.4643 217.302 69.5221 220.097 69.5488C222.879 69.571 225.645 69.5844 228.384 69.5844C231.123 69.5844 233.884 69.571 236.666 69.5488C239.461 69.5221 242.454 69.4643 245.558 69.3709C247.117 69.3264 248.542 69.1975 249.8 68.9929C250.994 68.7973 252.054 68.4371 252.943 67.9257C253.798 67.432 254.502 66.7428 255.039 65.8801C255.588 64.9907 256 63.7855 256.254 62.2914C256.378 61.5887 256.443 60.7038 256.443 59.6499C256.443 58.5959 256.378 57.711 256.249 56.9995C255.996 55.5142 255.588 54.3091 255.034 53.4197ZM234.717 60.6771C234.717 61.233 234.232 61.651 233.704 61.5487C231.935 61.2063 230.144 61.0329 228.38 61.0329C226.615 61.0329 224.82 61.2063 223.055 61.5487C222.527 61.651 222.042 61.233 222.042 60.6771V58.6182C222.042 58.1913 222.334 57.8266 222.742 57.7466C224.614 57.3819 226.512 57.1996 228.38 57.1996C230.252 57.1996 232.149 57.3819 234.021 57.7466C234.425 57.8266 234.721 58.1913 234.721 58.6182V60.6771H234.717Z" fill="#FFFAED"/>
<path d="M203.365 46.447H253.39C254.283 46.447 254.957 46.1623 255.455 45.5798C255.979 44.9617 256.236 44.1434 256.236 43.0762V41.5864C256.236 40.5236 255.983 39.7054 255.455 39.0872C254.957 38.5002 254.283 38.2156 253.39 38.2156H240.436C239.964 38.2156 239.581 37.8199 239.581 37.3307V35.5564C239.581 35.0672 239.964 34.6714 240.436 34.6714H253.39C254.283 34.6714 254.957 34.3868 255.455 33.8043C255.974 33.195 256.236 32.3012 256.236 31.1583C256.236 30.1177 255.992 29.3573 255.494 28.8415C255.073 28.4057 254.519 28.1967 253.793 28.1967C253.686 28.1967 253.574 28.2011 253.471 28.21C248.89 28.668 244.36 28.8993 240.015 28.8993C239.418 28.8993 238.826 28.8948 238.233 28.8859C233.33 28.8148 228.135 28.4412 222.793 27.7786C222.364 27.7253 222.038 27.3473 222.038 26.8981V25.2394C222.038 24.688 222.467 24.2433 222.999 24.2433C228.19 24.897 233.231 25.2661 237.984 25.3373C238.555 25.3462 239.131 25.3506 239.71 25.3506C243.922 25.3506 248.31 25.1194 252.78 24.6658C253.291 24.6124 253.78 24.5057 254.235 24.2522C254.472 24.1188 254.691 23.9498 254.888 23.763C254.987 23.6697 255.086 23.5674 255.176 23.4651C255.223 23.4162 255.266 23.3628 255.313 23.3139C255.335 23.2872 255.356 23.2605 255.378 23.2339C255.408 23.1938 255.451 23.136 255.429 23.0871C255.421 23.0693 255.403 23.0649 255.382 23.0604C255.232 23.0471 255.086 23.0604 254.935 23.0604C254.669 23.0604 254.407 23.0604 254.141 23.0604C253.81 23.0604 253.48 23.0604 253.149 23.0604C252.793 23.0604 252.436 23.0604 252.08 23.0604C251.737 23.0604 251.397 23.0604 251.054 23.0604C250.771 23.0604 250.483 23.0604 250.199 23.0604C250.011 23.0604 249.826 23.0604 249.637 23.0604C249.586 23.0604 249.534 23.0604 249.482 23.0604C249.302 23.0604 249.16 22.9092 249.16 22.7269V22.4601C249.16 22.2733 249.306 22.1266 249.482 22.1266H255.7C255.841 22.1266 255.97 22.0332 256.013 21.8953C256.108 21.5796 256.172 21.2372 256.206 20.877C256.228 20.6813 256.069 20.5123 255.884 20.5123H249.482C249.302 20.5123 249.16 20.3611 249.16 20.1788V19.912C249.16 19.7252 249.306 19.5785 249.482 19.5785H255.919C256.099 19.5785 256.241 19.4273 256.241 19.2449V18.3022C256.241 18.1154 256.095 17.9687 255.919 17.9687H249.482C249.302 17.9687 249.16 17.8175 249.16 17.6351V17.3683C249.16 17.1816 249.306 17.0348 249.482 17.0348H255.919C256.099 17.0348 256.241 16.8836 256.241 16.7013V15.7585C256.241 15.5718 256.095 15.425 255.919 15.425H249.482C249.302 15.425 249.16 15.2738 249.16 15.0915V14.8247C249.16 14.6379 249.306 14.4912 249.482 14.4912H255.919C256.099 14.4912 256.241 14.34 256.241 14.1576V13.2149C256.241 13.0281 256.095 12.8814 255.919 12.8814H249.482C249.302 12.8814 249.16 12.7302 249.16 12.5478V12.281C249.16 12.0942 249.306 11.9475 249.482 11.9475H255.889C256.082 11.9475 256.228 11.7696 256.211 11.5695C256.176 11.2049 256.112 10.8713 256.022 10.56C255.979 10.4222 255.854 10.3333 255.712 10.3333H249.482C249.302 10.3333 249.16 10.1821 249.16 9.99973V9.73291C249.16 9.54614 249.306 9.39939 249.482 9.39939H255.176C255.283 9.39939 255.348 9.26598 255.275 9.18149C254.665 8.49221 253.849 8.15869 252.789 8.15869H203.365C202.472 8.15869 201.798 8.4433 201.3 9.03029C200.78 9.63953 200.518 10.5289 200.518 11.6762C200.518 12.7168 200.763 13.4772 201.261 13.9931C201.677 14.4289 202.231 14.6379 202.957 14.6379C203.064 14.6379 203.18 14.6335 203.288 14.6246C207.826 14.211 212.3 14.002 216.589 14.002C217.233 14.002 217.877 14.0064 218.517 14.0153C223.403 14.0865 228.594 14.4333 233.948 15.0515C234.369 15.0515 234.708 15.4028 234.708 15.8386V17.7063C234.708 18.191 234.326 18.5868 233.858 18.5868H233.746C228.543 17.9331 223.502 17.564 218.762 17.4928C218.191 17.484 217.615 17.4795 217.04 17.4795C212.837 17.4795 208.444 17.7107 203.962 18.1643C202.918 18.2399 202.107 18.6713 201.48 19.4717C200.823 20.3078 200.505 21.3572 200.505 22.6735V30.6247C200.505 31.9277 200.814 32.9149 201.454 33.6531C202.064 34.3601 202.888 34.707 203.966 34.707H216.301C216.774 34.707 217.156 35.1028 217.156 35.5919V37.3663C217.156 37.8554 216.774 38.2512 216.301 38.2512H203.348C202.455 38.2512 201.78 38.5358 201.282 39.1228C200.759 39.7409 200.501 40.5592 200.501 41.6265V43.1162C200.501 44.179 200.754 44.9972 201.282 45.6198C201.798 46.1623 202.472 46.447 203.365 46.447Z" fill="#FFFAED"/>
<path d="M269.555 22.0127H280.66" stroke="#FFFAED" stroke-width="5" stroke-linecap="round"/>
<path d="M269.555 53.3091H280.66" stroke="#FFFAED" stroke-width="5" stroke-linecap="round"/>
<path d="M276.187 52.7992L287.051 64.078L291.842 64.0723V63.7323L276.182 47.4712L276.187 52.7992Z" fill="white"/>
<path d="M276.198 64.0893L282.617 64.0807L276.193 57.4128L276.198 64.0893Z" fill="white"/>
<path d="M276.176 42.8574L291.836 59.1185L291.83 53.7934L276.17 37.5322L276.176 42.8574Z" fill="white"/>
<path d="M276.165 32.9184L291.825 49.1767L291.82 43.8515L276.16 27.5933L276.165 32.9184Z" fill="white"/>
<path d="M291.787 11.8149L284.539 11.8235L291.795 19.357L291.787 11.8149Z" fill="white"/>
<path d="M291.8 23.9707L280.105 11.8291L276.146 11.832V13.0375L291.806 29.2987L291.8 23.9707Z" fill="white"/>
<path d="M276.151 17.6514L276.157 22.9794L291.817 39.2376L291.811 33.9125L276.151 17.6514Z" fill="white"/>
<path d="M291.795 19.357L284.539 11.8235L280.105 11.8292L291.801 23.9708L291.795 19.357Z" fill="#FF8500"/>
<path d="M291.806 29.2987L276.146 13.0376L276.151 17.6514L291.811 33.9125L291.806 29.2987Z" fill="#17D2FB"/>
<path d="M276.16 27.5933L291.82 43.8516L291.817 39.2378L276.157 22.9795L276.16 27.5933Z" fill="#FF8500"/>
<path d="M276.171 37.5323L291.831 53.7934L291.826 49.1767L276.166 32.9185L276.171 37.5323Z" fill="#17D2FB"/>
<path d="M276.182 47.4712L291.842 63.7323L291.836 59.1185L276.176 42.8574L276.182 47.4712Z" fill="#FF8500"/>
<path d="M276.193 57.4129L282.617 64.0807L287.051 64.0779L276.187 52.7991L276.193 57.4129Z" fill="#17D2FB"/>
<path d="M294.395 66.1491C294.395 67.4061 293.418 68.426 292.21 68.4289L275.841 68.4489C274.633 68.4489 273.653 67.4319 273.653 66.1748C273.651 64.9178 274.631 63.898 275.839 63.8951L292.207 63.878C293.412 63.8722 294.392 64.8921 294.395 66.1491Z" fill="#FFFAED"/>
<path d="M277.593 5.80061C277.59 2.60299 280.453 0.00394243 283.986 4.4826e-06C287.522 -0.00393347 290.391 2.58724 290.395 5.78486" fill="#FFFAED"/>
<path d="M294.335 9.53511C294.337 10.7921 293.36 11.812 292.152 11.8149L275.781 11.8349C274.573 11.8349 273.593 10.8178 273.593 9.56082C273.59 8.30381 274.57 7.28392 275.778 7.28106L292.146 7.26392C293.354 7.26107 294.335 8.2781 294.335 9.53511Z" fill="#FFFAED"/>
<path d="M291.847 69.783C291.853 73.7997 288.355 77.0593 284.037 77.065C279.718 77.0708 276.212 73.8168 276.207 69.8001" fill="#FFFAED"/>
</svg>
