<svg width="132" height="112" viewBox="0 0 132 112" fill="none" xmlns="http://www.w3.org/2000/svg">
<path d="M51.1332 111.353C34.6689 111.353 20.8673 106.3 9.95724 96.2402C5.25752 91.9015 -0.952828 81.3965 0.12292 73.7482C0.801938 68.9103 2.38122 64.8097 4.95997 61.2236C6.0052 59.7645 7.19539 58.4284 8.34743 57.1306C9.86568 55.4258 11.3 53.8055 12.3147 52.0547C13.6346 49.7894 14.7256 47.6776 15.7861 45.635C17.7774 41.7954 19.6847 38.1171 22.6144 34.3928C20.7147 33.932 18.8913 33.2179 17.1594 32.2657C10.1556 28.3877 5.04389 21.7223 3.49512 14.4195C2.99158 12.0466 3.38068 9.82735 4.62427 8.01508C6.46296 5.33508 10.0259 3.62264 15.5343 2.77026C17.3959 2.48614 19.2575 2.1329 21.2259 1.75662C30.1294 0.0595405 40.2231 -1.85255 49.3326 3.62264C53.2084 5.94941 56.3593 9.41268 58.4422 13.6439C58.5108 13.7821 58.7855 14.3811 59.1059 15.1336C65.2476 14.2659 71.4885 14.2352 77.3707 15.0415C79.1331 11.4553 81.6585 8.42208 84.7789 6.1721C93.4002 -0.0479673 103.616 1.00407 112.626 1.9486C114.618 2.15593 116.502 2.34791 118.379 2.47846C123.933 2.86241 127.633 4.26769 129.686 6.77875C131.074 8.48351 131.646 10.6567 131.341 13.0679C130.403 20.4706 125.871 27.5507 119.21 32.0046C116.624 33.7324 113.702 34.8842 110.589 35.4295C111.947 37.7485 113.069 40.2289 113.946 42.8398C118.402 56.1016 117.089 69.4095 110.147 81.3197C101.831 95.5798 85.9081 106.438 68.5817 109.671C62.4781 110.784 56.6493 111.353 51.1332 111.353ZM35.2869 5.33508C31.0907 5.33508 26.7191 6.16442 22.2177 7.02448C20.2875 7.39308 18.2962 7.76935 16.3431 8.06884C11.4679 8.82139 9.66731 10.1038 9.01881 11.0483C8.76704 11.4169 8.45424 12.0543 8.71364 13.2753C9.94197 19.0653 14.0619 24.4023 19.7305 27.5354C22.2406 28.9253 25.0253 29.6317 28.0084 29.6394C29.0918 29.6394 30.0607 30.2998 30.4727 31.3058C30.8847 32.3117 30.6558 33.4636 29.8853 34.2315C25.3687 38.7622 23.118 43.0932 20.5163 48.1077C19.4253 50.204 18.3038 52.3772 16.9229 54.7501C15.6335 56.9693 13.9551 58.8584 12.33 60.6937C11.2161 61.9454 10.1709 63.1203 9.28584 64.3489C7.23353 67.2132 5.95942 70.5306 5.4101 74.4777C4.70056 79.5075 9.29347 88.3154 13.5659 92.2548C27.0166 104.657 44.694 108.611 67.6127 104.342C83.459 101.393 97.9931 91.5099 105.546 78.5553C111.68 68.0272 112.84 56.2629 108.895 44.5215C107.682 40.9123 105.928 37.6026 103.685 34.6846C103.051 33.8629 102.952 32.7495 103.418 31.8203C103.891 30.8911 104.844 30.3229 105.874 30.3536C109.742 30.4611 113.237 29.5089 116.258 27.4893C121.644 23.8878 125.306 18.2283 126.046 12.3538C126.207 11.1098 125.848 10.5031 125.558 10.1576C124.833 9.27446 122.941 8.14563 118.013 7.80775C116.044 7.66953 114.022 7.46219 112.069 7.26253C103.219 6.34104 94.8574 5.4733 87.8765 10.5108C85.0459 12.5534 82.8334 15.4485 81.483 18.8733L81.4678 18.9194C81.0176 20.1327 79.7816 20.8469 78.5152 20.6318C71.9615 19.4953 64.8204 19.5337 57.8623 20.7393C56.5882 20.9544 55.3523 20.2402 54.9021 19.0269C54.452 17.8136 53.7424 16.224 53.628 15.9937C52.0029 12.707 49.5615 10.0117 46.5708 8.21474C43.0155 6.07227 39.2313 5.33508 35.2869 5.33508Z" fill="#FFFAED"/>
<path d="M17.4112 71.2832C20.8139 67.9735 33.9442 69.6168 35.2946 74.6006C36.7823 80.0834 29.1376 83.4085 24.9109 83.1858C20.3562 82.9401 13.0548 76.8121 17.0145 71.7363C17.1366 71.5673 17.2739 71.4214 17.4112 71.2832Z" fill="#FFFAED"/>
<path d="M58.5899 49.71C59.0399 46.9392 57.8539 44.4379 55.941 44.1232C54.0282 43.8086 52.1127 45.7996 51.6628 48.5704C51.2129 51.3412 52.3988 53.8425 54.3117 54.1572C56.2246 54.4719 58.14 52.4808 58.5899 49.71Z" fill="#FFFAED"/>
<path d="M71.2714 49.4734C71.532 46.6782 70.1788 44.2645 68.2491 44.0823C66.3193 43.9001 64.5438 46.0183 64.2833 48.8136C64.0227 51.6088 65.3759 54.0225 67.3056 54.2047C69.2353 54.3869 71.0109 52.2686 71.2714 49.4734Z" fill="#FFFAED"/>
<path d="M48.6382 24.0031C47.6692 24.0031 46.7385 23.4732 46.2654 22.544C45.5864 21.2232 46.1052 19.6029 47.4175 18.9272C48.127 18.5586 54.5052 15.3103 59.0752 15.0876C60.5553 15.0108 61.7989 16.155 61.8752 17.6448C61.9439 19.1268 60.8147 20.3862 59.3346 20.463C56.4278 20.6089 51.5145 22.8589 49.8665 23.7113C49.4698 23.9109 49.0502 24.0031 48.6382 24.0031Z" fill="#FFFAED"/>
<path d="M107.171 37.7255C106.202 37.7255 105.264 37.188 104.791 36.2588C102.876 32.4807 98.9925 31.3673 98.9543 31.3596C97.5276 30.9833 96.6731 29.5166 97.0393 28.0806C97.4132 26.6446 98.8704 25.7846 100.297 26.1532C100.549 26.2223 106.523 27.8426 109.552 33.8092C110.223 35.13 109.704 36.7503 108.384 37.4261C107.988 37.6334 107.576 37.7255 107.171 37.7255Z" fill="#FFFAED"/>
<path d="M94.3464 24.6327C93.4995 24.6327 92.6603 24.2257 92.1415 23.4655C91.3099 22.2445 91.6074 20.5781 92.8205 19.7334C93.1944 19.4724 102.144 13.3521 112.176 15.2028C113.626 15.4715 114.587 16.8691 114.32 18.3282C114.053 19.7872 112.665 20.7548 111.215 20.486C103.403 19.05 95.9257 24.1105 95.857 24.1566C95.3916 24.4868 94.8652 24.6327 94.3464 24.6327Z" fill="#FFFAED"/>
<path d="M38.3004 27.2205C37.3467 27.2205 36.4159 26.6983 35.9353 25.7922C33.4481 21.0619 24.7505 18.1515 21.6072 17.4373C20.1729 17.1071 19.2726 15.6711 19.5931 14.2198C19.9211 12.7761 21.3478 11.8623 22.7822 12.1925C24.1783 12.5074 36.5761 15.5252 40.6502 23.2811C41.3369 24.5942 40.841 26.2222 39.5363 26.9133C39.1472 27.1207 38.72 27.2205 38.3004 27.2205Z" fill="#FFFAED"/>
</svg>
