<svg width="478" height="284" viewBox="0 0 478 284" fill="none" xmlns="http://www.w3.org/2000/svg">
<path d="M192.387 109.485C191.284 111.854 190.002 114.139 188.591 116.307C179.182 115.147 173.066 115.853 173.066 115.114L114.275 132.319L118.785 146.416C91.92 146.802 63.0436 143.123 54.2023 103.823C52.6449 96.8836 55.565 94.8505 55.9543 94.5817C55.9705 94.5649 55.9868 94.5649 56.003 94.5481C64.1954 88.9362 72.0634 82.9547 78.3416 74.9233C85.6094 65.6486 90.2004 53.7192 99.7556 46.6287C103.276 44.0244 107.25 41.8569 111.517 40.1263C110.982 39.8239 110.446 39.4878 109.927 39.1014C107.656 37.438 105.742 35.1529 106.001 32.431C106.245 29.9947 107.834 27.8776 109.716 26.2478C111.582 24.618 113.772 23.3579 115.686 21.7785C121.608 16.9059 124.738 9.27778 131.017 4.85884C136.841 0.759148 141.756 4.01874 143.33 10.4371C145.552 19.4598 144.903 28.5497 139.582 35.0353C133.32 35.4385 129.346 36.2618 129.346 36.2618C129.346 36.2618 101.167 94.7161 192.387 109.485Z" fill="white"/>
<path d="M188.591 116.324C201.65 117.92 221.069 123.095 239.287 140.603C233.593 157.775 224.508 173.182 213.655 187.346C205.073 177.416 167.712 142.854 128.648 177.265L118.785 146.4C123.797 146.332 128.729 146.114 133.466 145.963C154.799 145.307 176.781 134.386 188.591 116.324Z" fill="white"/>
<path d="M173.066 115.131C173.066 115.87 179.182 115.164 188.591 116.324C176.781 134.386 154.799 145.307 133.466 145.996C128.729 146.147 123.798 146.366 118.785 146.433L114.275 132.336L173.066 115.131Z" fill="white"/>
<path d="M128.648 177.265C167.712 142.854 205.073 177.399 213.655 187.346C212.065 189.412 210.443 191.479 208.788 193.495C198.6 205.912 184.973 216.363 171.654 224.966L142.956 222.059L128.648 177.265Z" fill="#FFB600"/>
<path d="M228.937 23.5427C230.478 33.6071 227.023 44.1588 220.744 51.8542C213.769 60.4232 203.045 63.498 192.501 62.2714C192.176 62.2378 191.852 62.1874 191.544 62.1538C193.896 66.4551 195.615 71.2773 196.524 76.6371C198.6 88.9026 196.832 99.9752 192.403 109.452C101.167 94.6825 129.394 36.2115 129.394 36.2115C129.394 36.2115 133.369 35.3882 139.631 34.9849C139.599 35.0185 139.582 35.0521 139.55 35.0857C148.748 35.2201 157.979 36.9844 166.301 40.4456C167.226 38.4461 168.345 36.5307 169.675 34.7665C179.879 21.2745 196.848 20.6024 211.708 17.2252C217.97 15.8474 227.59 14.7721 228.937 23.5427Z" fill="#FFB600"/>
<path d="M115.686 148.466C87.5237 148.466 60.8536 142.418 52.288 104.277C50.6009 96.8168 53.5696 93.826 54.7377 92.9691L54.7539 92.9523L54.9161 92.8347C62.5894 87.5756 70.5548 81.6109 76.8167 73.6299C79.2988 70.4543 81.5375 66.8587 83.6951 63.3806C87.8319 56.6934 92.1147 49.7877 98.62 44.9823C101.313 42.9997 104.282 41.2187 107.478 39.7065C104.979 37.455 103.795 34.9011 104.055 32.2464C104.314 29.5916 105.839 26.9873 108.467 24.7022C109.554 23.7613 110.706 22.938 111.825 22.1651C112.766 21.5098 113.642 20.8882 114.47 20.1993C117.049 18.0822 119.077 15.3771 121.218 12.5207C123.733 9.1771 126.312 5.71588 129.93 3.17876C133.823 0.440021 136.97 0.776063 138.933 1.54896C141.935 2.7251 144.238 5.78308 145.26 9.9164C147.467 18.9055 146.736 27.0377 143.232 33.2209C150.954 33.6913 158.498 35.3043 165.328 37.9255C166.139 36.3797 167.064 34.9179 168.102 33.5569C176.943 21.8795 190.278 19.3592 203.175 16.9229C205.852 16.4188 208.642 15.8811 211.27 15.2931C218.457 13.6633 223.567 14.0161 226.909 16.3852C229.067 17.9142 230.397 20.2161 230.867 23.2404C232.425 33.4393 229.196 44.6295 222.237 53.1818C215.845 61.0451 205.982 65.0944 194.902 64.54C196.556 68.2532 197.757 72.2017 198.438 76.335C200.498 88.4325 199.055 99.8915 194.155 110.393C193.02 112.829 191.69 115.215 190.213 117.483C178.549 135.327 156.292 147.324 133.531 148.046C132.12 148.097 130.708 148.147 129.265 148.181C125.874 148.298 122.354 148.416 118.817 148.466C117.779 148.466 116.725 148.466 115.686 148.466ZM57.0413 96.2791C56.6844 96.5479 54.9323 98.0937 56.1166 103.353C64.7795 141.914 92.9907 144.753 118.752 144.367C122.256 144.316 125.744 144.199 129.135 144.081C130.579 144.031 132.006 143.98 133.418 143.93C154.978 143.241 175.986 131.95 186.969 115.165C188.348 113.064 189.581 110.847 190.635 108.595C195.161 98.8834 196.508 88.2477 194.593 77.0071C193.766 72.0673 192.16 67.4131 189.84 63.1622L187.942 59.7178L191.852 60.1546C192.144 60.1882 192.436 60.2218 192.728 60.2554C203.532 61.4988 213.201 57.9536 219.236 50.5438C225.465 42.8821 228.369 32.9184 226.99 23.8621C226.698 21.9803 225.952 20.6193 224.703 19.7288C222.334 18.0486 218.1 17.8974 212.114 19.2584C209.405 19.8632 206.598 20.4009 203.889 20.9218C191.706 23.2236 179.117 25.6095 171.2 36.0772C169.984 37.6902 168.929 39.4713 168.053 41.3699L167.258 43.1005L165.539 42.378C157.654 39.1016 148.651 37.287 139.501 37.1526L135.397 37.0854L138.106 33.7081C142.551 28.2811 143.735 20.1993 141.464 10.9077C140.767 8.06817 139.339 6.03511 137.554 5.32943C135.592 4.55653 133.531 5.54785 132.152 6.52238C129.054 8.70665 126.766 11.7646 124.333 14.9906C122.143 17.9142 119.872 20.9218 116.935 23.3581C115.995 24.131 115.005 24.8366 114.048 25.5087C112.961 26.2648 111.939 26.9873 110.998 27.8106C109.716 28.9196 108.159 30.6502 107.964 32.6328C107.77 34.5987 109.554 36.3293 111.063 37.4382C111.485 37.7406 111.955 38.0431 112.474 38.3455L116.108 40.4458L112.231 42.0084C108.045 43.7054 104.233 45.8224 100.891 48.2756C95.0024 52.6441 91.1089 58.9281 86.9884 65.5649C84.7658 69.1437 82.4784 72.8402 79.8504 76.1838C73.2964 84.5512 65.1202 90.7008 57.236 96.1111L57.2197 96.1279L57.0413 96.2791Z" fill="#FF8500" stroke="#FF8500"/>
<path d="M172.125 227.049L141.497 223.941L116.919 147.055L120.651 145.778L144.433 220.161L171.184 222.883C186.92 212.667 198.747 202.619 207.296 192.185C208.886 190.236 210.508 188.186 212.114 186.086C223.681 170.998 231.825 156.296 237 141.208C223.21 128.304 206.858 120.609 188.348 118.34L188.802 114.291C208.561 116.711 226.001 125.061 240.601 139.108L241.542 140.015L241.12 141.258C235.815 157.237 227.331 172.728 215.164 188.606C213.525 190.74 211.871 192.824 210.249 194.806C201.326 205.677 189.029 216.111 172.661 226.68L172.125 227.049Z" fill="#FF8500" stroke="#FF8500"/>
<path d="M48.1673 89.7597C52.9692 84.9543 71.5118 87.3402 73.426 94.5819C75.5188 102.546 64.7307 107.385 58.7607 107.049C52.3203 106.696 42.0189 97.7911 47.6158 90.415C47.778 90.1798 47.9727 89.9614 48.1673 89.7597Z" fill="#FF8500"/>
<path d="M164.046 208.937L163.495 208.332C163.559 208.198 163.641 208.08 163.705 207.946C170.292 195.73 170.13 180.323 164.679 167.705C163.219 164.311 161.175 161.286 158.758 158.665C157.346 151.037 157.508 126.624 150.841 128.186C146.363 129.245 138.447 138.503 132.834 146.299C127.837 145.627 122.727 145.576 117.682 146.03C115.248 138.234 111.825 126.388 108.727 128.203C105.401 130.169 101.037 143.56 99.3988 150.6C91.2063 154.834 85.3337 162.194 82.2514 171.804C79.088 181.684 71.0578 191.816 73.5723 202.737C75.519 211.205 82.6083 218.077 88.5783 222.244C94.7267 226.529 101.784 229.452 109.116 230.948V246.103C124.122 243.919 141.643 238.34 155.416 231.905C159.439 230.023 163.397 227.974 167.258 225.772C169.886 224.277 172.466 222.715 174.996 221.068L164.046 208.937Z" fill="white" stroke="#FF8500"/>
<path d="M106.845 248.842V232.88C99.7718 231.199 93.0556 228.226 87.329 224.21C82.3811 220.749 73.7182 213.44 71.3821 203.291C69.4354 194.857 72.9882 187.228 76.4436 179.836C77.8712 176.778 79.2177 173.904 80.1261 171.048C83.3058 161.118 89.292 153.507 97.4844 148.97C98.5876 144.686 102.935 128.892 107.64 126.136C108.613 125.565 109.716 125.481 110.755 125.901C114.064 127.228 116.319 133.731 119.353 143.51C123.603 143.224 127.788 143.325 131.828 143.778C135.997 138.099 144.628 127.212 150.37 125.867C151.766 125.531 153.128 125.834 154.296 126.707C158.125 129.597 159.147 138.267 160.185 150.214C160.428 153.036 160.656 155.725 160.948 157.539C163.413 160.328 165.393 163.403 166.82 166.713C172.612 180.121 172.401 195.798 166.35 207.945L178.646 221.555L176.278 223.084C173.682 224.764 171.038 226.36 168.426 227.856C164.517 230.091 160.477 232.174 156.421 234.073C141.707 240.945 124.171 246.321 109.489 248.472L106.845 248.842ZM109.408 130.673C107.332 132.975 103.617 142.636 101.654 151.154L101.41 152.23L100.453 152.717C92.8934 156.615 87.3615 163.47 84.4576 172.543C83.4518 175.685 81.9755 178.844 80.5479 181.902C77.3196 188.841 74.2535 195.394 75.8271 202.182C77.8874 211.087 86.3394 217.791 89.876 220.261C95.6026 224.26 102.416 227.15 109.57 228.612L111.42 228.982V243.331C124.998 241.029 141.237 235.921 154.491 229.721C158.433 227.873 162.375 225.84 166.171 223.672C167.907 222.681 169.675 221.639 171.427 220.547L160.672 208.634L161.726 206.736C167.664 195.73 168.004 181.129 162.602 168.629C161.304 165.604 159.455 162.798 157.119 160.261L156.649 159.757L156.519 159.068C156.146 157.035 155.886 154.061 155.578 150.6C155.026 144.215 153.988 132.353 151.555 130.505C151.457 130.421 151.441 130.438 151.344 130.454C148.31 131.16 141.448 138.25 134.667 147.676L133.872 148.785L132.542 148.601C127.853 147.979 122.922 147.878 117.893 148.332L116.076 148.5L115.07 145.257C113.772 141.14 111.176 132.756 109.408 130.673Z" fill="#FF8500" stroke="#FF8500"/>
<path d="M66.4374 193.443C69.7417 190.124 82.5009 191.773 83.8146 196.762C85.2677 202.246 77.8232 205.565 73.7227 205.359C69.2838 205.111 62.1976 198.988 66.0393 193.896C66.1786 193.731 66.2981 193.587 66.4374 193.443Z" fill="#FF8500"/>
<path d="M88.5298 252.102C86.6804 252.102 84.831 252.068 82.9978 252.001C58.9883 251.11 38.2707 245.442 15.4616 233.076C13.8069 232.168 12.136 231.261 10.4813 230.354C9.44302 229.782 8.40477 229.211 7.36652 228.64C5.29001 227.497 4.4951 224.843 5.59824 222.675C6.70139 220.525 9.26457 219.701 11.3573 220.844C12.3955 221.415 13.45 221.986 14.4883 222.558C16.1268 223.465 17.7653 224.355 19.42 225.263C41.0772 237.007 60.5781 242.356 83.3061 243.196C106.634 244.053 130.384 239.164 152.025 229.049C173.115 219.203 191.674 204.938 205.722 187.8C220.55 169.721 231.533 148.231 237.486 125.683C243.732 102.025 244.462 76.4863 239.595 51.8208C239.125 49.435 240.601 47.0995 242.905 46.6122C245.208 46.1249 247.463 47.6539 247.934 50.0398C253.076 76.0494 252.298 103.017 245.695 128.001C239.417 151.776 227.834 174.426 212.212 193.496C197.352 211.625 177.755 226.697 155.529 237.081C134.391 246.96 111.355 252.102 88.5298 252.102Z" fill="#FF8500"/>
<path d="M91.9044 83.0249C92.2903 80.5797 91.2699 78.3718 89.6252 78.0934C87.9806 77.815 86.3345 79.5715 85.9487 82.0167C85.5628 84.4619 86.5832 86.6698 88.2279 86.9482C89.8725 87.2266 91.5186 85.4701 91.9044 83.0249Z" fill="#FF8500"/>
<path d="M102.784 82.8176C103.008 80.3508 101.844 78.2205 100.185 78.0593C98.5257 77.8981 96.9996 79.7671 96.7761 82.2338C96.5527 84.7005 97.7166 86.8309 99.3757 86.9921C101.035 87.1533 102.561 85.2843 102.784 82.8176Z" fill="#FF8500"/>
<path d="M93.5888 182.723C93.9227 180.608 93.0393 178.697 91.6157 178.456C90.1921 178.215 88.7674 179.735 88.4336 181.85C88.0997 183.966 88.9831 185.876 90.4067 186.117C91.8303 186.358 93.255 184.839 93.5888 182.723Z" fill="#FF8500"/>
<path d="M103.005 182.55C103.198 180.416 102.191 178.573 100.754 178.433C99.3183 178.294 97.9974 179.911 97.8041 182.045C97.6108 184.179 98.6183 186.022 100.054 186.162C101.491 186.301 102.812 184.684 103.005 182.55Z" fill="#FF8500"/>
<path d="M110.105 40.7313C110.105 40.7313 113.626 38.5807 118.136 39.1687L110.105 40.7313Z" fill="white"/>
<path d="M110.106 42.7645C109.424 42.7645 108.775 42.4117 108.402 41.7564C107.851 40.7819 108.159 39.5553 109.1 38.9841C109.262 38.8832 113.269 36.4805 118.363 37.1526C119.434 37.287 120.196 38.312 120.066 39.4209C119.937 40.5298 118.947 41.3195 117.876 41.1851C114.145 40.6979 111.111 42.4789 111.079 42.4957C110.787 42.6637 110.446 42.7645 110.106 42.7645Z" fill="#FF8500"/>
<path d="M118.136 146.366C114.08 147.155 112.782 147.928 111.387 148.701L118.136 146.366Z" fill="white"/>
<path d="M111.387 150.734C110.69 150.734 110.008 150.348 109.651 149.659C109.149 148.668 109.505 147.441 110.463 146.903L110.609 146.819C112.052 146.013 113.561 145.19 117.763 144.366C118.833 144.165 119.855 144.887 120.066 145.979C120.261 147.088 119.563 148.147 118.509 148.365C114.891 149.071 113.707 149.726 112.474 150.415L112.312 150.499C112.004 150.667 111.695 150.734 111.387 150.734Z" fill="#FF8500"/>
<path d="M145 151.659C146.25 148.365 147.693 144.635 150.532 142.401L145 151.659Z" fill="white"/>
<path d="M145 151.659C146.25 148.365 147.693 144.635 150.532 142.401" stroke="#FF8500"/>
<path d="M145.001 153.356C144.806 153.356 144.595 153.322 144.4 153.238C143.557 152.902 143.135 151.911 143.476 151.037C144.66 147.912 146.266 143.628 149.543 141.057C150.257 140.486 151.295 140.637 151.83 141.376C152.382 142.115 152.236 143.191 151.522 143.745C148.975 145.745 147.612 149.357 146.526 152.264C146.282 152.953 145.666 153.356 145.001 153.356Z" fill="#FF8500" stroke="#FF8500"/>
<path d="M105.028 194.436C105.028 194.436 118.071 189.497 129.654 193.613L105.028 194.436Z" fill="white"/>
<path d="M105.028 194.436C105.028 194.436 118.071 189.497 129.654 193.613" stroke="#FF8500"/>
<path d="M105.028 196.47C104.233 196.47 103.471 195.949 103.179 195.126C102.806 194.067 103.325 192.908 104.347 192.521C104.915 192.303 118.185 187.38 130.287 191.681C131.309 192.051 131.861 193.21 131.504 194.269C131.147 195.327 130.044 195.899 129.005 195.529C118.25 191.698 105.823 196.285 105.693 196.336C105.483 196.436 105.255 196.47 105.028 196.47Z" fill="#FF8500" stroke="#FF8500"/>
<path d="M106.212 200.872C106.212 200.872 119.693 202.418 125.647 205.929L106.212 200.872Z" fill="white"/>
<path d="M106.212 200.872C106.212 200.872 119.693 202.418 125.647 205.929" stroke="#FF8500"/>
<path d="M125.631 207.963C125.306 207.963 124.966 207.879 124.657 207.694C119.142 204.434 106.115 202.905 105.985 202.888C104.914 202.771 104.136 201.763 104.249 200.637C104.363 199.528 105.336 198.705 106.423 198.839C106.991 198.906 120.375 200.469 126.604 204.165C127.545 204.72 127.869 205.963 127.334 206.938C126.977 207.593 126.312 207.963 125.631 207.963Z" fill="#FF8500" stroke="#FF8500"/>
<path d="M189.581 45.268C189.191 45.268 188.802 45.1504 188.461 44.8984C187.569 44.2599 187.358 42.983 187.975 42.0588C191.235 37.2366 202.607 29.9277 210.589 29.9277C210.638 29.9277 210.702 29.9277 210.751 29.9277C211.838 29.9445 212.698 30.8687 212.698 31.9944C212.682 33.1201 211.789 34.0106 210.702 34.0106C210.67 34.0106 210.621 34.0106 210.573 34.0106C203.792 34.0106 193.571 40.8659 191.187 44.4111C190.813 44.9656 190.197 45.268 189.581 45.268Z" fill="#FF8500" stroke="#FF8500"/>
<path d="M193.794 52.1399C193.032 52.1399 192.318 51.6863 191.994 50.9302C191.556 49.9052 192.01 48.6955 192.999 48.2418C193.227 48.141 198.483 45.7887 204.29 46.9481C205.361 47.1665 206.059 48.225 205.848 49.334C205.637 50.4429 204.615 51.1654 203.544 50.947C198.921 50.0229 194.622 51.9551 194.573 51.9719C194.33 52.0727 194.07 52.1399 193.794 52.1399Z" fill="#FF8500" stroke="#FF8500"/>
<path d="M149.641 218.632C149.641 218.632 160.64 214.549 165.539 204.064L149.641 218.632Z" fill="white"/>
<path d="M149.641 218.632C149.641 218.632 160.64 214.549 165.539 204.064" stroke="#FF8500"/>
<path d="M149.641 220.665C148.829 220.665 148.083 220.144 147.791 219.321C147.418 218.262 147.953 217.103 148.976 216.717C149.073 216.683 159.293 212.751 163.771 203.174C164.241 202.166 165.425 201.746 166.399 202.233C167.372 202.72 167.778 203.947 167.307 204.955C162.1 216.061 150.776 220.379 150.306 220.547C150.079 220.615 149.852 220.665 149.641 220.665Z" fill="#FF8500" stroke="#FF8500"/>
<path d="M109.132 230.864C109.132 230.864 115.313 231.976 119.255 230.864H109.132Z" fill="white"/>
<path d="M109.132 230.864C109.132 230.864 115.313 231.976 119.255 230.864" stroke="#FF8500"/>
<path d="M114.859 233.418C111.744 233.418 108.954 232.897 108.776 232.863C107.705 232.661 107.007 231.603 107.202 230.494C107.397 229.385 108.419 228.663 109.489 228.847C111.095 229.15 115.865 229.738 118.72 228.898C119.758 228.595 120.845 229.217 121.154 230.292C121.446 231.368 120.845 232.493 119.807 232.813C118.282 233.266 116.53 233.418 114.859 233.418Z" fill="#FF8500" stroke="#FF8500"/>
<path d="M173.298 128.936C173.298 128.936 172.693 134.845 177.228 132.425C177.863 132.089 179.74 131.579 179.474 130.681C182.059 130.328 160.946 150.453 160.946 150.453L159.823 140.567L158.138 132.425L173.298 128.936Z" fill="white"/>
<path d="M198.698 132.924C198.016 132.924 197.351 132.555 196.978 131.899C196.443 130.925 196.767 129.698 197.708 129.127C197.919 128.993 202.964 126.069 208.139 128.488C209.129 128.959 209.567 130.152 209.129 131.177C208.675 132.202 207.523 132.655 206.533 132.202C203.208 130.639 199.687 132.639 199.655 132.655C199.363 132.84 199.038 132.924 198.698 132.924Z" fill="#FF8500" stroke="#FF8500"/>
<path d="M210.703 139.326C210.249 139.326 209.811 139.142 209.486 138.772C207.977 137.041 206.323 137.663 206.128 137.747C205.301 138.083 204.344 137.68 204.003 136.823C203.662 135.966 204.035 134.991 204.847 134.622C205.009 134.555 208.772 132.908 211.903 136.504C212.504 137.193 212.455 138.268 211.79 138.89C211.482 139.175 211.092 139.326 210.703 139.326Z" fill="#FF8500" stroke="#FF8500"/>
<path d="M221.599 80.3267C224.431 80.3267 226.726 77.9495 226.726 75.0172C226.726 72.0849 224.431 69.7078 221.599 69.7078C218.768 69.7078 216.473 72.0849 216.473 75.0172C216.473 77.9495 218.768 80.3267 221.599 80.3267Z" fill="#17D2FB"/>
<path fill-rule="evenodd" clip-rule="evenodd" d="M220.983 70.8167C220.983 70.8167 218.046 71.8752 217.527 76.2941C217.527 76.2941 216.343 71.4215 220.983 70.8167Z" fill="white"/>
<path fill-rule="evenodd" clip-rule="evenodd" d="M41.9215 33.1072C45.8836 33.1072 49.0882 36.4262 49.0882 40.5298C49.0882 44.6334 45.8836 47.9524 41.9215 47.9524C37.9595 47.9524 34.7549 44.6334 34.7549 40.5298C34.7549 36.4262 37.9789 33.1072 41.9215 33.1072Z" fill="#17D2FB"/>
<path fill-rule="evenodd" clip-rule="evenodd" d="M41.0475 34.656C41.0475 34.656 36.9494 36.1446 36.2114 42.2999C36.2308 42.2999 34.5606 35.5009 41.0475 34.656Z" fill="white"/>
<path d="M30.5661 136.47C32.4565 136.47 33.989 134.882 33.989 132.924C33.989 130.966 32.4565 129.379 30.5661 129.379C28.6756 129.379 27.1431 130.966 27.1431 132.924C27.1431 134.882 28.6756 136.47 30.5661 136.47Z" fill="#17D2FB"/>
<path fill-rule="evenodd" clip-rule="evenodd" d="M30.1607 130.135C30.1607 130.135 28.1977 130.841 27.857 133.782C27.857 133.782 27.0621 130.539 30.1607 130.135Z" fill="white"/>
<path d="M64.8933 64.7918C66.9898 64.7918 68.6894 63.0315 68.6894 60.8601C68.6894 58.6887 66.9898 56.9285 64.8933 56.9285C62.7967 56.9285 61.0972 58.6887 61.0972 60.8601C61.0972 63.0315 62.7967 64.7918 64.8933 64.7918Z" fill="#17D2FB"/>
<path fill-rule="evenodd" clip-rule="evenodd" d="M64.4258 57.7483C64.4258 57.7483 62.2489 58.5309 61.871 61.7918C61.889 61.7918 61.0075 58.1955 64.4258 57.7483Z" fill="white"/>
<path fill-rule="evenodd" clip-rule="evenodd" d="M231.291 87.4951C232.637 87.4951 233.724 88.6209 233.724 90.0154C233.724 91.41 232.637 92.5357 231.291 92.5357C229.944 92.5357 228.857 91.41 228.857 90.0154C228.841 88.6209 229.944 87.4951 231.291 87.4951Z" fill="#17D2FB"/>
<path fill-rule="evenodd" clip-rule="evenodd" d="M230.982 88.0159C230.982 88.0159 229.587 88.5199 229.344 90.6202C229.344 90.6202 228.776 88.3015 230.982 88.0159Z" fill="white"/>
<path d="M23.0681 149.125C24.3723 143.203 20.7944 137.307 15.0764 135.956C9.3585 134.606 3.66587 138.311 2.3616 144.234C1.05732 150.156 4.6353 156.052 10.3532 157.402C16.0712 158.753 21.7638 155.048 23.0681 149.125Z" fill="#17D2FB"/>
<path fill-rule="evenodd" clip-rule="evenodd" d="M11.4128 137.968C11.4128 137.968 5.32595 140.176 4.25964 149.288C4.23742 149.288 1.77157 139.21 11.4128 137.968Z" fill="white"/>
<path fill-rule="evenodd" clip-rule="evenodd" d="M33.8267 183.162C33.8267 183.162 37.6714 182.289 37.7688 177.214C37.7688 177.214 37.4768 183.028 41.4675 183.33C41.4675 183.33 37.5417 183.801 37.5417 189.614C37.5254 189.597 37.4443 183.868 33.8267 183.162Z" fill="#FFB600"/>
<path fill-rule="evenodd" clip-rule="evenodd" d="M38.5371 205.69C38.5371 205.69 47.0414 203.768 47.254 192.518C47.254 192.518 46.5969 205.37 55.4298 206.05C55.4298 206.05 46.7515 207.071 46.7322 219.963C46.7322 219.943 46.5389 207.251 38.5371 205.69Z" fill="#FFB600"/>
<path fill-rule="evenodd" clip-rule="evenodd" d="M208.298 100.688C208.298 100.688 214.917 99.1793 215.067 90.4375C215.067 90.4375 214.553 100.444 221.43 100.954C221.43 100.954 214.682 101.753 214.66 111.782C214.682 111.782 214.532 101.908 208.298 100.688Z" fill="#FFB600"/>
<path fill-rule="evenodd" clip-rule="evenodd" d="M77.5469 13.2937C77.5469 13.2937 84.9444 11.6135 85.1229 1.81787C85.1229 1.81787 84.5551 13.0081 92.2446 13.5793C92.2446 13.5793 84.6849 14.4698 84.6686 25.6936C84.6686 25.7104 84.5064 14.6547 77.5469 13.2937Z" fill="#FFB600"/>
<path fill-rule="evenodd" clip-rule="evenodd" d="M164.221 29.6713C164.529 28.8984 164.691 28.0751 164.691 27.2182C164.691 22.9841 160.684 19.5396 155.753 19.5396C153.498 19.5396 151.421 20.2621 149.848 21.4551C150.026 20.7998 150.123 20.1277 150.123 19.422C150.123 14.5662 145.532 10.6345 139.887 10.6345C134.241 10.6345 129.65 14.583 129.65 19.422C129.65 20.3965 129.829 21.3375 130.186 22.2112C129.537 22.0599 128.856 21.9759 128.158 21.9759C124.07 21.9759 120.744 24.8323 120.744 28.3439C120.744 29.6881 121.231 30.9482 122.074 31.99C121.539 31.8724 120.971 31.8051 120.387 31.8051C116.672 31.8051 113.639 34.4095 113.639 37.6019C113.639 39.9374 115.261 41.9536 117.581 42.8609C119.106 43.8858 121.117 44.5075 123.34 44.5075C124.459 44.5075 125.53 44.3395 126.503 44.0539C129.342 46.7422 133.787 48.4728 138.784 48.4728C142.726 48.4728 146.327 47.3975 149.069 45.6165C150.594 46.6918 152.687 47.3639 154.974 47.3639C158.559 47.3639 161.625 45.7509 162.875 43.4658C163.102 43.4826 163.313 43.4994 163.54 43.4994C167.985 43.4994 171.586 40.391 171.586 36.5769C171.619 32.9477 168.358 29.9569 164.221 29.6713Z" fill="#F3FCFF" stroke="#17D2FB"/>
<path d="M138.8 50.1699C133.901 50.1699 129.326 48.6241 126.081 45.9189C125.189 46.1206 124.264 46.2046 123.34 46.2046C120.955 46.2046 118.668 45.5661 116.834 44.3899C113.898 43.1634 112 40.5087 112 37.6019C112 33.7878 115.196 30.629 119.333 30.1754C119.187 29.5873 119.106 28.9824 119.106 28.3608C119.106 23.9418 123.113 20.3462 128.044 20.2958C128.012 20.0101 128.012 19.7245 128.012 19.4388C128.012 13.6589 133.333 8.95435 139.887 8.95435C146.1 8.95435 151.21 13.1885 151.713 18.5651C152.978 18.0947 154.357 17.8594 155.753 17.8594C161.577 17.8594 166.33 22.06 166.33 27.235C166.33 27.5879 166.314 27.9575 166.265 28.3103C170.321 29.3521 173.273 32.7125 173.273 36.5938C173.273 41.2816 169.023 45.1124 163.767 45.2132C161.966 47.5991 158.656 49.0945 155.006 49.0945C152.865 49.0945 150.805 48.5737 149.085 47.6159C146.116 49.2625 142.515 50.1699 138.8 50.1699ZM126.503 42.3737C126.909 42.3737 127.298 42.5249 127.606 42.8105C130.234 45.2972 134.42 46.7758 138.784 46.7758C142.272 46.7758 145.613 45.8517 148.209 44.1883C148.761 43.8355 149.458 43.8523 149.994 44.2219C151.324 45.1628 153.092 45.6669 154.99 45.6669C157.862 45.6669 160.473 44.4403 161.479 42.6089C161.787 42.0376 162.371 41.7184 163.004 41.752C163.183 41.7688 163.377 41.7688 163.556 41.7688C167.092 41.7688 169.964 39.4333 169.964 36.5434C169.964 33.855 167.384 31.5699 164.091 31.3347C163.572 31.3011 163.085 30.9987 162.809 30.545C162.534 30.0914 162.485 29.5201 162.68 28.9992C162.907 28.4112 163.02 27.8063 163.02 27.1846C163.02 23.8914 159.743 21.2031 155.72 21.2031C153.887 21.2031 152.135 21.7743 150.788 22.7993C150.221 23.2193 149.458 23.2361 148.89 22.8161C148.323 22.396 148.063 21.6567 148.258 20.9678C148.404 20.447 148.469 19.9261 148.469 19.4052C148.469 15.4904 144.608 12.298 139.871 12.298C135.134 12.298 131.273 15.4904 131.273 19.4052C131.273 20.1445 131.419 20.867 131.678 21.5727C131.905 22.1608 131.808 22.8329 131.402 23.3201C130.997 23.8074 130.38 24.009 129.78 23.8578C129.245 23.7234 128.693 23.6562 128.125 23.6562C124.946 23.6562 122.35 25.7564 122.35 28.3271C122.35 29.2345 122.675 30.1082 123.291 30.8811C123.745 31.4355 123.81 32.2252 123.437 32.8469C123.08 33.4686 122.383 33.7878 121.701 33.6366C121.263 33.5358 120.809 33.4854 120.355 33.4854C117.532 33.4854 115.245 35.3168 115.245 37.5851C115.245 39.1309 116.38 40.5759 118.132 41.2647C118.246 41.3152 118.343 41.3656 118.44 41.4328C119.754 42.3233 121.49 42.8105 123.307 42.8105C124.248 42.8105 125.157 42.6761 126.033 42.4241C126.211 42.3905 126.357 42.3737 126.503 42.3737Z" fill="#17D2FB" stroke="#17D2FB"/>
<path d="M126.098 37.4337C125.384 37.4337 124.735 36.9464 124.524 36.2071C123.859 33.8716 120.095 33.418 120.063 33.418C119.171 33.3172 118.505 32.4939 118.603 31.5697C118.684 30.6456 119.495 29.9736 120.387 30.0408C120.631 30.0576 126.39 30.6792 127.687 35.2494C127.947 36.1399 127.444 37.0976 126.584 37.3497C126.406 37.4169 126.26 37.4337 126.098 37.4337Z" fill="#17D2FB" stroke="#17D2FB"/>
<path d="M159.078 39.8029C158.202 39.8029 157.472 39.0804 157.44 38.1563C157.391 36.7449 156.645 35.5015 155.363 34.7623C153.222 33.5021 149.799 33.4013 147.382 34.527C146.278 35.0479 144.867 36.056 144.494 37.9714C144.315 38.8956 143.439 39.4836 142.563 39.2988C141.671 39.114 141.103 38.2067 141.282 37.2994C141.785 34.7287 143.472 32.6452 146.019 31.4523C149.409 29.8729 153.919 30.0241 156.969 31.8387C159.224 33.1661 160.619 35.5015 160.684 38.0723C160.717 39.0132 160.003 39.7861 159.094 39.8197C159.111 39.8029 159.094 39.8029 159.078 39.8029Z" fill="#17D2FB" stroke="#17D2FB"/>
<path d="M135.929 29.4361C135.117 29.4361 134.42 28.8313 134.306 27.9743C134.014 25.8237 135.296 23.6898 137.567 22.5641C141.168 20.7831 145.695 21.64 148.339 24.6139C148.955 25.3028 148.907 26.3782 148.242 27.0166C147.576 27.6551 146.538 27.6047 145.922 26.9158C144.251 25.034 141.266 24.4795 138.978 25.6221C138.216 25.9917 137.453 26.7478 137.551 27.5039C137.681 28.428 137.048 29.2849 136.156 29.4193C136.075 29.4361 135.993 29.4361 135.929 29.4361Z" fill="#17D2FB" stroke="#17D2FB"/>
<path fill-rule="evenodd" clip-rule="evenodd" d="M132.32 143.224C131.834 143.224 131.379 143.308 130.941 143.442C129.968 141.258 127.843 139.729 125.361 139.729C124.095 139.729 122.927 140.132 121.954 140.804C121.305 138.015 118.872 135.948 115.984 135.948C112.594 135.948 109.836 138.805 109.836 142.316C109.836 142.635 109.852 142.938 109.901 143.24C109.365 143.005 108.781 142.887 108.165 142.887C105.667 142.887 103.639 144.988 103.639 147.575C103.639 150.163 105.667 152.263 108.165 152.263C108.587 152.263 108.992 152.196 109.365 152.095C110.485 154.901 113.161 156.867 116.276 156.867C118.807 156.867 121.029 155.573 122.392 153.574C123.171 155.002 124.647 155.96 126.334 155.96C128.492 155.96 130.293 154.397 130.747 152.313C131.233 152.498 131.769 152.616 132.337 152.616C134.835 152.616 136.863 150.516 136.863 147.928C136.863 145.341 134.819 143.224 132.32 143.224Z" fill="#F3FCFF" stroke="#17D2FB"/>
<path d="M116.276 158.547C113.015 158.547 110.063 156.766 108.44 153.926C108.343 153.926 108.262 153.926 108.165 153.926C104.774 153.926 102 151.07 102 147.542C102 143.98 104.855 141.106 108.278 141.157C108.814 137.242 112.058 134.234 115.984 134.234C118.904 134.234 121.5 135.898 122.83 138.452C123.641 138.166 124.501 138.015 125.361 138.015C127.94 138.015 130.341 139.359 131.785 141.526C131.963 141.51 132.142 141.51 132.32 141.51C135.711 141.51 138.485 144.366 138.485 147.894C138.485 151.406 135.727 154.279 132.32 154.279C132.142 154.279 131.947 154.262 131.769 154.262C130.73 156.312 128.67 157.64 126.334 157.64C124.858 157.64 123.463 157.085 122.359 156.127C120.705 157.673 118.531 158.547 116.276 158.547ZM109.365 150.381C110.014 150.381 110.614 150.784 110.874 151.423C111.782 153.691 113.907 155.153 116.276 155.153C118.174 155.153 119.959 154.195 121.062 152.582C121.386 152.112 121.921 151.843 122.473 151.86C123.041 151.893 123.544 152.213 123.82 152.717C124.339 153.658 125.296 154.229 126.334 154.229C127.664 154.229 128.849 153.254 129.157 151.893C129.254 151.423 129.562 151.003 129.968 150.768C130.39 150.532 130.876 150.499 131.314 150.667C131.639 150.784 131.98 150.852 132.32 150.852C133.91 150.852 135.208 149.507 135.208 147.861C135.208 146.214 133.91 144.87 132.32 144.87C132.028 144.87 131.72 144.92 131.444 145.004C130.665 145.257 129.806 144.87 129.465 144.097C128.735 142.451 127.129 141.375 125.377 141.375C124.485 141.375 123.609 141.644 122.879 142.165C122.441 142.467 121.873 142.535 121.37 142.333C120.867 142.131 120.494 141.694 120.38 141.157C119.894 139.057 118.093 137.595 116 137.595C113.518 137.595 111.49 139.695 111.49 142.266C111.49 142.484 111.506 142.719 111.539 142.938C111.62 143.543 111.393 144.148 110.922 144.517C110.452 144.887 109.836 144.971 109.284 144.736C108.927 144.584 108.554 144.5 108.181 144.5C106.591 144.5 105.293 145.845 105.293 147.491C105.293 149.138 106.591 150.482 108.181 150.482C108.44 150.482 108.7 150.448 108.943 150.381C109.073 150.398 109.219 150.381 109.365 150.381Z" fill="#17D2FB" stroke="#17D2FB"/>
<path fill-rule="evenodd" clip-rule="evenodd" d="M111.202 143.341C111.202 143.341 112.613 143.828 113.311 144.836L111.202 143.341Z" fill="white"/>
<path d="M111.202 143.341C111.202 143.341 112.613 143.828 113.311 144.836" stroke="#17D2FB"/>
<path d="M113.311 146.533C112.808 146.533 112.305 146.281 111.981 145.828C111.705 145.425 110.975 145.055 110.666 144.954C109.823 144.652 109.352 143.694 109.644 142.803C109.936 141.913 110.861 141.442 111.705 141.745C111.899 141.812 113.651 142.451 114.641 143.862C115.16 144.618 114.998 145.677 114.268 146.231C113.976 146.433 113.635 146.533 113.311 146.533Z" fill="#17D2FB" stroke="#17D2FB"/>
<path fill-rule="evenodd" clip-rule="evenodd" d="M121.276 142.636C121.276 142.636 122.103 140.972 124.277 140.216L121.276 142.636Z" fill="#F3FCFF"/>
<path d="M121.276 142.636C121.276 142.636 122.103 140.972 124.277 140.216" stroke="#17D2FB"/>
<path d="M121.276 144.333C121.016 144.333 120.773 144.265 120.53 144.148C119.719 143.711 119.41 142.703 119.832 141.863C119.946 141.627 121.049 139.544 123.774 138.62C124.634 138.317 125.559 138.805 125.851 139.695C126.143 140.586 125.672 141.543 124.813 141.846C123.336 142.35 122.752 143.425 122.752 143.442C122.428 143.996 121.86 144.333 121.276 144.333Z" fill="#17D2FB" stroke="#17D2FB"/>
<path d="M329.766 127.011C334.55 127.011 338.426 123.005 338.426 118.061V108.072H343.453V118.58C343.453 123.525 347.328 127.53 352.112 127.53H352.518C357.301 127.53 361.177 123.525 361.177 118.58V81.0376C361.177 78.1716 360.091 75.9593 358.437 74.4676C360.691 73.4788 362.928 71.9536 360.853 70.2943C358.566 68.4675 356.685 70.7469 355.55 72.7581C354.528 72.3894 353.426 72.205 352.323 72.205C351.415 72.205 350.507 72.3223 349.664 72.557C348.512 70.596 346.68 68.5178 344.474 70.2943C342.545 71.8363 344.328 73.2609 346.404 74.2497C344.637 75.7246 343.469 78.004 343.469 81.0544V92.0826H338.442V81.0544C338.442 75.3392 334.323 72.2218 329.783 72.2218C325.161 72.2218 321.123 75.2386 321.123 81.0544V118.061C321.107 123.005 324.983 127.011 329.766 127.011Z" fill="#FF8500"/>
<path d="M310.55 124.715C315.885 124.715 317.491 120.977 317.491 116.703C317.491 112.547 315.982 108.793 310.55 108.793H292.534C290.02 108.793 289.615 108.374 289.615 105.776V94.3286C289.615 91.7308 290.02 91.3118 292.534 91.3118H308.037C313.274 91.3118 314.88 87.6749 314.88 83.401C314.88 79.2445 313.372 75.3896 308.037 75.3896H284.393C272.312 75.3896 270.512 77.7864 270.512 89.8537V110.133C270.512 122.201 272.328 124.698 284.393 124.698H310.55V124.715Z" fill="#FF8500"/>
<path d="M341.037 130.564H294.35C280.356 130.564 273.723 139.296 273.723 150.425C273.723 161.654 280.372 170.085 294.35 170.085H341.037C354.82 170.085 361.664 161.872 361.664 150.425C361.664 139.095 354.82 130.564 341.037 130.564ZM327.35 152.168C327.35 153.006 326.604 153.643 325.81 153.492C323.118 152.972 320.377 152.704 317.702 152.704C315.01 152.704 312.285 152.972 309.593 153.492C308.783 153.643 308.053 153.006 308.053 152.168V149.034C308.053 148.38 308.507 147.827 309.123 147.71C311.977 147.157 314.864 146.872 317.718 146.872C320.572 146.872 323.458 147.157 326.312 147.71C326.929 147.827 327.383 148.38 327.383 149.034V152.168H327.35Z" fill="#FF8500"/>
<path d="M383.507 122.888H420.642C426.674 122.888 428.993 119.251 428.993 114.776C428.993 110.402 426.772 106.563 420.642 106.563H391.761C389.539 106.563 389.036 106.144 389.036 103.865V83.7194C389.036 80.8534 388.323 78.6578 387.09 77.0488C387.026 75.0376 386.247 70.1269 385.031 70.5626C384.269 70.8475 383.231 72.49 382.42 74.032C381.415 73.7638 380.328 73.6297 379.177 73.6297C377.831 73.6297 376.582 73.8141 375.431 74.1661C374.604 72.5906 373.55 70.8643 372.755 70.5794C371.361 70.0766 370.55 76.5795 370.712 77.736C369.772 79.2612 369.22 81.2388 369.22 83.7361V109.161C369.22 119.251 373.842 122.888 383.507 122.888Z" fill="#FF8500"/>
<path d="M457.972 97.2784C463.907 97.2784 465.512 93.5408 465.512 89.7028C465.512 89.619 465.512 89.5184 465.512 89.4346C465.512 89.3508 465.512 89.2502 465.512 89.1664C465.512 85.3284 463.907 81.5908 457.972 81.5908H454.858C454.858 80.4009 454.501 79.2947 453.885 78.3561C452.312 74.9203 448.826 73.0767 444.999 73.0767C440.961 73.0767 437.377 75.0041 435.885 78.7081C435.415 79.5629 435.139 80.5349 435.139 81.5908V82.8143V116.62V117.843C435.139 118.882 435.415 119.871 435.885 120.726C437.377 124.447 440.961 126.357 444.999 126.357C448.826 126.357 452.312 124.53 453.885 121.078C454.501 120.139 454.858 119.033 454.858 117.843H457.972C463.907 117.843 465.512 114.106 465.512 110.267C465.512 110.184 465.512 110.083 465.512 109.999C465.512 109.916 465.512 109.815 465.512 109.731C465.512 105.893 463.907 102.156 457.972 102.156H454.858V97.2784H457.972Z" fill="#FF8500"/>
<path d="M437.701 130.564H391.015C377.02 130.564 370.388 139.296 370.388 150.425C370.388 161.654 377.036 170.085 391.015 170.085H437.701C451.485 170.085 458.328 161.872 458.328 150.425C458.328 139.095 451.485 130.564 437.701 130.564ZM424.015 152.168C424.015 153.006 423.269 153.643 422.474 153.492C419.782 152.973 417.042 152.704 414.366 152.704C411.674 152.704 408.95 152.973 406.258 153.492C405.447 153.643 404.717 153.006 404.717 152.168V149.034C404.717 148.38 405.171 147.827 405.788 147.71C408.642 147.157 411.528 146.872 414.382 146.872C417.236 146.872 420.123 147.157 422.977 147.71C423.593 147.827 424.047 148.38 424.047 149.034V152.168H424.015Z" fill="#FF8500"/>
<g clip-path="url(#clip0_232_3625)">
<path d="M235.17 183.36V182.954C235.17 176.604 240.294 173.838 245.724 173.938C251.049 174.038 255.56 177.01 255.56 182.954V183.36C255.56 186.126 255.353 188.791 254.947 191.25C266.228 192.129 274.637 198.2 277.243 210.188C278.529 216.105 273.944 221.675 267.894 221.675H267.228C262.75 221.675 258.958 218.537 257.905 214.179C256.853 209.834 254.134 207.129 249.936 206.509C244.099 216.551 234.57 222.288 224.528 222.695C219.197 222.902 215.512 220.136 214.593 216.238C213.467 211.527 215.719 207.122 220.123 206.196C230.558 204.057 235.17 195.754 235.17 183.36ZM284.446 183.36C284.446 176.704 289.157 173.219 294.588 173.219C299.919 173.219 304.73 176.803 304.73 183.36V189.711H307.908C314.159 189.711 316.004 194.322 316.004 198.42C316.004 202.618 314.059 207.129 307.908 207.129H304.73V213.053C304.73 218.324 300.452 222.602 295.181 222.602H293.995C288.724 222.602 284.446 218.324 284.446 213.053V183.36Z" fill="#FF8500"/>
<path d="M230.145 270.419C228.533 270.419 227.3 269.926 226.38 268.906C225.427 267.847 224.961 266.414 224.954 264.535L224.928 248.756C224.921 246.857 225.394 245.337 226.374 244.131C227.306 242.972 228.519 242.352 230.078 242.239C234.15 241.892 238.201 241.626 242.133 241.453C244.938 241.326 247.77 241.259 250.542 241.253C251.642 241.253 252.741 241.259 253.84 241.273C257.705 241.333 261.663 241.479 265.622 241.713C269.566 241.939 273.698 242.292 277.902 242.759L278.489 242.825C278.935 242.872 279.328 242.525 279.322 242.072L279.315 238.961C279.315 238.574 279.029 238.254 278.642 238.214L278.176 238.161C273.938 237.694 269.76 237.335 265.761 237.101C261.763 236.868 257.765 236.722 253.874 236.662C252.761 236.642 251.648 236.635 250.529 236.642C247.717 236.648 244.851 236.715 242.013 236.842C238.048 237.021 233.963 237.288 229.872 237.634C229.712 237.648 229.545 237.654 229.385 237.654C228.086 237.654 227.073 237.275 226.274 236.475C225.354 235.555 224.901 234.209 224.901 232.364C224.894 230.158 225.374 228.472 226.327 227.353C227.24 226.273 228.459 225.753 230.058 225.747L300.751 225.614C302.364 225.614 303.597 226.107 304.51 227.126C305.463 228.186 305.929 229.618 305.936 231.491L305.962 247.27C305.969 249.169 305.496 250.682 304.516 251.894C303.583 253.054 302.337 253.674 300.718 253.787C296.64 254.133 292.609 254.4 288.717 254.573C285.945 254.7 283.133 254.766 280.368 254.773C279.248 254.773 278.136 254.766 277.016 254.746C273.118 254.686 269.14 254.54 265.182 254.313C261.224 254.087 257.092 253.733 252.901 253.267L252.315 253.2C251.868 253.154 251.475 253.5 251.475 253.953L251.482 257.065C251.482 257.452 251.768 257.772 252.155 257.812L252.621 257.865C256.859 258.338 261.037 258.691 265.035 258.924C269.033 259.158 273.051 259.304 276.976 259.364C278.109 259.384 279.242 259.391 280.375 259.384C283.18 259.377 286.032 259.311 288.837 259.184C292.769 259.004 296.833 258.738 300.925 258.391C301.085 258.378 301.258 258.371 301.425 258.371C302.777 258.371 303.823 258.751 304.623 259.551C305.543 260.47 305.996 261.816 305.996 263.662V264.382C306.002 266.261 305.536 267.687 304.59 268.753C303.677 269.779 302.444 270.279 300.831 270.279L230.145 270.419Z" fill="#FF8500"/>
<path d="M408.107 245.431C407.274 244.138 406.181 243.105 404.855 242.366C403.476 241.593 401.83 241.053 399.978 240.76C398.025 240.453 395.813 240.26 393.414 240.193C388.523 240.127 383.912 240.053 379.587 239.98C375.236 239.907 370.912 239.874 366.74 239.874C362.562 239.874 358.244 239.907 353.893 239.98C349.568 240.053 344.957 240.12 340.086 240.193C337.667 240.26 335.455 240.453 333.503 240.76C331.644 241.053 330.004 241.593 328.625 242.366C327.286 243.112 326.22 244.118 325.373 245.431C324.52 246.764 323.887 248.569 323.488 250.808C323.294 251.861 323.194 253.187 323.194 254.766C323.194 256.346 323.294 257.672 323.494 258.738C323.887 260.963 324.52 262.769 325.373 264.102C326.22 265.415 327.286 266.421 328.625 267.167C330.004 267.934 331.644 268.473 333.503 268.766C335.455 269.073 337.667 269.266 340.086 269.333C344.904 269.473 349.548 269.559 353.886 269.599C358.204 269.633 362.496 269.653 366.747 269.653C370.998 269.653 375.283 269.633 379.601 269.599C383.939 269.559 388.583 269.473 393.401 269.333C395.82 269.266 398.032 269.073 399.984 268.766C401.837 268.473 403.483 267.934 404.862 267.167C406.188 266.428 407.281 265.395 408.114 264.102C408.967 262.769 409.607 260.963 410 258.725C410.193 257.672 410.293 256.346 410.293 254.766C410.293 253.187 410.193 251.861 409.993 250.795C409.6 248.569 408.967 246.764 408.107 245.431ZM376.576 256.306C376.576 257.139 375.823 257.765 375.003 257.612C372.258 257.099 369.479 256.839 366.74 256.839C364.002 256.839 361.216 257.099 358.478 257.612C357.658 257.765 356.905 257.139 356.905 256.306V253.221C356.905 252.581 357.358 252.034 357.991 251.914C360.896 251.368 363.842 251.095 366.74 251.095C369.646 251.095 372.591 251.368 375.496 251.914C376.122 252.034 376.582 252.581 376.582 253.221V256.306H376.576Z" fill="#FF8500"/>
<path d="M327.919 234.983H405.555C406.941 234.983 407.987 234.556 408.76 233.683C409.573 232.757 409.973 231.531 409.973 229.932V227.699C409.973 226.107 409.58 224.881 408.76 223.954C407.987 223.075 406.941 222.648 405.555 222.648H385.451C384.718 222.648 384.125 222.055 384.125 221.322V218.664C384.125 217.931 384.718 217.338 385.451 217.338H405.555C406.941 217.338 407.987 216.911 408.76 216.038C409.566 215.125 409.973 213.786 409.973 212.073C409.973 210.514 409.593 209.375 408.82 208.602C408.167 207.949 407.308 207.636 406.181 207.636C406.015 207.636 405.842 207.642 405.682 207.656C398.572 208.342 391.542 208.688 384.798 208.688C383.872 208.688 382.952 208.682 382.033 208.668C374.423 208.562 366.36 208.002 358.071 207.009C357.405 206.929 356.898 206.363 356.898 205.69V203.204C356.898 202.378 357.565 201.712 358.391 201.712C366.447 202.691 374.27 203.244 381.646 203.351C382.533 203.364 383.426 203.371 384.325 203.371C390.862 203.371 397.672 203.024 404.609 202.345C405.402 202.265 406.161 202.105 406.868 201.725C407.234 201.525 407.574 201.272 407.881 200.992C408.034 200.852 408.187 200.699 408.327 200.546C408.4 200.472 408.467 200.392 408.54 200.319C408.574 200.279 408.607 200.239 408.64 200.199C408.687 200.139 408.754 200.053 408.72 199.979C408.707 199.953 408.68 199.946 408.647 199.939C408.414 199.919 408.187 199.939 407.954 199.939C407.541 199.939 407.134 199.939 406.721 199.939C406.208 199.939 405.695 199.939 405.182 199.939C404.629 199.939 404.076 199.939 403.523 199.939C402.99 199.939 402.463 199.939 401.93 199.939C401.49 199.939 401.044 199.939 400.604 199.939C400.311 199.939 400.024 199.939 399.731 199.939C399.651 199.939 399.571 199.939 399.491 199.939C399.211 199.939 398.991 199.713 398.991 199.439V199.04C398.991 198.76 399.218 198.54 399.491 198.54H409.14C409.36 198.54 409.56 198.4 409.626 198.193C409.773 197.72 409.873 197.207 409.926 196.667C409.96 196.374 409.713 196.121 409.427 196.121H399.491C399.211 196.121 398.991 195.894 398.991 195.621V195.221C398.991 194.942 399.218 194.722 399.491 194.722H409.48C409.76 194.722 409.98 194.495 409.98 194.222V192.809C409.98 192.529 409.753 192.31 409.48 192.31H399.491C399.211 192.31 398.991 192.083 398.991 191.81V191.41C398.991 191.13 399.218 190.91 399.491 190.91H409.48C409.76 190.91 409.98 190.684 409.98 190.41V188.998C409.98 188.718 409.753 188.498 409.48 188.498H399.491C399.211 188.498 398.991 188.271 398.991 187.998V187.598C398.991 187.319 399.218 187.099 399.491 187.099H409.48C409.76 187.099 409.98 186.872 409.98 186.599V185.186C409.98 184.906 409.753 184.686 409.48 184.686H399.491C399.211 184.686 398.991 184.46 398.991 184.187V183.787C398.991 183.507 399.218 183.287 399.491 183.287H409.433C409.733 183.287 409.96 183.021 409.933 182.721C409.88 182.174 409.78 181.675 409.64 181.208C409.573 181.002 409.38 180.868 409.16 180.868H399.491C399.211 180.868 398.991 180.642 398.991 180.369V179.969C398.991 179.689 399.218 179.469 399.491 179.469H408.327C408.494 179.469 408.594 179.269 408.48 179.142C407.534 178.11 406.268 177.61 404.622 177.61H327.919C326.533 177.61 325.486 178.036 324.714 178.916C323.907 179.829 323.501 181.162 323.501 182.881C323.501 184.44 323.881 185.579 324.654 186.352C325.3 187.005 326.16 187.319 327.286 187.319C327.452 187.319 327.632 187.312 327.799 187.299C334.842 186.679 341.785 186.366 348.442 186.366C349.442 186.366 350.441 186.372 351.434 186.386C359.017 186.492 367.073 187.012 375.383 187.938C376.036 187.938 376.562 188.465 376.562 189.118V191.916C376.562 192.643 375.969 193.236 375.243 193.236H375.07C366.993 192.256 359.17 191.703 351.814 191.597C350.928 191.583 350.035 191.577 349.142 191.577C342.618 191.577 335.802 191.923 328.845 192.603C327.226 192.716 325.966 193.362 324.993 194.562C323.974 195.815 323.481 197.387 323.481 199.36V211.274C323.481 213.226 323.961 214.706 324.953 215.812C325.9 216.871 327.179 217.391 328.852 217.391H347.996C348.729 217.391 349.322 217.984 349.322 218.717V221.376C349.322 222.109 348.729 222.702 347.996 222.702H327.892C326.506 222.702 325.46 223.128 324.687 224.008C323.874 224.934 323.474 226.16 323.474 227.759V229.992C323.474 231.584 323.867 232.81 324.687 233.743C325.486 234.556 326.533 234.983 327.919 234.983Z" fill="#FF8500"/>
</g>
<g clip-path="url(#clip1_232_3625)">
<path d="M440.876 132.546C442.313 131.569 443.874 130.738 445.514 130.165C447.468 129.491 449.556 129.166 451.623 129.345C454.116 129.559 456.451 130.547 458.416 132.085C466.524 138.419 476.518 132.973 476.518 132.973" stroke="#17D2FB" stroke-width="1.5" stroke-miterlimit="10" stroke-linecap="round" stroke-linejoin="round"/>
</g>
<g clip-path="url(#clip2_232_3625)">
<path d="M440.876 137.273C442.313 136.296 443.874 135.465 445.514 134.893C447.468 134.219 449.556 133.893 451.623 134.073C454.116 134.286 456.451 135.275 458.416 136.813C466.524 143.146 476.518 137.7 476.518 137.7" stroke="#17D2FB" stroke-width="1.5" stroke-miterlimit="10" stroke-linecap="round" stroke-linejoin="round"/>
</g>
<g clip-path="url(#clip3_232_3625)">
<path d="M440.876 142.001C442.313 141.024 443.874 140.193 445.514 139.621C447.468 138.947 449.556 138.621 451.623 138.801C454.116 139.014 456.451 140.002 458.416 141.541C466.524 147.874 476.518 142.428 476.518 142.428" stroke="#17D2FB" stroke-width="1.5" stroke-miterlimit="10" stroke-linecap="round" stroke-linejoin="round"/>
</g>
<g clip-path="url(#clip4_232_3625)">
<path d="M440.876 146.729C442.313 145.752 443.874 144.921 445.514 144.348C447.468 143.674 449.556 143.349 451.623 143.528C454.116 143.742 456.451 144.73 458.416 146.268C466.524 152.602 476.518 147.155 476.518 147.155" stroke="#17D2FB" stroke-width="1.5" stroke-miterlimit="10" stroke-linecap="round" stroke-linejoin="round"/>
</g>
<g clip-path="url(#clip5_232_3625)">
<path d="M440.876 151.456C442.313 150.479 443.874 149.648 445.514 149.076C447.468 148.402 449.556 148.076 451.623 148.256C454.116 148.469 456.451 149.457 458.416 150.996C466.524 157.329 476.518 151.883 476.518 151.883" stroke="#17D2FB" stroke-width="1.5" stroke-miterlimit="10" stroke-linecap="round" stroke-linejoin="round"/>
</g>
<path d="M424.868 252.622L438.804 267.09L444.95 267.083V266.647L424.861 245.787L424.868 252.622Z" fill="white"/>
<path d="M424.882 267.105L433.116 267.094L424.875 258.541L424.882 267.105Z" fill="white"/>
<path d="M424.854 239.868L444.943 260.728L444.936 253.897L424.847 233.037L424.854 239.868Z" fill="white"/>
<path d="M424.84 227.119L444.929 247.975L444.922 241.144L424.833 220.288L424.84 227.119Z" fill="white"/>
<path d="M444.879 200.047L435.582 200.058L444.89 209.722L444.879 200.047Z" fill="white"/>
<path d="M444.897 215.64L429.894 200.065L424.815 200.069V201.615L444.904 222.475L444.897 215.64Z" fill="white"/>
<path d="M424.822 207.534L424.829 214.369L444.918 235.225L444.911 228.394L424.822 207.534Z" fill="white"/>
<path d="M444.89 209.722L435.582 200.058L429.894 200.065L444.897 215.641L444.89 209.722Z" fill="#FF8500"/>
<path d="M444.904 222.475L424.815 201.615L424.822 207.534L444.911 228.394L444.904 222.475Z" fill="#17D2FB"/>
<path d="M424.833 220.288L444.922 241.144L444.918 235.225L424.83 214.369L424.833 220.288Z" fill="#FF8500"/>
<path d="M424.847 233.037L444.936 253.897L444.929 247.975L424.84 227.119L424.847 233.037Z" fill="#17D2FB"/>
<path d="M424.861 245.787L444.95 266.647L444.943 260.728L424.854 239.868L424.861 245.787Z" fill="#FF8500"/>
<path d="M424.875 258.541L433.116 267.094L438.804 267.091L424.868 252.622L424.875 258.541Z" fill="#17D2FB"/>
<path d="M448.225 269.747C448.225 271.36 446.972 272.668 445.422 272.672L424.425 272.697C422.875 272.697 421.618 271.393 421.618 269.78C421.614 268.168 422.871 266.859 424.421 266.856L445.418 266.834C446.965 266.826 448.222 268.135 448.225 269.747Z" fill="#FF8500"/>
<path d="M426.672 192.332C426.668 188.23 430.34 184.896 434.872 184.891C439.409 184.886 443.089 188.21 443.094 192.311" fill="#FF8500"/>
<path d="M448.148 197.122C448.151 198.735 446.897 200.043 445.348 200.047L424.347 200.073C422.797 200.073 421.54 198.768 421.54 197.155C421.537 195.543 422.794 194.235 424.343 194.231L445.341 194.209C446.89 194.205 448.148 195.51 448.148 197.122Z" fill="#FF8500"/>
<path d="M444.957 274.409C444.964 279.561 440.477 283.743 434.937 283.75C429.398 283.758 424.9 279.583 424.893 274.431" fill="#FF8500"/>
<defs>
<clipPath id="clip0_232_3625">
<rect width="196" height="97.2004" fill="white" transform="translate(214.286 173.219)"/>
</clipPath>
<clipPath id="clip1_232_3625">
<rect width="37.8884" height="8.09648" fill="white" transform="translate(439.753 128.177)"/>
</clipPath>
<clipPath id="clip2_232_3625">
<rect width="37.8884" height="8.09648" fill="white" transform="translate(439.753 132.905)"/>
</clipPath>
<clipPath id="clip3_232_3625">
<rect width="37.8884" height="8.09648" fill="white" transform="translate(439.753 137.633)"/>
</clipPath>
<clipPath id="clip4_232_3625">
<rect width="37.8884" height="8.09648" fill="white" transform="translate(439.753 142.36)"/>
</clipPath>
<clipPath id="clip5_232_3625">
<rect width="37.8884" height="8.09648" fill="white" transform="translate(439.753 147.088)"/>
</clipPath>
</defs>
</svg>
