<svg width="290" height="290" viewBox="0 0 290 290" fill="none" xmlns="http://www.w3.org/2000/svg">
<circle cx="149" cy="145.5" r="112" fill="#FF8500"/>
<mask id="mask0_657_417" style="mask-type:alpha" maskUnits="userSpaceOnUse" x="8" y="33" width="274" height="225">
<path fill-rule="evenodd" clip-rule="evenodd" d="M37 154.5L10.5 153L8 141.5L54 33H243L281.5 62.5L270.5 99.5L260.944 149.085C259.051 209.282 209.656 257.5 149 257.5C90.1719 257.5 41.937 212.145 37.3559 154.494L37 154.5Z" fill="#FF8500"/>
</mask>
<g mask="url(#mask0_657_417)">
<path d="M55.8556 230.301C55.8172 230.301 55.7787 230.301 55.7402 230.301C38.0475 230.024 25.6496 217.118 25.5726 198.917C25.5418 191.537 28.3739 183.595 31.3676 175.199C36.7854 159.999 39.8407 149.572 33.2223 143.392C31.0982 141.406 27.0579 140.991 24.6491 142.684C22.4481 144.231 22.9253 147.086 21.3091 149.002C19.7854 150.811 17.3997 151.742 15.0524 151.449C11.2045 150.964 8.48021 147.447 8.96505 143.6C9.81929 136.82 14.2982 131.332 20.9474 128.931C28.4355 126.222 37.2164 127.916 42.8112 133.133C56.656 146.07 49.9683 164.84 44.5967 179.924C42.0263 187.135 39.6021 193.946 39.6175 198.871C39.6636 209.445 45.9203 216.11 55.9557 216.271C59.8344 216.333 62.9281 219.526 62.8665 223.405C62.8126 227.23 59.6805 230.301 55.8556 230.301Z" fill="#FFE8B6"/>
<mask id="mask1_657_417" style="mask-type:luminance" maskUnits="userSpaceOnUse" x="8" y="127" width="55" height="104">
<path d="M55.8556 230.301C55.8172 230.301 55.7787 230.301 55.7402 230.301C38.0475 230.024 25.6496 217.118 25.5726 198.917C25.5418 191.537 28.3739 183.595 31.3676 175.199C36.7854 159.999 39.8407 149.572 33.2223 143.392C31.0982 141.406 27.0579 140.991 24.6491 142.684C22.4481 144.231 22.9253 147.086 21.3091 149.002C19.7854 150.811 17.3997 151.742 15.0524 151.449C11.2045 150.964 8.48021 147.447 8.96505 143.6C9.81929 136.82 14.2982 131.332 20.9474 128.931C28.4355 126.222 37.2164 127.916 42.8112 133.133C56.656 146.07 49.9683 164.84 44.5967 179.924C42.0263 187.135 39.6021 193.946 39.6175 198.871C39.6636 209.445 45.9203 216.11 55.9557 216.271C59.8344 216.333 62.9281 219.526 62.8665 223.405C62.8126 227.23 59.6805 230.301 55.8556 230.301Z" fill="white"/>
</mask>
<g mask="url(#mask1_657_417)">
<path d="M50.2602 211.153C44.5576 220.889 40.4865 231.455 38.2547 242.514C37.0927 248.27 45.9275 250.733 47.0895 244.953C49.1751 234.61 52.8383 224.883 58.1715 215.779C61.1575 210.684 53.2385 206.067 50.2602 211.153Z" fill="#FF8500"/>
</g>
<mask id="mask2_657_417" style="mask-type:luminance" maskUnits="userSpaceOnUse" x="8" y="127" width="55" height="104">
<path d="M55.8556 230.301C55.8172 230.301 55.7787 230.301 55.7402 230.301C38.0475 230.024 25.6496 217.118 25.5726 198.917C25.5418 191.537 28.3739 183.595 31.3676 175.199C36.7854 159.999 39.8407 149.572 33.2223 143.392C31.0982 141.406 27.0579 140.991 24.6491 142.684C22.4481 144.231 22.9253 147.086 21.3091 149.002C19.7854 150.811 17.3997 151.742 15.0524 151.449C11.2045 150.964 8.48021 147.447 8.96505 143.6C9.81929 136.82 14.2982 131.332 20.9474 128.931C28.4355 126.222 37.2164 127.916 42.8112 133.133C56.656 146.07 49.9683 164.84 44.5967 179.924C42.0263 187.135 39.6021 193.946 39.6175 198.871C39.6636 209.445 45.9203 216.11 55.9557 216.271C59.8344 216.333 62.9281 219.526 62.8665 223.405C62.8126 227.23 59.6805 230.301 55.8556 230.301Z" fill="white"/>
</mask>
<g mask="url(#mask2_657_417)">
<path d="M36.7083 202.803C31.8446 206.559 28.4892 211.223 25.1338 216.317C21.1859 222.297 17.2456 228.284 13.2977 234.272C10.0423 239.212 17.9767 243.807 21.209 238.897C24.6105 233.741 28.0121 228.577 31.4136 223.421C34.3226 219.011 37.0854 214.001 41.3335 210.715C43.3036 209.191 44.3118 206.798 42.9804 204.443C41.8722 202.511 38.6631 201.295 36.7083 202.803Z" fill="#FF8500"/>
</g>
<mask id="mask3_657_417" style="mask-type:luminance" maskUnits="userSpaceOnUse" x="8" y="127" width="55" height="104">
<path d="M55.8556 230.301C55.8172 230.301 55.7787 230.301 55.7402 230.301C38.0475 230.024 25.6496 217.118 25.5726 198.917C25.5418 191.537 28.3739 183.595 31.3676 175.199C36.7854 159.999 39.8407 149.572 33.2223 143.392C31.0982 141.406 27.0579 140.991 24.6491 142.684C22.4481 144.231 22.9253 147.086 21.3091 149.002C19.7854 150.811 17.3997 151.742 15.0524 151.449C11.2045 150.964 8.48021 147.447 8.96505 143.6C9.81929 136.82 14.2982 131.332 20.9474 128.931C28.4355 126.222 37.2164 127.916 42.8112 133.133C56.656 146.07 49.9683 164.84 44.5967 179.924C42.0263 187.135 39.6021 193.946 39.6175 198.871C39.6636 209.445 45.9203 216.11 55.9557 216.271C59.8344 216.333 62.9281 219.526 62.8665 223.405C62.8126 227.23 59.6805 230.301 55.8556 230.301Z" fill="white"/>
</mask>
<g mask="url(#mask3_657_417)">
<path d="M44.1118 184.049C31.9909 185.249 19.7315 186.681 9.06509 193.022C4.00125 196.031 8.60334 203.958 13.6903 200.933C22.9176 195.454 33.6301 194.253 44.1118 193.215C49.9299 192.637 49.9914 183.472 44.1118 184.049Z" fill="#FF8500"/>
</g>
<mask id="mask4_657_417" style="mask-type:luminance" maskUnits="userSpaceOnUse" x="8" y="127" width="55" height="104">
<path d="M55.8556 230.301C55.8172 230.301 55.7787 230.301 55.7402 230.301C38.0475 230.024 25.6496 217.118 25.5726 198.917C25.5418 191.537 28.3739 183.595 31.3676 175.199C36.7854 159.999 39.8407 149.572 33.2223 143.392C31.0982 141.406 27.0579 140.991 24.6491 142.684C22.4481 144.231 22.9253 147.086 21.3091 149.002C19.7854 150.811 17.3997 151.742 15.0524 151.449C11.2045 150.964 8.48021 147.447 8.96505 143.6C9.81929 136.82 14.2982 131.332 20.9474 128.931C28.4355 126.222 37.2164 127.916 42.8112 133.133C56.656 146.07 49.9683 164.84 44.5967 179.924C42.0263 187.135 39.6021 193.946 39.6175 198.871C39.6636 209.445 45.9203 216.11 55.9557 216.271C59.8344 216.333 62.9281 219.526 62.8665 223.405C62.8126 227.23 59.6805 230.301 55.8556 230.301Z" fill="white"/>
</mask>
<g mask="url(#mask4_657_417)">
<path d="M29.6512 175.353C40.8486 171.174 52.4616 169.181 64.4131 169.473C70.3081 169.619 70.3081 160.454 64.4131 160.307C51.7228 159.992 39.1093 162.07 27.2193 166.51C21.7399 168.557 24.1102 177.423 29.6512 175.353Z" fill="#FF8500"/>
</g>
<mask id="mask5_657_417" style="mask-type:luminance" maskUnits="userSpaceOnUse" x="8" y="127" width="55" height="104">
<path d="M55.8556 230.301C55.8172 230.301 55.7787 230.301 55.7402 230.301C38.0475 230.024 25.6496 217.118 25.5726 198.917C25.5418 191.537 28.3739 183.595 31.3676 175.199C36.7854 159.999 39.8407 149.572 33.2223 143.392C31.0982 141.406 27.0579 140.991 24.6491 142.684C22.4481 144.231 22.9253 147.086 21.3091 149.002C19.7854 150.811 17.3997 151.742 15.0524 151.449C11.2045 150.964 8.48021 147.447 8.96505 143.6C9.81929 136.82 14.2982 131.332 20.9474 128.931C28.4355 126.222 37.2164 127.916 42.8112 133.133C56.656 146.07 49.9683 164.84 44.5967 179.924C42.0263 187.135 39.6021 193.946 39.6175 198.871C39.6636 209.445 45.9203 216.11 55.9557 216.271C59.8344 216.333 62.9281 219.526 62.8665 223.405C62.8126 227.23 59.6805 230.301 55.8556 230.301Z" fill="white"/>
</mask>
<g mask="url(#mask5_657_417)">
<path d="M36.0699 155.974C39.179 152.565 44.2582 150.249 48.1831 147.878C52.4081 145.323 56.6947 142.876 61.0197 140.498C66.1913 137.658 61.5738 129.747 56.3945 132.587C51.6539 135.188 46.9672 137.882 42.3497 140.698C38.0862 143.299 32.9762 145.785 29.59 149.502C25.6267 153.843 32.0912 160.346 36.0699 155.974Z" fill="#FF8500"/>
</g>
<mask id="mask6_657_417" style="mask-type:luminance" maskUnits="userSpaceOnUse" x="8" y="127" width="55" height="104">
<path d="M55.8556 230.301C55.8172 230.301 55.7787 230.301 55.7402 230.301C38.0475 230.024 25.6496 217.118 25.5726 198.917C25.5418 191.537 28.3739 183.595 31.3676 175.199C36.7854 159.999 39.8407 149.572 33.2223 143.392C31.0982 141.406 27.0579 140.991 24.6491 142.684C22.4481 144.231 22.9253 147.086 21.3091 149.002C19.7854 150.811 17.3997 151.742 15.0524 151.449C11.2045 150.964 8.48021 147.447 8.96505 143.6C9.81929 136.82 14.2982 131.332 20.9474 128.931C28.4355 126.222 37.2164 127.916 42.8112 133.133C56.656 146.07 49.9683 164.84 44.5967 179.924C42.0263 187.135 39.6021 193.946 39.6175 198.871C39.6636 209.445 45.9203 216.11 55.9557 216.271C59.8344 216.333 62.9281 219.526 62.8665 223.405C62.8126 227.23 59.6805 230.301 55.8556 230.301Z" fill="white"/>
</mask>
<g mask="url(#mask6_657_417)">
<path d="M33.653 147.74C33.7376 139.421 33.7299 130.717 37.1776 122.975C39.5479 117.634 31.6597 112.963 29.2663 118.35C25.1029 127.723 24.595 137.62 24.4949 147.74C24.4334 153.635 33.5914 153.643 33.653 147.74Z" fill="#FF8500"/>
</g>
<mask id="mask7_657_417" style="mask-type:luminance" maskUnits="userSpaceOnUse" x="8" y="127" width="55" height="104">
<path d="M55.8556 230.301C55.8172 230.301 55.7787 230.301 55.7402 230.301C38.0475 230.024 25.6496 217.118 25.5726 198.917C25.5418 191.537 28.3739 183.595 31.3676 175.199C36.7854 159.999 39.8407 149.572 33.2223 143.392C31.0982 141.406 27.0579 140.991 24.6491 142.684C22.4481 144.231 22.9253 147.086 21.3091 149.002C19.7854 150.811 17.3997 151.742 15.0524 151.449C11.2045 150.964 8.48021 147.447 8.96505 143.6C9.81929 136.82 14.2982 131.332 20.9474 128.931C28.4355 126.222 37.2164 127.916 42.8112 133.133C56.656 146.07 49.9683 164.84 44.5967 179.924C42.0263 187.135 39.6021 193.946 39.6175 198.871C39.6636 209.445 45.9203 216.11 55.9557 216.271C59.8344 216.333 62.9281 219.526 62.8665 223.405C62.8126 227.23 59.6805 230.301 55.8556 230.301Z" fill="white"/>
</mask>
<g mask="url(#mask7_657_417)">
<path d="M5.12445 132.71C4.60883 144.085 10.4884 154.151 18.9384 161.362C23.402 165.171 29.9127 158.714 25.4183 154.882C18.6999 149.148 13.8746 141.845 14.2902 132.71C14.5595 126.815 5.39381 126.831 5.12445 132.71Z" fill="#FF8500"/>
</g>
<path d="M143.526 116.564C140.548 109.908 135.515 104.621 129.458 100.826C128.396 92.8613 128.135 74.2682 122.471 75.5611C118.015 76.5693 109.796 86.2198 104.678 93.3846C101.284 93.123 97.8518 93.0999 94.4425 93.2769C89.3633 86.0659 80.821 75.9074 76.2419 74.8685C70.7164 73.6141 70.3316 91.2452 69.3311 99.5182C61.4044 104.159 55.6787 111.539 52.5465 120.959C49.0526 131.487 43.5578 143.823 46.3437 155.467C48.4985 164.486 56.0174 171.035 62.605 175.476C88.6322 193.022 126.296 188.351 142.441 159.453C149.722 146.432 149.537 130.009 143.526 116.564Z" fill="#FFE8B6"/>
<mask id="mask8_657_417" style="mask-type:luminance" maskUnits="userSpaceOnUse" x="45" y="74" width="103" height="112">
<path d="M143.526 116.564C140.548 109.908 135.515 104.621 129.458 100.826C128.396 92.8613 128.135 74.2682 122.471 75.5611C118.015 76.5693 109.796 86.2198 104.678 93.3846C101.284 93.123 97.8518 93.0999 94.4425 93.2769C89.3633 86.0659 80.821 75.9074 76.2419 74.8685C70.7164 73.6141 70.3316 91.2452 69.3311 99.5182C61.4044 104.159 55.6787 111.539 52.5465 120.959C49.0526 131.487 43.5578 143.823 46.3437 155.467C48.4985 164.486 56.0174 171.035 62.605 175.476C88.6322 193.022 126.296 188.351 142.441 159.453C149.722 146.432 149.537 130.009 143.526 116.564Z" fill="white"/>
</mask>
<g mask="url(#mask8_657_417)">
<path d="M96.4744 94.0696V101.373" stroke="#FF8500" stroke-width="4" stroke-miterlimit="10" stroke-linecap="round" stroke-linejoin="round"/>
</g>
<mask id="mask9_657_417" style="mask-type:luminance" maskUnits="userSpaceOnUse" x="45" y="74" width="103" height="112">
<path d="M143.526 116.564C140.548 109.908 135.515 104.621 129.458 100.826C128.396 92.8613 128.135 74.2682 122.471 75.5611C118.015 76.5693 109.796 86.2198 104.678 93.3846C101.284 93.123 97.8518 93.0999 94.4425 93.2769C89.3633 86.0659 80.821 75.9074 76.2419 74.8685C70.7164 73.6141 70.3316 91.2452 69.3311 99.5182C61.4044 104.159 55.6787 111.539 52.5465 120.959C49.0526 131.487 43.5578 143.823 46.3437 155.467C48.4985 164.486 56.0174 171.035 62.605 175.476C88.6322 193.022 126.296 188.351 142.441 159.453C149.722 146.432 149.537 130.009 143.526 116.564Z" fill="white"/>
</mask>
<g mask="url(#mask9_657_417)">
<path d="M102.477 94.1772V101.18" stroke="#FF8500" stroke-width="4" stroke-miterlimit="10" stroke-linecap="round" stroke-linejoin="round"/>
</g>
<mask id="mask10_657_417" style="mask-type:luminance" maskUnits="userSpaceOnUse" x="45" y="74" width="103" height="112">
<path d="M143.526 116.564C140.548 109.908 135.515 104.621 129.458 100.826C128.396 92.8613 128.135 74.2682 122.471 75.5611C118.015 76.5693 109.796 86.2198 104.678 93.3846C101.284 93.123 97.8518 93.0999 94.4425 93.2769C89.3633 86.0659 80.821 75.9074 76.2419 74.8685C70.7164 73.6141 70.3316 91.2452 69.3311 99.5182C61.4044 104.159 55.6787 111.539 52.5465 120.959C49.0526 131.487 43.5578 143.823 46.3437 155.467C48.4985 164.486 56.0174 171.035 62.605 175.476C88.6322 193.022 126.296 188.351 142.441 159.453C149.722 146.432 149.537 130.009 143.526 116.564Z" fill="white"/>
</mask>
<g mask="url(#mask10_657_417)">
<path d="M136.746 133.503H149.683" stroke="#FF8500" stroke-width="4" stroke-miterlimit="10" stroke-linecap="round" stroke-linejoin="round"/>
</g>
<mask id="mask11_657_417" style="mask-type:luminance" maskUnits="userSpaceOnUse" x="45" y="74" width="103" height="112">
<path d="M143.526 116.564C140.548 109.908 135.515 104.621 129.458 100.826C128.396 92.8613 128.135 74.2682 122.471 75.5611C118.015 76.5693 109.796 86.2198 104.678 93.3846C101.284 93.123 97.8518 93.0999 94.4425 93.2769C89.3633 86.0659 80.821 75.9074 76.2419 74.8685C70.7164 73.6141 70.3316 91.2452 69.3311 99.5182C61.4044 104.159 55.6787 111.539 52.5465 120.959C49.0526 131.487 43.5578 143.823 46.3437 155.467C48.4985 164.486 56.0174 171.035 62.605 175.476C88.6322 193.022 126.296 188.351 142.441 159.453C149.722 146.432 149.537 130.009 143.526 116.564Z" fill="white"/>
</mask>
<g mask="url(#mask11_657_417)">
<path d="M136.746 142.938H149.683" stroke="#FF8500" stroke-width="4" stroke-miterlimit="10" stroke-linecap="round" stroke-linejoin="round"/>
</g>
<mask id="mask12_657_417" style="mask-type:luminance" maskUnits="userSpaceOnUse" x="45" y="74" width="103" height="112">
<path d="M143.526 116.564C140.548 109.908 135.515 104.621 129.458 100.826C128.396 92.8613 128.135 74.2682 122.471 75.5611C118.015 76.5693 109.796 86.2198 104.678 93.3846C101.284 93.123 97.8518 93.0999 94.4425 93.2769C89.3633 86.0659 80.821 75.9074 76.2419 74.8685C70.7164 73.6141 70.3316 91.2452 69.3311 99.5182C61.4044 104.159 55.6787 111.539 52.5465 120.959C49.0526 131.487 43.5578 143.823 46.3437 155.467C48.4985 164.486 56.0174 171.035 62.605 175.476C88.6322 193.022 126.296 188.351 142.441 159.453C149.722 146.432 149.537 130.009 143.526 116.564Z" fill="white"/>
</mask>
<g mask="url(#mask12_657_417)">
<path d="M136.746 152.381H149.683" stroke="#FF8500" stroke-width="4" stroke-miterlimit="10" stroke-linecap="round" stroke-linejoin="round"/>
</g>
<mask id="mask13_657_417" style="mask-type:luminance" maskUnits="userSpaceOnUse" x="45" y="74" width="103" height="112">
<path d="M143.526 116.564C140.548 109.908 135.515 104.621 129.458 100.826C128.396 92.8613 128.135 74.2682 122.471 75.5611C118.015 76.5693 109.796 86.2198 104.678 93.3846C101.284 93.123 97.8518 93.0999 94.4425 93.2769C89.3633 86.0659 80.821 75.9074 76.2419 74.8685C70.7164 73.6141 70.3316 91.2452 69.3311 99.5182C61.4044 104.159 55.6787 111.539 52.5465 120.959C49.0526 131.487 43.5578 143.823 46.3437 155.467C48.4985 164.486 56.0174 171.035 62.605 175.476C88.6322 193.022 126.296 188.351 142.441 159.453C149.722 146.432 149.537 130.009 143.526 116.564Z" fill="white"/>
</mask>
<g mask="url(#mask13_657_417)">
<path d="M41.9568 133.503H54.9011" stroke="#FF8500" stroke-width="4" stroke-miterlimit="10" stroke-linecap="round" stroke-linejoin="round"/>
</g>
<mask id="mask14_657_417" style="mask-type:luminance" maskUnits="userSpaceOnUse" x="45" y="74" width="103" height="112">
<path d="M143.526 116.564C140.548 109.908 135.515 104.621 129.458 100.826C128.396 92.8613 128.135 74.2682 122.471 75.5611C118.015 76.5693 109.796 86.2198 104.678 93.3846C101.284 93.123 97.8518 93.0999 94.4425 93.2769C89.3633 86.0659 80.821 75.9074 76.2419 74.8685C70.7164 73.6141 70.3316 91.2452 69.3311 99.5182C61.4044 104.159 55.6787 111.539 52.5465 120.959C49.0526 131.487 43.5578 143.823 46.3437 155.467C48.4985 164.486 56.0174 171.035 62.605 175.476C88.6322 193.022 126.296 188.351 142.441 159.453C149.722 146.432 149.537 130.009 143.526 116.564Z" fill="white"/>
</mask>
<g mask="url(#mask14_657_417)">
<path d="M41.9568 142.938H54.9011" stroke="#FF8500" stroke-width="4" stroke-miterlimit="10" stroke-linecap="round" stroke-linejoin="round"/>
</g>
<mask id="mask15_657_417" style="mask-type:luminance" maskUnits="userSpaceOnUse" x="45" y="74" width="103" height="112">
<path d="M143.526 116.564C140.548 109.908 135.515 104.621 129.458 100.826C128.396 92.8613 128.135 74.2682 122.471 75.5611C118.015 76.5693 109.796 86.2198 104.678 93.3846C101.284 93.123 97.8518 93.0999 94.4425 93.2769C89.3633 86.0659 80.821 75.9074 76.242 74.8685C70.7164 73.6141 70.3316 91.2452 69.3311 99.5182C61.4044 104.159 55.6787 111.539 52.5465 120.959C49.0526 131.487 43.5578 143.823 46.3437 155.467C48.4985 164.486 56.0174 171.035 62.605 175.476C88.6322 193.022 126.296 188.351 142.441 159.453C149.722 146.432 149.537 130.009 143.526 116.564Z" fill="white"/>
</mask>
<g mask="url(#mask15_657_417)">
<path d="M41.9568 152.381H54.9011" stroke="#FF8500" stroke-width="4" stroke-miterlimit="10" stroke-linecap="round" stroke-linejoin="round"/>
</g>
<path d="M75.485 171.786C75.485 171.786 49.8814 184.532 40.127 234.898C30.3725 285.264 137.664 257.209 137.664 257.209C137.664 257.209 148.636 181.986 116.938 172.422C85.2395 162.858 75.485 171.786 75.485 171.786Z" fill="#FFE8B6"/>
<path d="M91.4025 141.114C93.4265 138.02 103.708 136.997 105.594 140.529C107.664 144.423 102.423 148.263 99.1599 148.818C95.6506 149.426 89.0322 146.047 91.1793 141.522C91.2409 141.383 91.3178 141.245 91.4025 141.114Z" fill="#FF8500"/>
<path d="M96.2176 124.964C96.6715 122.187 95.4752 119.68 93.5457 119.365C91.6162 119.05 89.6841 121.045 89.2302 123.822C88.7764 126.599 89.9726 129.106 91.9021 129.421C93.8317 129.736 95.7638 127.741 96.2176 124.964Z" fill="#FF8500"/>
<path d="M109.004 124.733C109.267 121.932 107.902 119.513 105.956 119.33C104.009 119.147 102.218 121.27 101.955 124.072C101.693 126.873 103.057 129.292 105.004 129.474C106.951 129.657 108.742 127.534 109.004 124.733Z" fill="#FF8500"/>
<path d="M111.704 136.043C111.704 136.043 120.47 132.841 128.25 135.512" stroke="#FF8500" stroke-width="4" stroke-miterlimit="10" stroke-linecap="round" stroke-linejoin="round"/>
<path d="M112.189 143.277C112.189 143.277 121.247 144.285 125.241 146.563" stroke="#FF8500" stroke-width="4" stroke-miterlimit="10" stroke-linecap="round" stroke-linejoin="round"/>
<path d="M84.2069 136.043C84.2069 136.043 75.4414 132.841 67.6609 135.512" stroke="#FF8500" stroke-width="4" stroke-miterlimit="10" stroke-linecap="round" stroke-linejoin="round"/>
<path d="M83.722 143.277C83.722 143.277 74.664 144.285 70.6699 146.563" stroke="#FF8500" stroke-width="4" stroke-miterlimit="10" stroke-linecap="round" stroke-linejoin="round"/>
<path d="M214.829 219.485C217.992 217.279 221.612 215.607 224.887 213.573C231.593 209.401 237.901 204.799 243.84 199.654C249.45 194.801 255.053 190.682 259.758 184.804C264.309 179.115 268.05 172.781 270.816 166.05C272.411 162.18 273.686 158.181 274.608 154.095C274.867 152.966 275.487 144.865 278.047 146.485C278.599 146.839 278.849 147.502 279.073 148.114C289.441 177.667 270.678 203.98 247.718 221.2C242.986 224.458 237.979 227.311 232.791 229.785C177.864 255.925 212.528 221.692 214.622 219.649C214.691 219.589 214.752 219.537 214.829 219.485Z" fill="#FFB600"/>
<path d="M234.069 155.238C234.069 155.238 266.501 170.683 278.852 231.677C291.202 292.672 155.312 258.706 155.312 258.706C155.312 258.706 141.41 167.598 181.564 156.014C221.719 144.431 234.069 155.238 234.069 155.238Z" fill="white"/>
<mask id="mask16_657_417" style="mask-type:luminance" maskUnits="userSpaceOnUse" x="152" y="150" width="128" height="119">
<path d="M234.069 155.238C234.069 155.238 266.501 170.683 278.852 231.677C291.202 292.672 155.312 258.706 155.312 258.706C155.312 258.706 141.41 167.598 181.564 156.014C221.719 144.431 234.069 155.238 234.069 155.238Z" fill="white"/>
</mask>
<g mask="url(#mask16_657_417)">
<path d="M245.42 169.658C242.214 185.637 242.766 203.167 254.159 215.931C263.218 226.067 284.221 233.686 295.762 223.783C299.39 220.663 296.21 215.285 292.133 215.026C286.816 214.681 282.782 213.156 279.395 208.924C276.008 204.692 273.543 199.556 271.302 194.643C266.786 184.732 263.321 174.381 257.702 164.995C254.315 159.332 245.437 164.486 248.842 170.175C255.452 181.215 259.055 193.643 264.959 205.029C267.656 210.226 270.871 215.673 275.396 219.491C280.231 223.576 285.945 224.877 292.125 225.282C290.918 222.361 289.703 219.439 288.496 216.526C284.635 219.844 277.525 217.439 273.319 216.104C267.88 214.38 263.192 211.389 259.848 206.709C252.729 196.755 253.005 183.878 255.306 172.39C256.607 165.934 246.722 163.176 245.42 169.658Z" fill="#FFB600"/>
</g>
<mask id="mask17_657_417" style="mask-type:luminance" maskUnits="userSpaceOnUse" x="152" y="150" width="128" height="119">
<path d="M234.069 155.238C234.069 155.238 266.501 170.683 278.852 231.677C291.202 292.672 155.312 258.706 155.312 258.706C155.312 258.706 141.41 167.598 181.564 156.014C221.719 144.431 234.069 155.238 234.069 155.238Z" fill="white"/>
</mask>
<g mask="url(#mask17_657_417)">
<path d="M247.877 158.608C243.085 165.443 241.697 173.777 241.43 181.965C241.137 190.859 242.3 199.357 246.825 207.157C250.807 214.035 256.452 221.051 262.951 225.687C270.363 230.979 279.533 231.203 288.298 230.953C293.288 230.807 295.409 223.99 290.884 221.395C286.738 219.017 282.3 216.853 278.438 214.018C274.586 211.191 272.164 207.183 269.811 203.115C264.58 194.074 259.951 184.706 255.858 175.096C253.884 170.459 245.825 172.769 246.299 177.681C247.015 185.085 247.903 192.902 252.41 199.082C254.47 201.9 257.84 203.874 259.391 206.976C260.951 210.096 261.701 212.932 265.011 214.707C270.828 217.844 276.008 208.984 270.19 205.847C268.992 205.201 268.122 201.314 267.243 200.03C265.597 197.625 263.149 196.056 261.296 193.859C257.607 189.48 257.09 183.146 256.564 177.681C253.375 178.543 250.186 179.405 247.006 180.267C251.488 190.773 256.538 201.124 262.494 210.881C268.234 220.292 276.396 224.903 285.713 230.247C286.574 227.058 287.436 223.869 288.298 220.689C281.653 220.878 274.379 221.24 268.682 217.224C263.416 213.518 258.891 207.493 255.694 201.977C252.074 195.72 251.462 189.067 251.703 181.965C251.927 175.449 252.944 169.218 256.754 163.788C260.537 158.367 251.643 153.23 247.877 158.608Z" fill="#FFB600"/>
</g>
<path d="M268.501 58.3213C256.392 57.4939 243.24 54.2102 232.501 61.9067C228.76 64.5871 225.925 68.362 224.235 72.6369C224.227 72.6541 224.21 72.6972 224.192 72.7489C216.272 71.3872 207.903 71.482 199.845 72.8696C199.267 71.3182 198.397 69.3963 198.293 69.1894C196.251 65.0783 193.113 61.5533 189.157 59.1918C177.815 52.4175 164.982 56.7872 152.985 58.6316C147.917 59.4072 140.453 61.3982 141.884 68.0862C143.522 75.7569 149.02 82.3588 155.829 86.0993C159.251 87.9781 162.922 88.8228 166.62 88.84C159.035 96.3986 156.872 103.294 151.502 112.49C149.262 116.325 145.633 119.428 143.039 123.022C140.238 126.9 138.755 131.192 138.118 135.734C137.109 142.87 143.168 153.652 148.279 158.332C165.904 174.484 188.356 177 211.919 172.639C243.455 166.796 272.905 137.182 260.856 101.57C259.322 97.045 257.159 93.089 254.496 89.6502C259.201 89.7967 263.864 88.6676 267.984 85.9355C274.448 81.6434 279.378 74.602 280.369 66.8193C281.222 60.0278 273.62 58.666 268.501 58.3213Z" fill="white"/>
<mask id="mask18_657_417" style="mask-type:luminance" maskUnits="userSpaceOnUse" x="138" y="55" width="143" height="120">
<path d="M268.501 58.3213C256.392 57.4939 243.24 54.2102 232.501 61.9067C228.76 64.5871 225.925 68.362 224.235 72.6369C224.227 72.6541 224.21 72.6972 224.192 72.7489C216.272 71.3872 207.903 71.482 199.845 72.8696C199.267 71.3182 198.397 69.3963 198.293 69.1894C196.251 65.0783 193.113 61.5533 189.157 59.1918C177.815 52.4175 164.982 56.7872 152.985 58.6316C147.917 59.4072 140.453 61.3982 141.884 68.0862C143.522 75.7569 149.02 82.3588 155.829 86.0993C159.251 87.9781 162.922 88.8228 166.62 88.84C159.035 96.3986 156.872 103.294 151.502 112.49C149.262 116.325 145.633 119.428 143.039 123.022C140.238 126.9 138.755 131.192 138.118 135.734C137.109 142.87 143.168 153.652 148.279 158.332C165.904 174.484 188.356 177 211.919 172.639C243.455 166.796 272.905 137.182 260.856 101.57C259.322 97.045 257.159 93.089 254.496 89.6502C259.201 89.7967 263.864 88.6676 267.984 85.9355C274.448 81.6434 279.378 74.602 280.369 66.8193C281.222 60.0278 273.62 58.666 268.501 58.3213Z" fill="white"/>
</mask>
<g mask="url(#mask18_657_417)">
<path d="M317.851 125.013C312.732 127.219 305.975 126.004 300.579 125.444C294.538 124.814 288.53 123.866 282.592 122.668C278.99 121.944 275.353 121.151 271.733 120.255C272.689 119.178 273.163 117.799 272.526 116.368C271.526 114.136 270.25 112.197 268.777 110.473C269.75 105.043 269.475 99.5875 267.966 94.1405C267.191 91.3309 264.614 90.4345 262.261 90.9258C262.183 90.6672 262.106 90.4087 262.028 90.1501C268.053 89.3572 272.388 84.0739 275.663 79.6956C279.326 74.8002 282.825 67.9484 280.843 61.9067C278.8 55.6668 270.526 54.7704 264.536 54.0465C260.916 53.6155 257.305 53.4776 253.702 53.5897C250.022 52.1676 246.066 51.685 242.895 52.5899C242.826 52.4262 242.748 52.2624 242.671 52.0987C240.231 46.4879 231.725 48.6081 232.776 54.5808C232.88 55.1497 232.966 55.7271 233.069 56.2959C232.664 56.5631 232.302 56.8906 231.975 57.244C231.363 56.5459 230.475 56.0977 229.484 55.8909C226.967 55.1583 223.994 56.0288 222.968 57.9852C221.641 53.6759 213.298 54.2361 212.876 59.6141C210.962 83.8843 219.047 108.594 244.015 120.557C255.866 126.236 269.225 129.684 282.282 132.149C289.134 133.442 296.08 134.39 303.044 135.028C310.025 135.665 316.576 135.872 323.057 133.08C329.004 130.511 323.798 122.444 317.851 125.013Z" fill="#FFB600"/>
</g>
<path d="M154.648 132.554C158.492 128.839 173.325 130.684 174.85 136.277C176.531 142.431 167.895 146.163 163.12 145.913C157.975 145.637 149.727 138.759 154.2 133.063C154.338 132.873 154.484 132.709 154.648 132.554Z" fill="#FF8500"/>
<path d="M201.165 108.334C201.674 105.224 200.334 102.417 198.173 102.064C196.012 101.711 193.848 103.945 193.34 107.055C192.832 110.165 194.171 112.972 196.332 113.326C198.493 113.679 200.657 111.444 201.165 108.334Z" fill="#FF8500"/>
<path d="M215.49 108.079C215.784 104.942 214.256 102.233 212.076 102.028C209.896 101.824 207.89 104.201 207.596 107.338C207.301 110.476 208.83 113.185 211.01 113.389C213.19 113.594 215.196 111.216 215.49 108.079Z" fill="#FF8500"/>
<path d="M241.55 79.7646C240.732 79.7646 239.921 79.3768 239.422 78.6442C238.611 77.472 238.904 75.8604 240.077 75.0502C240.499 74.7572 250.462 67.9829 261.615 70.0341C263.02 70.2927 263.95 71.6372 263.692 73.042C263.433 74.4469 262.08 75.3777 260.684 75.1192C251.669 73.4644 243.093 79.2475 243.007 79.3078C242.567 79.6181 242.059 79.7646 241.55 79.7646Z" fill="white"/>
<path d="M160.061 69.1724C160.061 69.1724 174.152 72.3526 178.246 80.0836Z" fill="#FF8500"/>
<path d="M178.246 82.6691C177.315 82.6691 176.419 82.1693 175.962 81.2901C173.057 75.8087 163.094 72.5077 159.492 71.6889C158.095 71.3787 157.225 69.9911 157.535 68.5948C157.854 67.1986 159.233 66.3281 160.629 66.6384C161.25 66.7763 175.936 70.1807 180.53 78.8597C181.202 80.118 180.719 81.6866 179.452 82.3589C179.065 82.5657 178.651 82.6691 178.246 82.6691Z" fill="#FF8500"/>
</g>
</svg>
