<svg width="290" height="290" viewBox="0 0 290 290" fill="none" xmlns="http://www.w3.org/2000/svg">
<circle cx="148.5" cy="145" r="112" fill="#CCCCCC"/>
<mask id="mask0_765_558" style="mask-type:alpha" maskUnits="userSpaceOnUse" x="4" y="27" width="282" height="230">
<path fill-rule="evenodd" clip-rule="evenodd" d="M36.5 153H4L12 116.5L29.5 109.5L62 61L125.5 27L234.5 42.5L286 61L270 116.5L260.5 149.5L260.411 149.501C258.049 209.27 208.848 257 148.5 257C89.3325 257 40.8808 211.12 36.781 152.996L36.5 153Z" fill="#FF8500"/>
</mask>
<g mask="url(#mask0_765_558)">
<path d="M55.3556 229.801C55.3172 229.801 55.2787 229.801 55.2402 229.801C37.5475 229.524 25.1496 216.618 25.0726 198.417C25.0418 191.037 27.8739 183.095 30.8676 174.699C36.2854 159.499 39.3407 149.072 32.7223 142.892C30.5982 140.906 26.5579 140.491 24.1491 142.184C21.9481 143.731 22.4253 146.586 20.8091 148.502C19.2854 150.311 16.8997 151.242 14.5524 150.949C10.7045 150.464 7.98021 146.947 8.46505 143.1C9.31929 136.32 13.7982 130.832 20.4474 128.431C27.9355 125.722 36.7164 127.416 42.3112 132.633C56.156 145.57 49.4683 164.34 44.0967 179.424C41.5263 186.635 39.1021 193.446 39.1175 198.371C39.1636 208.945 45.4203 215.61 55.4557 215.771C59.3344 215.833 62.4281 219.026 62.3665 222.905C62.3126 226.73 59.1805 229.801 55.3556 229.801Z" fill="#A3A3A3"/>
<mask id="mask1_765_558" style="mask-type:luminance" maskUnits="userSpaceOnUse" x="8" y="127" width="55" height="103">
<path d="M55.3556 229.801C55.3172 229.801 55.2787 229.801 55.2402 229.801C37.5475 229.524 25.1496 216.618 25.0726 198.417C25.0418 191.037 27.8739 183.095 30.8676 174.699C36.2854 159.499 39.3407 149.072 32.7223 142.892C30.5982 140.906 26.5579 140.491 24.1491 142.184C21.9481 143.731 22.4253 146.586 20.8091 148.502C19.2854 150.311 16.8997 151.242 14.5524 150.949C10.7045 150.464 7.98021 146.947 8.46505 143.1C9.31929 136.32 13.7982 130.832 20.4474 128.431C27.9355 125.722 36.7164 127.416 42.3112 132.633C56.156 145.57 49.4683 164.34 44.0967 179.424C41.5263 186.635 39.1021 193.446 39.1175 198.371C39.1636 208.945 45.4203 215.61 55.4557 215.771C59.3344 215.833 62.4281 219.026 62.3665 222.905C62.3126 226.73 59.1805 229.801 55.3556 229.801Z" fill="white"/>
</mask>
<g mask="url(#mask1_765_558)">
<path d="M49.7602 210.653C44.0576 220.389 39.9865 230.955 37.7547 242.014C36.5927 247.77 45.4275 250.233 46.5895 244.453C48.6751 234.11 52.3383 224.383 57.6715 215.279C60.6575 210.184 52.7385 205.567 49.7602 210.653Z" fill="#4F4F4F"/>
</g>
<mask id="mask2_765_558" style="mask-type:luminance" maskUnits="userSpaceOnUse" x="8" y="127" width="55" height="103">
<path d="M55.3556 229.801C55.3172 229.801 55.2787 229.801 55.2402 229.801C37.5475 229.524 25.1496 216.618 25.0726 198.417C25.0418 191.037 27.8739 183.095 30.8676 174.699C36.2854 159.499 39.3407 149.072 32.7223 142.892C30.5982 140.906 26.5579 140.491 24.1491 142.184C21.9481 143.731 22.4253 146.586 20.8091 148.502C19.2854 150.311 16.8997 151.242 14.5524 150.949C10.7045 150.464 7.98021 146.947 8.46505 143.1C9.31929 136.32 13.7982 130.832 20.4474 128.431C27.9355 125.722 36.7164 127.416 42.3112 132.633C56.156 145.57 49.4683 164.34 44.0967 179.424C41.5263 186.635 39.1021 193.446 39.1175 198.371C39.1636 208.945 45.4203 215.61 55.4557 215.771C59.3344 215.833 62.4281 219.026 62.3665 222.905C62.3126 226.73 59.1805 229.801 55.3556 229.801Z" fill="white"/>
</mask>
<g mask="url(#mask2_765_558)">
<path d="M36.2083 202.303C31.3446 206.059 27.9892 210.723 24.6338 215.817C20.6859 221.797 16.7456 227.784 12.7977 233.772C9.54234 238.712 17.4767 243.307 20.709 238.397C24.1105 233.241 27.5121 228.077 30.9136 222.921C33.8226 218.511 36.5854 213.501 40.8335 210.215C42.8036 208.691 43.8118 206.298 42.4804 203.943C41.3722 202.011 38.1631 200.795 36.2083 202.303Z" fill="#4F4F4F"/>
</g>
<mask id="mask3_765_558" style="mask-type:luminance" maskUnits="userSpaceOnUse" x="8" y="127" width="55" height="103">
<path d="M55.3556 229.801C55.3172 229.801 55.2787 229.801 55.2402 229.801C37.5475 229.524 25.1496 216.618 25.0726 198.417C25.0418 191.037 27.8739 183.095 30.8676 174.699C36.2854 159.499 39.3407 149.072 32.7223 142.892C30.5982 140.906 26.5579 140.491 24.1491 142.184C21.9481 143.731 22.4253 146.586 20.8091 148.502C19.2854 150.311 16.8997 151.242 14.5524 150.949C10.7045 150.464 7.98021 146.947 8.46505 143.1C9.31929 136.32 13.7982 130.832 20.4474 128.431C27.9355 125.722 36.7164 127.416 42.3112 132.633C56.156 145.57 49.4683 164.34 44.0967 179.424C41.5263 186.635 39.1021 193.446 39.1175 198.371C39.1636 208.945 45.4203 215.61 55.4557 215.771C59.3344 215.833 62.4281 219.026 62.3665 222.905C62.3126 226.73 59.1805 229.801 55.3556 229.801Z" fill="white"/>
</mask>
<g mask="url(#mask3_765_558)">
<path d="M43.6118 183.549C31.4909 184.749 19.2315 186.181 8.56509 192.522C3.50125 195.531 8.10334 203.458 13.1903 200.433C22.4176 194.954 33.1301 193.753 43.6118 192.715C49.4299 192.137 49.4914 182.972 43.6118 183.549Z" fill="#4F4F4F"/>
</g>
<mask id="mask4_765_558" style="mask-type:luminance" maskUnits="userSpaceOnUse" x="8" y="127" width="55" height="103">
<path d="M55.3556 229.801C55.3172 229.801 55.2787 229.801 55.2402 229.801C37.5475 229.524 25.1496 216.618 25.0726 198.417C25.0418 191.037 27.8739 183.095 30.8676 174.699C36.2854 159.499 39.3407 149.072 32.7223 142.892C30.5982 140.906 26.5579 140.491 24.1491 142.184C21.9481 143.731 22.4253 146.586 20.8091 148.502C19.2854 150.311 16.8997 151.242 14.5524 150.949C10.7045 150.464 7.98021 146.947 8.46505 143.1C9.31929 136.32 13.7982 130.832 20.4474 128.431C27.9355 125.722 36.7164 127.416 42.3112 132.633C56.156 145.57 49.4683 164.34 44.0967 179.424C41.5263 186.635 39.1021 193.446 39.1175 198.371C39.1636 208.945 45.4203 215.61 55.4557 215.771C59.3344 215.833 62.4281 219.026 62.3665 222.905C62.3126 226.73 59.1805 229.801 55.3556 229.801Z" fill="white"/>
</mask>
<g mask="url(#mask4_765_558)">
<path d="M29.1512 174.853C40.3486 170.674 51.9616 168.681 63.9131 168.973C69.8081 169.119 69.8081 159.954 63.9131 159.807C51.2228 159.492 38.6093 161.57 26.7193 166.01C21.2399 168.057 23.6102 176.923 29.1512 174.853Z" fill="#4F4F4F"/>
</g>
<mask id="mask5_765_558" style="mask-type:luminance" maskUnits="userSpaceOnUse" x="8" y="127" width="55" height="103">
<path d="M55.3556 229.801C55.3172 229.801 55.2787 229.801 55.2402 229.801C37.5475 229.524 25.1496 216.618 25.0726 198.417C25.0418 191.037 27.8739 183.095 30.8676 174.699C36.2854 159.499 39.3407 149.072 32.7223 142.892C30.5982 140.906 26.5579 140.491 24.1491 142.184C21.9481 143.731 22.4253 146.586 20.8091 148.502C19.2854 150.311 16.8997 151.242 14.5524 150.949C10.7045 150.464 7.98021 146.947 8.46505 143.1C9.31929 136.32 13.7982 130.832 20.4474 128.431C27.9355 125.722 36.7164 127.416 42.3112 132.633C56.156 145.57 49.4683 164.34 44.0967 179.424C41.5263 186.635 39.1021 193.446 39.1175 198.371C39.1636 208.945 45.4203 215.61 55.4557 215.771C59.3344 215.833 62.4281 219.026 62.3665 222.905C62.3126 226.73 59.1805 229.801 55.3556 229.801Z" fill="white"/>
</mask>
<g mask="url(#mask5_765_558)">
<path d="M35.5699 155.474C38.679 152.065 43.7582 149.749 47.6831 147.378C51.9081 144.823 56.1947 142.376 60.5197 139.998C65.6913 137.158 61.0738 129.247 55.8945 132.087C51.1539 134.688 46.4672 137.382 41.8497 140.198C37.5862 142.799 32.4762 145.285 29.09 149.002C25.1267 153.343 31.5912 159.846 35.5699 155.474Z" fill="#4F4F4F"/>
</g>
<mask id="mask6_765_558" style="mask-type:luminance" maskUnits="userSpaceOnUse" x="8" y="127" width="55" height="103">
<path d="M55.3556 229.801C55.3172 229.801 55.2787 229.801 55.2402 229.801C37.5475 229.524 25.1496 216.618 25.0726 198.417C25.0418 191.037 27.8739 183.095 30.8676 174.699C36.2854 159.499 39.3407 149.072 32.7223 142.892C30.5982 140.906 26.5579 140.491 24.1491 142.184C21.9481 143.731 22.4253 146.586 20.8091 148.502C19.2854 150.311 16.8997 151.242 14.5524 150.949C10.7045 150.464 7.98021 146.947 8.46505 143.1C9.31929 136.32 13.7982 130.832 20.4474 128.431C27.9355 125.722 36.7164 127.416 42.3112 132.633C56.156 145.57 49.4683 164.34 44.0967 179.424C41.5263 186.635 39.1021 193.446 39.1175 198.371C39.1636 208.945 45.4203 215.61 55.4557 215.771C59.3344 215.833 62.4281 219.026 62.3665 222.905C62.3126 226.73 59.1805 229.801 55.3556 229.801Z" fill="white"/>
</mask>
<g mask="url(#mask6_765_558)">
<path d="M33.153 147.24C33.2376 138.921 33.2299 130.217 36.6776 122.475C39.0479 117.134 31.1597 112.463 28.7663 117.85C24.6029 127.223 24.095 137.12 23.9949 147.24C23.9334 153.135 33.0914 153.143 33.153 147.24Z" fill="#4F4F4F"/>
</g>
<mask id="mask7_765_558" style="mask-type:luminance" maskUnits="userSpaceOnUse" x="8" y="127" width="55" height="103">
<path d="M55.3556 229.801C55.3172 229.801 55.2787 229.801 55.2402 229.801C37.5475 229.524 25.1496 216.618 25.0726 198.417C25.0418 191.037 27.8739 183.095 30.8676 174.699C36.2854 159.499 39.3407 149.072 32.7223 142.892C30.5982 140.906 26.5579 140.491 24.1491 142.184C21.9481 143.731 22.4253 146.586 20.8091 148.502C19.2854 150.311 16.8997 151.242 14.5524 150.949C10.7045 150.464 7.98021 146.947 8.46505 143.1C9.31929 136.32 13.7982 130.832 20.4474 128.431C27.9355 125.722 36.7164 127.416 42.3112 132.633C56.156 145.57 49.4683 164.34 44.0967 179.424C41.5263 186.635 39.1021 193.446 39.1175 198.371C39.1636 208.945 45.4203 215.61 55.4557 215.771C59.3344 215.833 62.4281 219.026 62.3665 222.905C62.3126 226.73 59.1805 229.801 55.3556 229.801Z" fill="white"/>
</mask>
<g mask="url(#mask7_765_558)">
<path d="M4.62445 132.21C4.10883 143.585 9.98843 153.651 18.4384 160.862C22.902 164.671 29.4127 158.214 24.9183 154.382C18.1999 148.648 13.3746 141.345 13.7902 132.21C14.0595 126.315 4.89381 126.331 4.62445 132.21Z" fill="#4F4F4F"/>
</g>
<path d="M143.026 116.064C140.048 109.408 135.015 104.121 128.958 100.326C127.896 92.3613 127.635 73.7682 121.971 75.0611C117.515 76.0693 109.296 85.7198 104.178 92.8846C100.784 92.623 97.3518 92.5999 93.9425 92.7769C88.8633 85.5659 80.321 75.4074 75.7419 74.3685C70.2164 73.1141 69.8316 90.7452 68.8311 99.0182C60.9044 103.659 55.1787 111.039 52.0465 120.459C48.5526 130.987 43.0578 143.323 45.8437 154.967C47.9985 163.986 55.5174 170.535 62.105 174.976C88.1322 192.522 125.796 187.851 141.941 158.953C149.222 145.932 149.037 129.509 143.026 116.064Z" fill="#A3A3A3"/>
<mask id="mask8_765_558" style="mask-type:luminance" maskUnits="userSpaceOnUse" x="45" y="74" width="103" height="112">
<path d="M143.026 116.064C140.048 109.408 135.015 104.121 128.958 100.326C127.896 92.3613 127.635 73.7682 121.971 75.0611C117.515 76.0693 109.296 85.7198 104.178 92.8846C100.784 92.623 97.3518 92.5999 93.9425 92.7769C88.8633 85.5659 80.321 75.4074 75.7419 74.3685C70.2164 73.1141 69.8316 90.7452 68.8311 99.0182C60.9044 103.659 55.1787 111.039 52.0465 120.459C48.5526 130.987 43.0578 143.323 45.8437 154.967C47.9985 163.986 55.5174 170.535 62.105 174.976C88.1322 192.522 125.796 187.851 141.941 158.953C149.222 145.932 149.037 129.509 143.026 116.064Z" fill="white"/>
</mask>
<g mask="url(#mask8_765_558)">
<path d="M95.9744 93.5696V100.873" stroke="#6A6A6A" stroke-width="4" stroke-miterlimit="10" stroke-linecap="round" stroke-linejoin="round"/>
</g>
<mask id="mask9_765_558" style="mask-type:luminance" maskUnits="userSpaceOnUse" x="45" y="74" width="103" height="112">
<path d="M143.026 116.064C140.048 109.408 135.015 104.121 128.958 100.326C127.896 92.3613 127.635 73.7682 121.971 75.0611C117.515 76.0693 109.296 85.7198 104.178 92.8846C100.784 92.623 97.3518 92.5999 93.9425 92.7769C88.8633 85.5659 80.321 75.4074 75.7419 74.3685C70.2164 73.1141 69.8316 90.7452 68.8311 99.0182C60.9044 103.659 55.1787 111.039 52.0465 120.459C48.5526 130.987 43.0578 143.323 45.8437 154.967C47.9985 163.986 55.5174 170.535 62.105 174.976C88.1322 192.522 125.796 187.851 141.941 158.953C149.222 145.932 149.037 129.509 143.026 116.064Z" fill="white"/>
</mask>
<g mask="url(#mask9_765_558)">
<path d="M101.977 93.6772V100.68" stroke="#6A6A6A" stroke-width="4" stroke-miterlimit="10" stroke-linecap="round" stroke-linejoin="round"/>
</g>
<mask id="mask10_765_558" style="mask-type:luminance" maskUnits="userSpaceOnUse" x="45" y="74" width="103" height="112">
<path d="M143.026 116.064C140.048 109.408 135.015 104.121 128.958 100.326C127.896 92.3613 127.635 73.7682 121.971 75.0611C117.515 76.0693 109.296 85.7198 104.178 92.8846C100.784 92.623 97.3518 92.5999 93.9425 92.7769C88.8633 85.5659 80.321 75.4074 75.7419 74.3685C70.2164 73.1141 69.8316 90.7452 68.8311 99.0182C60.9044 103.659 55.1787 111.039 52.0465 120.459C48.5526 130.987 43.0578 143.323 45.8437 154.967C47.9985 163.986 55.5174 170.535 62.105 174.976C88.1322 192.522 125.796 187.851 141.941 158.953C149.222 145.932 149.037 129.509 143.026 116.064Z" fill="white"/>
</mask>
<g mask="url(#mask10_765_558)">
<path d="M136.246 133.003H149.183" stroke="#6A6A6A" stroke-width="4" stroke-miterlimit="10" stroke-linecap="round" stroke-linejoin="round"/>
</g>
<mask id="mask11_765_558" style="mask-type:luminance" maskUnits="userSpaceOnUse" x="45" y="74" width="103" height="112">
<path d="M143.026 116.064C140.048 109.408 135.015 104.121 128.958 100.326C127.896 92.3613 127.635 73.7682 121.971 75.0611C117.515 76.0693 109.296 85.7198 104.178 92.8846C100.784 92.623 97.3518 92.5999 93.9425 92.7769C88.8633 85.5659 80.321 75.4074 75.7419 74.3685C70.2164 73.1141 69.8316 90.7452 68.8311 99.0182C60.9044 103.659 55.1787 111.039 52.0465 120.459C48.5526 130.987 43.0578 143.323 45.8437 154.967C47.9985 163.986 55.5174 170.535 62.105 174.976C88.1322 192.522 125.796 187.851 141.941 158.953C149.222 145.932 149.037 129.509 143.026 116.064Z" fill="white"/>
</mask>
<g mask="url(#mask11_765_558)">
<path d="M136.246 142.438H149.183" stroke="#6A6A6A" stroke-width="4" stroke-miterlimit="10" stroke-linecap="round" stroke-linejoin="round"/>
</g>
<mask id="mask12_765_558" style="mask-type:luminance" maskUnits="userSpaceOnUse" x="45" y="74" width="103" height="112">
<path d="M143.026 116.064C140.048 109.408 135.015 104.121 128.958 100.326C127.896 92.3613 127.635 73.7682 121.971 75.0611C117.515 76.0693 109.296 85.7198 104.178 92.8846C100.784 92.623 97.3518 92.5999 93.9425 92.7769C88.8633 85.5659 80.321 75.4074 75.7419 74.3685C70.2164 73.1141 69.8316 90.7452 68.8311 99.0182C60.9044 103.659 55.1787 111.039 52.0465 120.459C48.5526 130.987 43.0578 143.323 45.8437 154.967C47.9985 163.986 55.5174 170.535 62.105 174.976C88.1322 192.522 125.796 187.851 141.941 158.953C149.222 145.932 149.037 129.509 143.026 116.064Z" fill="white"/>
</mask>
<g mask="url(#mask12_765_558)">
<path d="M136.246 151.881H149.183" stroke="#6A6A6A" stroke-width="4" stroke-miterlimit="10" stroke-linecap="round" stroke-linejoin="round"/>
</g>
<mask id="mask13_765_558" style="mask-type:luminance" maskUnits="userSpaceOnUse" x="45" y="74" width="103" height="112">
<path d="M143.026 116.064C140.048 109.408 135.015 104.121 128.958 100.326C127.896 92.3613 127.635 73.7682 121.971 75.0611C117.515 76.0693 109.296 85.7198 104.178 92.8846C100.784 92.623 97.3518 92.5999 93.9425 92.7769C88.8633 85.5659 80.321 75.4074 75.7419 74.3685C70.2164 73.1141 69.8316 90.7452 68.8311 99.0182C60.9044 103.659 55.1787 111.039 52.0465 120.459C48.5526 130.987 43.0578 143.323 45.8437 154.967C47.9985 163.986 55.5174 170.535 62.105 174.976C88.1322 192.522 125.796 187.851 141.941 158.953C149.222 145.932 149.037 129.509 143.026 116.064Z" fill="white"/>
</mask>
<g mask="url(#mask13_765_558)">
<path d="M41.4568 133.003H54.4011" stroke="#6A6A6A" stroke-width="4" stroke-miterlimit="10" stroke-linecap="round" stroke-linejoin="round"/>
</g>
<mask id="mask14_765_558" style="mask-type:luminance" maskUnits="userSpaceOnUse" x="45" y="74" width="103" height="112">
<path d="M143.026 116.064C140.048 109.408 135.015 104.121 128.958 100.326C127.896 92.3613 127.635 73.7682 121.971 75.0611C117.515 76.0693 109.296 85.7198 104.178 92.8846C100.784 92.623 97.3518 92.5999 93.9425 92.7769C88.8633 85.5659 80.321 75.4074 75.7419 74.3685C70.2164 73.1141 69.8316 90.7452 68.8311 99.0182C60.9044 103.659 55.1787 111.039 52.0465 120.459C48.5526 130.987 43.0578 143.323 45.8437 154.967C47.9985 163.986 55.5174 170.535 62.105 174.976C88.1322 192.522 125.796 187.851 141.941 158.953C149.222 145.932 149.037 129.509 143.026 116.064Z" fill="white"/>
</mask>
<g mask="url(#mask14_765_558)">
<path d="M41.4568 142.438H54.4011" stroke="#6A6A6A" stroke-width="4" stroke-miterlimit="10" stroke-linecap="round" stroke-linejoin="round"/>
</g>
<mask id="mask15_765_558" style="mask-type:luminance" maskUnits="userSpaceOnUse" x="45" y="74" width="103" height="112">
<path d="M143.026 116.064C140.048 109.408 135.015 104.121 128.958 100.326C127.896 92.3613 127.635 73.7682 121.971 75.0611C117.515 76.0693 109.296 85.7198 104.178 92.8846C100.784 92.623 97.3518 92.5999 93.9425 92.7769C88.8633 85.5659 80.321 75.4074 75.742 74.3685C70.2164 73.1141 69.8316 90.7452 68.8311 99.0182C60.9044 103.659 55.1787 111.039 52.0465 120.459C48.5526 130.987 43.0578 143.323 45.8437 154.967C47.9985 163.986 55.5174 170.535 62.105 174.976C88.1322 192.522 125.796 187.851 141.941 158.953C149.222 145.932 149.037 129.509 143.026 116.064Z" fill="white"/>
</mask>
<g mask="url(#mask15_765_558)">
<path d="M41.4568 151.881H54.4011" stroke="#6A6A6A" stroke-width="4" stroke-miterlimit="10" stroke-linecap="round" stroke-linejoin="round"/>
</g>
<path d="M75.3801 171.39C75.3801 171.39 49.8069 183.564 40.064 231.671C30.3211 279.777 137.485 252.981 137.485 252.981C137.485 252.981 148.444 181.132 116.784 171.997C85.123 162.863 75.3801 171.39 75.3801 171.39Z" fill="#A3A3A3"/>
<path d="M90.9025 140.614C92.9265 137.52 103.208 136.497 105.094 140.029C107.164 143.923 101.923 147.763 98.6599 148.318C95.1506 148.926 88.5322 145.547 90.6793 141.022C90.7409 140.883 90.8178 140.745 90.9025 140.614Z" fill="#4F4F4F"/>
<path d="M95.7176 124.464C96.1715 121.687 94.9752 119.18 93.0457 118.865C91.1162 118.55 89.1841 120.545 88.7302 123.322C88.2764 126.099 89.4726 128.606 91.4021 128.921C93.3317 129.236 95.2638 127.241 95.7176 124.464Z" fill="#4F4F4F"/>
<path d="M108.504 124.233C108.767 121.432 107.402 119.013 105.456 118.83C103.509 118.647 101.718 120.77 101.455 123.572C101.193 126.373 102.557 128.792 104.504 128.974C106.451 129.157 108.242 127.034 108.504 124.233Z" fill="#4F4F4F"/>
<path d="M111.204 135.543C111.204 135.543 119.97 132.341 127.75 135.012" stroke="#6A6A6A" stroke-width="4" stroke-miterlimit="10" stroke-linecap="round" stroke-linejoin="round"/>
<path d="M111.689 142.777C111.689 142.777 120.747 143.785 124.741 146.063" stroke="#6A6A6A" stroke-width="4" stroke-miterlimit="10" stroke-linecap="round" stroke-linejoin="round"/>
<path d="M83.7069 135.543C83.7069 135.543 74.9414 132.341 67.1609 135.012" stroke="#6A6A6A" stroke-width="4" stroke-miterlimit="10" stroke-linecap="round" stroke-linejoin="round"/>
<path d="M83.222 142.777C83.222 142.777 74.164 143.785 70.1699 146.063" stroke="#6A6A6A" stroke-width="4" stroke-miterlimit="10" stroke-linecap="round" stroke-linejoin="round"/>
<path d="M214.329 218.985C217.492 216.779 221.112 215.107 224.387 213.073C231.093 208.901 237.401 204.299 243.34 199.154C248.95 194.301 254.553 190.182 259.258 184.304C263.809 178.615 267.55 172.281 270.316 165.55C271.911 161.68 273.186 157.681 274.108 153.595C274.367 152.466 274.987 144.365 277.547 145.985C278.099 146.339 278.349 147.002 278.573 147.614C288.941 177.167 270.178 203.48 247.218 220.7C242.486 223.958 237.479 226.811 232.291 229.285C177.364 255.425 212.028 221.192 214.122 219.149C214.191 219.089 214.252 219.037 214.329 218.985Z" fill="#4F4F4F"/>
<path d="M233.569 154.738C233.569 154.738 266.001 170.183 278.352 231.177C290.702 292.172 154.812 258.206 154.812 258.206C154.812 258.206 140.91 167.098 181.064 155.514C221.219 143.931 233.569 154.738 233.569 154.738Z" fill="#EFEFEF"/>
<mask id="mask16_765_558" style="mask-type:luminance" maskUnits="userSpaceOnUse" x="152" y="150" width="128" height="118">
<path d="M233.569 154.738C233.569 154.738 266.001 170.183 278.352 231.177C290.702 292.172 154.812 258.206 154.812 258.206C154.812 258.206 140.91 167.098 181.064 155.514C221.219 143.931 233.569 154.738 233.569 154.738Z" fill="white"/>
</mask>
<g mask="url(#mask16_765_558)">
<path d="M244.92 169.158C241.714 185.137 242.266 202.667 253.659 215.431C262.718 225.567 283.721 233.186 295.262 223.283C298.89 220.163 295.71 214.785 291.633 214.526C286.316 214.181 282.282 212.656 278.895 208.424C275.508 204.192 273.043 199.056 270.802 194.143C266.286 184.232 262.821 173.881 257.202 164.495C253.815 158.832 244.937 163.986 248.342 169.675C254.952 180.715 258.555 193.143 264.459 204.529C267.156 209.726 270.371 215.173 274.896 218.991C279.731 223.076 285.445 224.377 291.625 224.782C290.418 221.861 289.203 218.939 287.996 216.026C284.135 219.344 277.025 216.939 272.819 215.604C267.38 213.88 262.692 210.889 259.348 206.209C252.229 196.255 252.505 183.378 254.806 171.89C256.107 165.434 246.222 162.676 244.92 169.158Z" fill="#4F4F4F"/>
</g>
<mask id="mask17_765_558" style="mask-type:luminance" maskUnits="userSpaceOnUse" x="152" y="150" width="128" height="118">
<path d="M233.569 154.738C233.569 154.738 266.001 170.183 278.352 231.177C290.702 292.172 154.812 258.206 154.812 258.206C154.812 258.206 140.91 167.098 181.064 155.514C221.219 143.931 233.569 154.738 233.569 154.738Z" fill="white"/>
</mask>
<g mask="url(#mask17_765_558)">
<path d="M247.377 158.108C242.585 164.943 241.197 173.277 240.93 181.465C240.637 190.359 241.8 198.857 246.325 206.657C250.307 213.535 255.952 220.551 262.451 225.187C269.863 230.479 279.033 230.703 287.798 230.453C292.788 230.307 294.909 223.49 290.384 220.895C286.238 218.517 281.8 216.353 277.938 213.518C274.086 210.691 271.664 206.683 269.311 202.615C264.08 193.574 259.451 184.206 255.358 174.596C253.384 169.959 245.325 172.269 245.799 177.181C246.515 184.585 247.403 192.402 251.91 198.582C253.97 201.4 257.34 203.374 258.891 206.476C260.451 209.596 261.201 212.432 264.511 214.207C270.328 217.344 275.508 208.484 269.69 205.347C268.492 204.701 267.622 200.814 266.743 199.53C265.097 197.125 262.649 195.556 260.796 193.359C257.107 188.98 256.59 182.646 256.064 177.181C252.875 178.043 249.686 178.905 246.506 179.767C250.988 190.273 256.038 200.624 261.994 210.381C267.734 219.792 275.896 224.403 285.213 229.747C286.074 226.558 286.936 223.369 287.798 220.189C281.153 220.378 273.879 220.74 268.182 216.724C262.916 213.018 258.391 206.993 255.194 201.477C251.574 195.22 250.962 188.567 251.203 181.465C251.427 174.949 252.444 168.718 256.254 163.288C260.037 157.867 251.143 152.73 247.377 158.108Z" fill="#4F4F4F"/>
</g>
<path d="M268.001 57.8213C255.892 56.9939 242.74 53.7102 232.001 61.4067C228.26 64.0871 225.425 67.862 223.735 72.1369C223.727 72.1541 223.71 72.1972 223.692 72.2489C215.772 70.8872 207.403 70.982 199.345 72.3696C198.767 70.8182 197.897 68.8963 197.793 68.6894C195.751 64.5783 192.613 61.0533 188.657 58.6918C177.315 51.9175 164.482 56.2872 152.485 58.1316C147.417 58.9072 139.953 60.8982 141.384 67.5862C143.022 75.2569 148.52 81.8588 155.329 85.5993C158.751 87.4781 162.422 88.3228 166.12 88.34C158.535 95.8986 156.372 102.794 151.002 111.99C148.762 115.825 145.133 118.928 142.539 122.522C139.738 126.4 138.255 130.692 137.618 135.234C136.609 142.37 142.668 153.152 147.779 157.832C165.404 173.984 187.856 176.5 211.419 172.139C242.955 166.296 272.405 136.682 260.356 101.07C258.822 96.545 256.659 92.589 253.996 89.1502C258.701 89.2967 263.364 88.1676 267.484 85.4355C273.948 81.1434 278.878 74.102 279.869 66.3193C280.722 59.5278 273.12 58.166 268.001 57.8213Z" fill="#EFEFEF"/>
<mask id="mask18_765_558" style="mask-type:luminance" maskUnits="userSpaceOnUse" x="137" y="55" width="143" height="120">
<path d="M268.001 57.8213C255.892 56.9939 242.74 53.7102 232.001 61.4067C228.26 64.0871 225.425 67.862 223.735 72.1369C223.727 72.1541 223.71 72.1972 223.692 72.2489C215.772 70.8872 207.403 70.982 199.345 72.3696C198.767 70.8182 197.897 68.8963 197.793 68.6894C195.751 64.5783 192.613 61.0533 188.657 58.6918C177.315 51.9175 164.482 56.2872 152.485 58.1316C147.417 58.9072 139.953 60.8982 141.384 67.5862C143.022 75.2569 148.52 81.8588 155.329 85.5993C158.751 87.4781 162.422 88.3228 166.12 88.34C158.535 95.8986 156.372 102.794 151.002 111.99C148.762 115.825 145.133 118.928 142.539 122.522C139.738 126.4 138.255 130.692 137.618 135.234C136.609 142.37 142.668 153.152 147.779 157.832C165.404 173.984 187.856 176.5 211.419 172.139C242.955 166.296 272.405 136.682 260.356 101.07C258.822 96.545 256.659 92.589 253.996 89.1502C258.701 89.2967 263.364 88.1676 267.484 85.4355C273.948 81.1434 278.878 74.102 279.869 66.3193C280.722 59.5278 273.12 58.166 268.001 57.8213Z" fill="white"/>
</mask>
<g mask="url(#mask18_765_558)">
<path d="M317.351 124.513C312.232 126.719 305.475 125.504 300.079 124.944C294.038 124.314 288.03 123.366 282.092 122.168C278.49 121.444 274.853 120.651 271.233 119.755C272.189 118.678 272.663 117.299 272.026 115.868C271.026 113.636 269.75 111.697 268.277 109.973C269.25 104.543 268.975 99.0875 267.466 93.6405C266.691 90.8309 264.114 89.9345 261.761 90.4258C261.683 90.1672 261.606 89.9087 261.528 89.6501C267.553 88.8572 271.888 83.5739 275.163 79.1956C278.826 74.3002 282.325 67.4484 280.343 61.4067C278.3 55.1668 270.026 54.2704 264.036 53.5465C260.416 53.1155 256.805 52.9776 253.202 53.0897C249.522 51.6676 245.566 51.185 242.395 52.0899C242.326 51.9262 242.248 51.7624 242.171 51.5987C239.731 45.9879 231.225 48.1081 232.276 54.0808C232.38 54.6497 232.466 55.2271 232.569 55.7959C232.164 56.0631 231.802 56.3906 231.475 56.744C230.863 56.0459 229.975 55.5977 228.984 55.3909C226.467 54.6583 223.494 55.5288 222.468 57.4852C221.141 53.1759 212.798 53.7361 212.376 59.1141C210.462 83.3843 218.547 108.094 243.515 120.057C255.366 125.736 268.725 129.184 281.782 131.649C288.634 132.942 295.58 133.89 302.544 134.528C309.525 135.165 316.076 135.372 322.557 132.58C328.504 130.011 323.298 121.944 317.351 124.513Z" fill="#4F4F4F"/>
</g>
<path d="M154.148 132.054C157.992 128.339 172.825 130.184 174.35 135.777C176.031 141.931 167.395 145.663 162.62 145.413C157.475 145.137 149.227 138.259 153.7 132.563C153.838 132.373 153.984 132.209 154.148 132.054Z" fill="#4F4F4F"/>
<path d="M200.665 107.834C201.174 104.724 199.834 101.917 197.673 101.564C195.512 101.211 193.348 103.445 192.84 106.555C192.332 109.665 193.671 112.472 195.832 112.826C197.993 113.179 200.157 110.944 200.665 107.834Z" fill="#4F4F4F"/>
<path d="M214.99 107.579C215.284 104.442 213.756 101.733 211.576 101.528C209.396 101.324 207.39 103.701 207.096 106.838C206.801 109.976 208.33 112.685 210.51 112.889C212.69 113.094 214.696 110.716 214.99 107.579Z" fill="#4F4F4F"/>
<path d="M241.05 79.2646C240.232 79.2646 239.421 78.8768 238.922 78.1442C238.111 76.972 238.404 75.3604 239.577 74.5502C239.999 74.2572 249.962 67.4829 261.115 69.5341C262.52 69.7927 263.45 71.1372 263.192 72.542C262.933 73.9469 261.58 74.8777 260.184 74.6192C251.169 72.9644 242.593 78.7475 242.507 78.8078C242.067 79.1181 241.559 79.2646 241.05 79.2646Z" fill="#EFEFEF"/>
<path d="M159.561 68.6724C159.561 68.6724 173.652 71.8526 177.746 79.5836Z" fill="#4F4F4F"/>
<path d="M177.746 82.1691C176.815 82.1691 175.919 81.6693 175.462 80.7901C172.557 75.3087 162.594 72.0077 158.992 71.1889C157.595 70.8787 156.725 69.4911 157.035 68.0948C157.354 66.6986 158.733 65.8281 160.129 66.1384C160.75 66.2763 175.436 69.6807 180.03 78.3597C180.702 79.618 180.219 81.1866 178.952 81.8589C178.565 82.0657 178.151 82.1691 177.746 82.1691Z" fill="#4F4F4F"/>
</g>
</svg>
