<svg width="26" height="26" viewBox="0 0 26 26" fill="none" xmlns="http://www.w3.org/2000/svg">
<g filter="url(#filter0_d_794_180)">
<circle cx="12" cy="12" r="10" fill="white"/>
</g>
<path d="M13.3481 14.6667H16.7183V18M10.6519 9.33333H7.28175V6M17 10.002C16.6221 9.07679 15.9893 8.27501 15.1736 7.68778C14.3579 7.10055 13.392 6.75143 12.3857 6.68011C11.3794 6.60878 10.3731 6.81812 9.48105 7.28432C8.58904 7.75052 7.84715 8.45488 7.33971 9.31733M7 13.998C7.378 14.923 8.01076 15.7247 8.82639 16.3118C9.64201 16.8989 10.6078 17.2479 11.614 17.3192C12.6202 17.3905 13.6264 17.1813 14.5183 16.7152C15.4102 16.2491 16.1521 15.5449 16.6596 14.6827" stroke="black" stroke-linecap="round" stroke-linejoin="round"/>
<defs>
<filter id="filter0_d_794_180" x="0" y="0" width="26" height="26" filterUnits="userSpaceOnUse" color-interpolation-filters="sRGB">
<feFlood flood-opacity="0" result="BackgroundImageFix"/>
<feColorMatrix in="SourceAlpha" type="matrix" values="0 0 0 0 0 0 0 0 0 0 0 0 0 0 0 0 0 0 127 0" result="hardAlpha"/>
<feOffset dx="1" dy="1"/>
<feGaussianBlur stdDeviation="1.5"/>
<feComposite in2="hardAlpha" operator="out"/>
<feColorMatrix type="matrix" values="0 0 0 0 0 0 0 0 0 0 0 0 0 0 0 0 0 0 0.25 0"/>
<feBlend mode="normal" in2="BackgroundImageFix" result="effect1_dropShadow_794_180"/>
<feBlend mode="normal" in="SourceGraphic" in2="effect1_dropShadow_794_180" result="shape"/>
</filter>
</defs>
</svg>
