<svg width="50" height="50" viewBox="0 0 50 50" fill="none" xmlns="http://www.w3.org/2000/svg">
<rect x="0.5" y="0.5" width="49" height="49" rx="3.5" fill="white" stroke="black"/>
<path d="M27.0013 22.4358C25.7146 21.2934 24.04 20.6856 22.32 20.7367C20.6 20.7878 18.9645 21.494 17.7479 22.7108L13.9805 26.4728L13.9803 26.473C12.7146 27.7385 12.0034 29.455 12.0034 31.2448C12.0034 33.0346 12.7146 34.7511 13.9803 36.0166C15.2461 37.2822 16.9628 37.9931 18.7529 37.9931C20.5429 37.9931 22.2597 37.2822 23.5254 36.0166L25.0781 34.4642L25.0783 34.464C25.1479 34.3943 25.2306 34.3391 25.3216 34.3013C25.4126 34.2636 25.5102 34.2442 25.6087 34.2442C25.7072 34.2442 25.8048 34.2636 25.8958 34.3013C25.9868 34.3391 26.0695 34.3943 26.1391 34.464L26.1392 34.4641C26.2797 34.6046 26.3585 34.7952 26.3585 34.9938C26.3585 35.1925 26.2797 35.383 26.1392 35.5235L26.1382 35.5245L24.5867 37.0851C24.5865 37.0853 24.5863 37.0855 24.5862 37.0857C23.038 38.6322 20.9388 39.5007 18.7503 39.5C16.5614 39.4993 14.4626 38.6293 12.9153 37.0814C11.3681 35.5335 10.4993 33.4345 10.5 31.2461C10.5007 29.0578 11.3708 26.9593 12.919 25.4124L12.9191 25.4122L16.6868 21.6453L16.6869 21.6451C18.174 20.1572 20.1735 19.2937 22.2764 19.2312C24.3793 19.1688 26.4266 19.9123 27.9993 21.3094L27.9997 21.3098C28.0736 21.3753 28.1339 21.4548 28.1771 21.5436C28.2204 21.6325 28.2457 21.7289 28.2516 21.8276C28.2575 21.9262 28.2439 22.025 28.2117 22.1184C28.1794 22.2117 28.1291 22.2978 28.0635 22.3718C27.9979 22.4457 27.9184 22.506 27.8296 22.5492C27.7407 22.5925 27.6441 22.6177 27.5455 22.6237C27.4468 22.6296 27.3479 22.616 27.2545 22.5838C27.1612 22.5515 27.0752 22.5013 27.0013 22.4358ZM27.0013 22.4358L26.6693 22.8097L27.001 22.4356C27.0011 22.4357 27.0012 22.4358 27.0013 22.4358ZM22.4298 26.8696L22.4598 27.3687C22.6591 27.3567 22.8549 27.4244 23.0042 27.5568C24.2902 28.6996 25.9642 29.3081 27.684 29.258C29.404 29.2078 31.0399 28.5026 32.2571 27.2865L32.2574 27.2862L36.0249 23.5163C36.025 23.5162 36.025 23.5162 36.0251 23.5161C37.2908 22.2506 38.0018 20.5342 38.0018 18.7445C38.0018 16.9547 37.2907 15.2382 36.0249 13.9726C34.7592 12.7071 33.0424 11.9961 31.2524 11.9961C29.4623 11.9961 27.7456 12.7071 26.4798 13.9726L24.9272 15.525L24.927 15.5252C24.7865 15.6658 24.5958 15.7449 24.3969 15.745C24.198 15.7451 24.0073 15.6662 23.8666 15.5257C23.7259 15.3851 23.6469 15.1945 23.6468 14.9958C23.6467 14.797 23.7256 14.6063 23.8661 14.4657L23.8661 14.4657L25.4182 12.9123C25.4183 12.9122 25.4184 12.9121 25.4185 12.912C26.967 11.3674 29.065 10.5 31.2524 10.5C33.3814 10.5 35.4257 11.3218 36.9611 12.7898L37.0858 12.9147C38.6318 14.4631 39.5 16.5614 39.5 18.7491C39.5 20.9367 38.6319 23.035 37.0861 24.5833L22.4298 26.8696ZM22.4298 26.8696L22.4598 27.3687C22.2605 27.3807 22.0742 27.4713 21.9418 27.6206C21.8094 27.7699 21.7417 27.9657 21.7537 28.1648C21.7657 28.364 21.8563 28.5502 22.0056 28.6826L22.0061 28.6831C23.5784 30.0806 25.6254 30.8245 27.7284 30.7627C29.8313 30.7008 31.831 29.8378 33.3184 28.3503L33.3185 28.3502L37.0858 24.5836L22.4298 26.8696Z" fill="black" stroke="black"/>
</svg>
