<svg width="36" height="32" viewBox="0 0 36 32" fill="none" xmlns="http://www.w3.org/2000/svg">
<path fill-rule="evenodd" clip-rule="evenodd" d="M18.9022 31.6376L32.7317 18.0753C32.7673 18.0474 32.8017 18.0173 32.8349 17.9851C33.8723 16.9762 34.689 15.7653 35.2332 14.4276C35.7774 13.09 36.0372 11.6549 35.9957 10.2125C35.9543 8.7701 35.6126 7.35215 34.9926 6.04754C34.3726 4.74296 33.4878 3.58023 32.3945 2.63159C31.3012 1.68299 30.0228 0.968779 28.6397 0.53287C27.2566 0.0969686 25.7978 -0.0514664 24.3546 0.0966342C22.9113 0.244736 21.5138 0.68627 20.2495 1.3942C19.4337 1.85101 18.6846 2.41249 18.0208 3.06271C17.3575 2.4057 16.6076 1.83782 15.7898 1.37533C14.5247 0.659792 13.1243 0.211783 11.677 0.0589035C10.2297 -0.0939749 8.76593 0.0514985 7.37772 0.486383C5.98948 0.921276 4.70624 1.63638 3.60911 2.58745C2.51193 3.53857 1.62456 4.70518 1.00371 6.01435C0.382831 7.32356 0.0421657 8.74654 0.00367181 10.1936C-0.0348222 11.6406 0.229713 13.0795 0.780215 14.4195C1.32997 15.7577 2.1528 16.9677 3.19616 17.9742L17.1287 31.6376C17.6215 32.1208 18.4095 32.1208 18.9022 31.6376Z" fill="#FF8500"/>
</svg>
