<svg width="36" height="32" viewBox="0 0 36 32" fill="none" xmlns="http://www.w3.org/2000/svg">
<path fill-rule="evenodd" clip-rule="evenodd" d="M11.4112 2.58458C10.3077 2.46803 9.19196 2.57901 8.13439 2.91031C7.07685 3.2416 6.10102 3.78583 5.26805 4.50792C4.43512 5.22997 3.76315 6.11412 3.29364 7.10415C2.82415 8.09415 2.56704 9.16903 2.53798 10.2612C2.50893 11.3534 2.70854 12.4401 3.12465 13.4529C3.54077 14.4658 4.16463 15.3835 4.95778 16.1478L4.96583 16.1555L4.96579 16.1555L18.0155 28.9531L31.0652 16.1555C31.0981 16.1233 31.1323 16.0931 31.1677 16.0652C31.9078 15.3198 32.4915 14.4375 32.8855 13.4691C33.2969 12.458 33.4928 11.3743 33.4616 10.2856C33.4303 9.19686 33.1724 8.12578 32.7035 7.13925C32.2347 6.15268 31.5647 5.27147 30.7347 4.5513C29.9046 3.8311 28.9325 3.28756 27.8789 2.95549C26.8252 2.62342 25.7133 2.51018 24.6129 2.6231C23.5125 2.73601 22.4482 3.07255 21.4865 3.61107C20.5248 4.14956 19.6868 4.87819 19.0244 5.7506C18.7839 6.06728 18.4091 6.25273 18.0119 6.25162C17.6148 6.25051 17.241 6.06296 17.0023 5.74494C16.3427 4.86618 15.5058 4.13115 14.5434 3.58689C13.5811 3.04261 12.5146 2.70114 11.4112 2.58458ZM32.7317 18.0753L18.9022 31.6376C18.4095 32.1208 17.6215 32.1208 17.1287 31.6376L3.19616 17.9742C2.1528 16.9677 1.32997 15.7577 0.780215 14.4195C0.229713 13.0795 -0.0348222 11.6406 0.00367181 10.1936C0.0421657 8.74654 0.382831 7.32356 1.00371 6.01435C1.62456 4.70518 2.51193 3.53857 3.60911 2.58746C4.70624 1.63638 5.98948 0.921276 7.37772 0.486383C8.76593 0.0514985 10.2297 -0.0939749 11.677 0.0589035C13.1243 0.211783 14.5247 0.659792 15.7898 1.37533C16.6076 1.83782 17.3576 2.4057 18.0208 3.06271C18.6846 2.41249 19.4337 1.85101 20.2495 1.3942C21.5138 0.68627 22.9113 0.244736 24.3546 0.0966342C25.7978 -0.0514664 27.2566 0.0969686 28.6397 0.53287C30.0228 0.968779 31.3012 1.68299 32.3945 2.63159C33.4878 3.58023 34.3726 4.74296 34.9926 6.04754C35.6126 7.35215 35.9543 8.7701 35.9957 10.2125C36.0372 11.6549 35.7774 13.09 35.2332 14.4276C34.689 15.7653 33.8723 16.9762 32.8349 17.9851C32.8017 18.0173 32.7673 18.0474 32.7317 18.0753Z" fill="black"/>
</svg>
