<svg width="28" height="36" viewBox="0 0 28 36" fill="none" xmlns="http://www.w3.org/2000/svg">
<path d="M23.8993 4.02036C21.4516 1.62042 18.1841 0.194759 14.7275 0.01853C11.271 -0.157699 7.87036 0.927996 5.18204 3.06608C2.49371 5.20416 0.708234 8.24305 0.170216 11.5962C-0.367803 14.9494 0.379772 18.3792 2.26866 21.2237L12.0016 34.938C12.2182 35.2641 12.5143 35.532 12.8632 35.7174C13.2121 35.9029 13.6026 36 13.9994 36C14.3962 36 14.7867 35.9029 15.1356 35.7174C15.4845 35.532 15.7806 35.2641 15.9972 34.938L25.7305 21.2237C27.4831 18.585 28.2577 15.4358 27.9243 12.3037C27.5909 9.17162 26.1699 6.24711 23.8993 4.02036ZM23.5721 19.8447L13.9994 33.3173L4.42669 19.8447C1.49651 15.4333 2.12497 9.52964 5.921 5.80668C6.98187 4.76625 8.24131 3.94094 9.62741 3.37786C11.0135 2.81478 12.4991 2.52497 13.9994 2.52497C15.4998 2.52497 16.9854 2.81478 18.3715 3.37786C19.7576 3.94094 21.017 4.76625 22.0779 5.80668C25.8739 9.52964 26.5023 15.4333 23.5721 19.8447Z" fill="black"/>
<circle cx="14.5" cy="13.5" r="4.5" fill="black"/>
</svg>
