<svg width="31" height="31" viewBox="0 0 31 31" fill="none" xmlns="http://www.w3.org/2000/svg">
<path fill-rule="evenodd" clip-rule="evenodd" d="M3.30682 2.97727C3.12482 2.97727 2.97727 3.12482 2.97727 3.30682V27.6932C2.97727 27.8752 3.12482 28.0227 3.30682 28.0227H27.6932C27.8752 28.0227 28.0227 27.8752 28.0227 27.6932V15.5C28.0227 14.954 28.4654 14.5114 29.0114 14.5114C29.5574 14.5114 30 14.954 30 15.5V27.6932C30 28.9672 28.9672 30 27.6932 30H3.30682C2.0328 30 1 28.9672 1 27.6932V3.30682C1 2.0328 2.0328 1 3.30682 1H15.5C16.046 1 16.4886 1.44263 16.4886 1.98864C16.4886 2.53465 16.046 2.97727 15.5 2.97727H3.30682Z" fill="black"/>
<path fill-rule="evenodd" clip-rule="evenodd" d="M21.1023 2.97727C20.5563 2.97727 20.1136 2.53465 20.1136 1.98864C20.1136 1.44263 20.5563 1 21.1023 1H29.0114C29.5574 1 30 1.44263 30 1.98864V9.89773C30 10.4437 29.5574 10.8864 29.0114 10.8864C28.4654 10.8864 28.0227 10.4437 28.0227 9.89773V4.37542L15.8695 16.5286C15.4834 16.9147 14.8575 16.9147 14.4714 16.5286C14.0853 16.1425 14.0853 15.5166 14.4714 15.1305L26.6246 2.97727H21.1023Z" fill="black"/>
<path fill-rule="evenodd" clip-rule="evenodd" d="M3.30682 2.97727C3.12482 2.97727 2.97727 3.12482 2.97727 3.30682V27.6932C2.97727 27.8752 3.12482 28.0227 3.30682 28.0227H27.6932C27.8752 28.0227 28.0227 27.8752 28.0227 27.6932V15.5C28.0227 14.954 28.4654 14.5114 29.0114 14.5114C29.5574 14.5114 30 14.954 30 15.5V27.6932C30 28.9672 28.9672 30 27.6932 30H3.30682C2.0328 30 1 28.9672 1 27.6932V3.30682C1 2.0328 2.0328 1 3.30682 1H15.5C16.046 1 16.4886 1.44263 16.4886 1.98864C16.4886 2.53465 16.046 2.97727 15.5 2.97727H3.30682Z" stroke="black" stroke-width="0.5" stroke-linecap="round" stroke-linejoin="round"/>
<path fill-rule="evenodd" clip-rule="evenodd" d="M21.1023 2.97727C20.5563 2.97727 20.1136 2.53465 20.1136 1.98864C20.1136 1.44263 20.5563 1 21.1023 1H29.0114C29.5574 1 30 1.44263 30 1.98864V9.89773C30 10.4437 29.5574 10.8864 29.0114 10.8864C28.4654 10.8864 28.0227 10.4437 28.0227 9.89773V4.37542L15.8695 16.5286C15.4834 16.9147 14.8575 16.9147 14.4714 16.5286C14.0853 16.1425 14.0853 15.5166 14.4714 15.1305L26.6246 2.97727H21.1023Z" stroke="black" stroke-width="0.5" stroke-linecap="round" stroke-linejoin="round"/>
</svg>
