<svg width="32" height="32" viewBox="0 0 32 32" fill="none" xmlns="http://www.w3.org/2000/svg">
<path fill-rule="evenodd" clip-rule="evenodd" d="M7.49115 0.507545C7.73075 0.695717 7.99985 0.948878 8.30944 1.25466C8.97273 1.90745 9.74223 2.95332 10.4025 3.95736C11.0702 4.97266 11.6889 6.04147 12.0357 6.78538L12.0359 6.78586L12.0361 6.78634C12.2327 7.20901 12.4099 7.59204 12.5344 7.92774C12.6609 8.26866 12.766 8.64364 12.7666 9.05285C12.7681 9.90942 12.3031 10.5705 11.8553 11.1803C11.7266 11.3554 11.6173 11.499 11.5231 11.6227C11.32 11.8894 11.1868 12.0642 11.0802 12.2664C10.9763 12.4636 10.9459 12.606 10.9951 12.8352C11.0661 13.1658 11.3746 13.8893 11.9736 14.8358C12.5529 15.7512 13.3461 16.7837 14.2938 17.7284C15.2413 18.6728 16.2574 19.4451 17.1546 20.0039C18.079 20.5797 18.791 20.8753 19.131 20.9478C19.3677 20.9983 19.5155 20.9667 19.7131 20.8638C19.9216 20.7553 20.107 20.6137 20.3955 20.3935C20.5088 20.307 20.638 20.2083 20.7908 20.0947L20.7911 20.0946L20.8026 20.086C21.4145 19.6314 22.0943 19.1264 22.9559 19.1273C23.3817 19.1277 23.7638 19.2479 24.1003 19.3853C24.4217 19.5165 24.791 19.7025 25.1961 19.9066L25.23 19.9237C25.9401 20.2817 26.9958 20.8882 28.0178 21.5494C29.0218 22.1989 30.0812 22.9571 30.7408 23.6217L30.7418 23.6227C31.0484 23.9324 31.3022 24.2015 31.4909 24.441C31.6735 24.6729 31.8739 24.9728 31.9584 25.3458C32.0537 25.766 31.9673 26.1156 31.8788 26.3581C31.839 26.4674 31.7919 26.5724 31.7581 26.6474C31.7528 26.6591 31.7477 26.6706 31.7427 26.6817C31.7113 26.7513 31.6839 26.8121 31.6548 26.8817L31.6541 26.8834L31.6534 26.885C31.3549 27.593 30.9917 28.2719 30.5686 28.9132L30.5673 28.9151L30.566 28.917C29.7392 30.1591 28.9613 30.9707 27.7523 31.5339C27.124 31.8266 26.2262 32.1221 24.8311 31.9481C23.4891 31.7808 21.7433 31.1867 19.3606 29.8522L19.36 29.8519C15.5471 27.7136 12.9015 25.87 9.48861 22.4668C6.08578 19.0736 4.41321 16.859 2.0702 12.6027C-0.288541 8.3178 -0.285162 5.67543 0.388439 4.23607C0.954011 3.02755 1.77376 2.25332 3.01181 1.43082L3.01425 1.4292L3.0167 1.42759C3.65869 1.00581 4.33796 0.643697 5.046 0.345801L5.04834 0.344819L5.05068 0.343846C5.12075 0.314731 5.18203 0.287258 5.25211 0.255847C5.2631 0.250921 5.2743 0.245898 5.28579 0.240758C5.36108 0.207064 5.46608 0.160223 5.57533 0.120539C5.8175 0.0325793 6.16641 -0.0533411 6.58586 0.0412357C6.95879 0.125324 7.25881 0.325073 7.49115 0.507545ZM5.93028 2.45344C5.35254 2.69667 4.79821 2.99216 4.27421 3.33621C3.22832 4.03135 2.77997 4.51827 2.45865 5.20485C2.24512 5.66112 1.84994 7.46286 4.07257 11.5005C6.31094 15.5667 7.85262 17.6076 11.1026 20.8484C14.3423 24.079 16.8122 25.8025 20.4775 27.8581C22.7205 29.1143 24.1746 29.563 25.1139 29.6801C26 29.7906 26.4647 29.6122 26.7871 29.462C27.4791 29.1397 27.9682 28.6945 28.6622 27.6522C29.0071 27.1292 29.3032 26.5755 29.5468 25.9982C29.5796 25.9197 29.6118 25.8471 29.6391 25.7865C29.5325 25.66 29.3693 25.4851 29.1181 25.2314C28.6434 24.7532 27.7623 24.1063 26.7762 23.4684C25.8081 22.8421 24.8242 22.2788 24.2013 21.9647C23.7517 21.7382 23.4637 21.5942 23.2364 21.5014C23.0153 21.4111 22.951 21.4129 22.9535 21.4129C22.9742 21.4129 22.9036 21.3725 22.1542 21.9293C22.0776 21.9862 21.9948 22.0496 21.9072 22.1168C21.5733 22.3727 21.169 22.6827 20.7684 22.8912C20.1698 23.2028 19.4826 23.3598 18.6543 23.1831C17.9293 23.0285 16.9516 22.5702 15.9461 21.9439C14.9133 21.3006 13.7591 20.4226 12.6802 19.3471C11.6014 18.2719 10.7039 17.1037 10.0422 16.0581C9.40017 15.0436 8.91725 14.0458 8.76035 13.315C8.58171 12.4828 8.74458 11.7956 9.05828 11.2005C9.26044 10.8171 9.56263 10.4209 9.81135 10.0948C9.88453 9.99883 9.95308 9.90895 10.0131 9.82726C10.4935 9.17312 10.4822 9.06885 10.481 9.05748C10.481 9.0571 10.4809 9.05683 10.4809 9.05664C10.4809 9.03462 10.4758 8.95025 10.3914 8.72266C10.3051 8.48989 10.1706 8.19534 9.9637 7.75033C9.6811 7.14426 9.12714 6.17782 8.49278 5.21321C7.85107 4.23743 7.1892 3.35888 6.70556 2.88308L6.70474 2.88228L6.70392 2.88147C6.44872 2.6294 6.27321 2.46604 6.14649 2.35969C6.08492 2.38721 6.01073 2.41998 5.93028 2.45344Z" fill="black"/>
</svg>
