<svg width="1024" height="1024" viewBox="0 0 1024 1024" fill="none" xmlns="http://www.w3.org/2000/svg">
<path fill-rule="evenodd" clip-rule="evenodd" d="M512 102.4C440.359 102.387 369.967 121.164 307.851 156.858C245.735 192.551 194.067 243.912 158.004 305.815C121.942 367.717 102.746 437.996 102.332 509.636C101.919 581.276 120.302 651.771 155.648 714.086C179.539 683.037 210.25 657.898 245.406 640.613C280.563 623.327 319.224 614.358 358.4 614.399H665.6C704.776 614.358 743.437 623.327 778.594 640.613C813.75 657.898 844.461 683.037 868.352 714.086C903.697 651.771 922.081 581.276 921.668 509.636C921.254 437.996 902.058 367.717 865.996 305.815C829.933 243.912 778.265 192.551 716.149 156.858C654.033 121.164 583.641 102.387 512 102.4ZM918.681 823.09C987.137 733.847 1024.16 624.474 1024 512C1024 229.222 794.777 0 512 0C229.223 0 0.000576165 229.222 0.000576165 512C-0.168457 624.475 36.8597 733.849 105.319 823.09L105.063 824.012L123.239 845.158C171.258 901.299 230.881 946.36 297.996 977.235C365.111 1008.11 438.124 1024.06 512 1024C615.799 1024.19 717.179 992.66 802.56 933.631C838.959 908.482 871.965 878.746 900.761 845.158L918.937 824.012L918.681 823.09ZM512 204.8C471.263 204.8 432.194 220.983 403.388 249.788C374.583 278.594 358.4 317.662 358.4 358.4C358.4 399.137 374.583 438.206 403.388 467.011C432.194 495.817 471.263 512 512 512C552.737 512 591.806 495.817 620.611 467.011C649.417 438.206 665.6 399.137 665.6 358.4C665.6 317.662 649.417 278.594 620.611 249.788C591.806 220.983 552.737 204.8 512 204.8Z" fill="#8B8B8B"/>
</svg>
