<svg width="45" height="45" viewBox="0 0 45 45" fill="none" xmlns="http://www.w3.org/2000/svg">
<path fill-rule="evenodd" clip-rule="evenodd" d="M23 38.5455C31.5855 38.5455 38.5455 31.5855 38.5455 23C38.5455 14.4145 31.5855 7.45455 23 7.45455C14.4145 7.45455 7.45455 14.4145 7.45455 23C7.45455 31.5855 14.4145 38.5455 23 38.5455ZM23 41C32.9411 41 41 32.9411 41 23C41 13.0589 32.9411 5 23 5C13.0589 5 5 13.0589 5 23C5 32.9411 13.0589 41 23 41Z" fill="#666666"/>
<path d="M18.4438 20.3696L28.4495 13.5608L27.5558 25.6304L17.55 32.4393L18.4438 20.3696Z" fill="#666666"/>
</svg>
