<svg width="45" height="45" viewBox="0 0 45 45" fill="none" xmlns="http://www.w3.org/2000/svg">
<path fill-rule="evenodd" clip-rule="evenodd" d="M16.2527 9.5442C15.1645 9.42947 14.0643 9.53871 13.0214 9.86484C11.9786 10.191 11.0163 10.7267 10.1949 11.4375C9.37352 12.1482 8.71089 13.0186 8.2479 13.9931C7.78493 14.9677 7.53138 16.0258 7.50273 17.1009C7.47408 18.176 7.67092 19.2457 8.08125 20.2427C8.4916 21.2398 9.10679 22.1431 9.88892 22.8954L9.89686 22.9031L9.89682 22.9031L22.7653 35.5007L35.6337 22.9031C35.6662 22.8713 35.6999 22.8417 35.7348 22.8141C36.4646 22.0805 37.0402 21.2119 37.4288 20.2586C37.8344 19.2634 38.0277 18.1966 37.9968 17.1249C37.966 16.0532 37.7117 14.9988 37.2493 14.0277C36.787 13.0565 36.1263 12.1891 35.3078 11.4802C34.4893 10.7712 33.5307 10.2362 32.4917 9.90931C31.4526 9.58243 30.3561 9.47096 29.271 9.58211C28.186 9.69326 27.1364 10.0245 26.1881 10.5546C25.2397 11.0847 24.4134 11.802 23.7601 12.6607C23.523 12.9725 23.1535 13.155 22.7618 13.1539C22.3701 13.1528 22.0016 12.9682 21.7662 12.6552C21.1158 11.7901 20.2904 11.0666 19.3415 10.5308C18.3925 9.99507 17.3408 9.65893 16.2527 9.5442ZM37.2771 24.7929L23.6397 38.1432C23.1538 38.6189 22.3767 38.6189 21.8908 38.1432L8.15177 24.6933C7.1229 23.7026 6.3115 22.5114 5.76938 21.1942C5.22652 19.8751 4.96566 18.4587 5.00362 17.0343C5.04158 15.6099 5.37751 14.2091 5.98977 12.9204C6.602 11.6317 7.47704 10.4833 8.55898 9.54703C9.64088 8.61081 10.9063 7.90688 12.2753 7.47878C13.6442 7.05069 15.0876 6.90749 16.5148 7.05798C17.9421 7.20847 19.323 7.64948 20.5705 8.35384C21.3769 8.80911 22.1165 9.36811 22.7705 10.0149C23.4251 9.37479 24.1638 8.82209 24.9683 8.37242C26.215 7.67555 27.5931 7.24091 29.0163 7.09512C30.4395 6.94934 31.878 7.09545 33.2419 7.52454C34.6059 7.95364 35.8665 8.65669 36.9446 9.59047C38.0227 10.5243 38.8952 11.6689 39.5066 12.953C40.118 14.2373 40.4549 15.6331 40.4958 17.0529C40.5366 18.4728 40.2805 19.8854 39.7439 21.2022C39.2072 22.5189 38.4018 23.7109 37.3789 24.7041C37.3462 24.7358 37.3122 24.7654 37.2771 24.7929Z" fill="black"/>
</svg>
