<svg width="45" height="45" viewBox="0 0 45 45" fill="none" xmlns="http://www.w3.org/2000/svg">
<path fill-rule="evenodd" clip-rule="evenodd" d="M23 5C21.9977 5 21.0276 5.34547 20.2611 5.97538L7.51111 16.4598C6.55344 17.2482 6 18.4067 6 19.628V36.7766C6 37.1999 6.0855 37.619 6.25162 38.0101C6.41774 38.4012 6.66123 38.7566 6.96817 39.0559C7.27512 39.3552 7.63953 39.5926 8.04057 39.7546C8.44162 39.9166 8.87146 40 9.30556 40H15.9167C16.7934 40 17.6341 39.6604 18.254 39.0559C18.874 38.4514 19.2222 37.6315 19.2222 36.7766V27.5539C19.2222 27.4318 19.272 27.3146 19.3605 27.2283C19.4491 27.1419 19.5692 27.0934 19.6944 27.0934H26.3056C26.4308 27.0934 26.5509 27.1419 26.6395 27.2283C26.728 27.3146 26.7778 27.4318 26.7778 27.5539V36.7766C26.7778 37.6315 27.126 38.4514 27.746 39.0559C28.3659 39.6604 29.2066 40 30.0833 40H36.6944C37.5711 40 38.4119 39.6604 39.0318 39.0559C39.6517 38.4514 40 37.6315 40 36.7766V19.628C40 18.4067 39.4466 17.2482 38.4889 16.4598L25.7389 5.97538C24.9724 5.34547 24.0023 5 23 5Z" fill="#666666"/>
</svg>
