<svg width="45" height="45" viewBox="0 0 45 45" fill="none" xmlns="http://www.w3.org/2000/svg">
<path fill-rule="evenodd" clip-rule="evenodd" d="M23 38.5455C31.5855 38.5455 38.5455 31.5855 38.5455 23C38.5455 14.4145 31.5855 7.45455 23 7.45455C14.4145 7.45455 7.45455 14.4145 7.45455 23C7.45455 31.5855 14.4145 38.5455 23 38.5455ZM23 41C32.9411 41 41 32.9411 41 23C41 13.0589 32.9411 5 23 5C13.0589 5 5 13.0589 5 23C5 32.9411 13.0589 41 23 41Z" fill="#666666"/>
<path fill-rule="evenodd" clip-rule="evenodd" d="M23.0037 23.8828C25.316 23.8828 27.1905 21.9795 27.1905 19.6317C27.1905 17.2839 25.316 15.3807 23.0037 15.3807C20.6914 15.3807 18.8169 17.2839 18.8169 19.6317C18.8169 21.9795 20.6914 23.8828 23.0037 23.8828ZM23.0037 25.2634C26.067 25.2634 28.5503 22.742 28.5503 19.6317C28.5503 16.5214 26.067 14 23.0037 14C19.9404 14 17.457 16.5214 17.457 19.6317C17.457 22.742 19.9404 25.2634 23.0037 25.2634Z" fill="#666666" stroke="#666666" stroke-width="0.8" stroke-linecap="round" stroke-linejoin="round"/>
<path fill-rule="evenodd" clip-rule="evenodd" d="M23 29.2659C18.8965 29.2659 15.3037 31.5411 13.328 34.9476C13.0857 35.3653 12.5634 35.4999 12.1614 35.2482C11.7593 34.9965 11.6298 34.4539 11.8721 34.0362C14.1426 30.1214 18.2762 27.5 23 27.5C27.7238 27.5 31.8574 30.1214 34.1279 34.0362C34.3702 34.4539 34.2407 34.9965 33.8386 35.2482C33.4366 35.4999 32.9143 35.3653 32.672 34.9476C30.6963 31.5411 27.1035 29.2659 23 29.2659Z" fill="#666666" stroke="#666666" stroke-width="0.8" stroke-linecap="round" stroke-linejoin="round"/>
</svg>
